<svg xmlns="http://www.w3.org/2000/svg" version="1.1" width="344" height="170">
<path d="M 2.878906 39.319336 L 2.878906 32.412109 L 6.729980 32.412109 L 6.729980 33.335938 L 3.738281 33.335938 L 3.738281 39.319336 Z " fill="rgb(0, 0, 0)" fill-opacity="1.000000" />
<path d="M 2.878906 52.319336 L 2.878906 38.300781 L 3.738281 38.300781 L 3.738281 52.319336 Z " fill="rgb(0, 0, 0)" fill-opacity="1.000000" />
<path d="M 2.878906 59.335938 L 2.878906 51.300781 L 3.738281 51.300781 L 3.738281 58.412109 L 6.729980 58.412109 L 6.729980 59.335938 Z " fill="rgb(0, 0, 0)" fill-opacity="1.000000" />
<path d="M 2.878906 78.319336 L 2.878906 71.412109 L 6.729980 71.412109 L 6.729980 72.335938 L 3.738281 72.335938 L 3.738281 78.319336 Z " fill="rgb(0, 0, 0)" fill-opacity="1.000000" />
<path d="M 2.878906 91.319336 L 2.878906 77.300781 L 3.738281 77.300781 L 3.738281 91.319336 Z " fill="rgb(0, 0, 0)" fill-opacity="1.000000" />
<path d="M 2.878906 98.335938 L 2.878906 90.300781 L 3.738281 90.300781 L 3.738281 97.412109 L 6.729980 97.412109 L 6.729980 98.335938 Z " fill="rgb(0, 0, 0)" fill-opacity="1.000000" />
<path d="M 2.878906 117.319336 L 2.878906 110.412109 L 6.729980 110.412109 L 6.729980 111.335938 L 3.738281 111.335938 L 3.738281 117.319336 Z " fill="rgb(0, 0, 0)" fill-opacity="1.000000" />
<path d="M 2.878906 130.319336 L 2.878906 116.300781 L 3.738281 116.300781 L 3.738281 130.319336 Z " fill="rgb(0, 0, 0)" fill-opacity="1.000000" />
<path d="M 2.878906 137.335938 L 2.878906 129.300781 L 3.738281 129.300781 L 3.738281 136.412109 L 6.729980 136.412109 L 6.729980 137.335938 Z " fill="rgb(0, 0, 0)" fill-opacity="1.000000" />
<path d="M 240.878906 150.335938 L 240.878906 142.300781 L 241.738281 142.300781 L 241.738281 149.412109 L 244.729980 149.412109 L 244.729980 150.335938 Z " fill="rgb(0, 0, 0)" fill-opacity="1.000000" />
<path d="M 275.878906 163.335938 L 275.878906 155.300781 L 276.738281 155.300781 L 276.738281 162.412109 L 279.729980 162.412109 L 279.729980 163.335938 Z " fill="rgb(0, 0, 0)" fill-opacity="1.000000" />
<path d="M 279.892578 163.335938 L 279.892578 162.412109 L 286.729980 162.412109 L 286.729980 163.335938 Z " fill="rgb(0, 0, 0)" fill-opacity="1.000000" />
<path d="M 286.892578 163.335938 L 286.892578 162.412109 L 293.729980 162.412109 L 293.729980 163.335938 Z " fill="rgb(0, 0, 0)" fill-opacity="1.000000" />
<path d="M 293.892578 163.335938 L 293.892578 162.412109 L 300.729980 162.412109 L 300.729980 163.335938 Z " fill="rgb(0, 0, 0)" fill-opacity="1.000000" />
<path d="M 300.892578 163.335938 L 300.892578 162.412109 L 307.729980 162.412109 L 307.729980 163.335938 Z " fill="rgb(0, 0, 0)" fill-opacity="1.000000" />
<path d="M 307.892578 163.335938 L 307.892578 162.412109 L 314.729980 162.412109 L 314.729980 163.335938 Z " fill="rgb(0, 0, 0)" fill-opacity="1.000000" />
<path d="M 314.892578 163.335938 L 314.892578 162.412109 L 321.729980 162.412109 L 321.729980 163.335938 Z " fill="rgb(0, 0, 0)" fill-opacity="1.000000" />
<path d="M 321.892578 163.335938 L 321.892578 162.412109 L 328.729980 162.412109 L 328.729980 163.335938 Z " fill="rgb(0, 0, 0)" fill-opacity="1.000000" />
<path d="M 328.892578 163.335938 L 328.892578 162.412109 L 335.729980 162.412109 L 335.729980 163.335938 Z " fill="rgb(0, 0, 0)" fill-opacity="1.000000" />
<path d="M 335.892578 163.335938 L 335.892578 162.412109 L 338.878906 162.412109 L 338.878906 155.300781 L 339.738281 155.300781 L 339.738281 163.335938 Z " fill="rgb(0, 0, 0)" fill-opacity="1.000000" />
<path d="M 244.892578 150.335938 L 244.892578 149.412109 L 251.729980 149.412109 L 251.729980 150.335938 Z " fill="rgb(0, 0, 0)" fill-opacity="1.000000" />
<path d="M 251.892578 150.335938 L 251.892578 149.412109 L 258.729980 149.412109 L 258.729980 150.335938 Z " fill="rgb(0, 0, 0)" fill-opacity="1.000000" />
<path d="M 258.892578 150.335938 L 258.892578 149.412109 L 265.729980 149.412109 L 265.729980 150.335938 Z " fill="rgb(0, 0, 0)" fill-opacity="1.000000" />
<path d="M 266.032227 153.418945 L 266.032227 146.866211 L 272.590332 150.142578 Z " fill="rgb(0, 0, 0)" fill-opacity="1.000000" />
<path d="M 275.878906 156.319336 L 275.878906 142.300781 L 276.738281 142.300781 L 276.738281 156.319336 Z " fill="rgb(0, 0, 0)" fill-opacity="1.000000" />
<path d="M 292.435547 145.254883 L 292.435547 146.355957 Q 291.941406 146.039062 291.444580 145.877930 Q 290.947754 145.716797 290.442871 145.716797 Q 289.674805 145.716797 289.229004 146.073975 Q 288.783203 146.431152 288.783203 147.038086 Q 288.783203 147.569824 289.075928 147.849121 Q 289.368652 148.128418 290.168945 148.316406 L 290.738281 148.445312 Q 291.866211 148.708496 292.381836 149.272461 Q 292.897461 149.836426 292.897461 150.808594 Q 292.897461 151.952637 292.188477 152.554199 Q 291.479492 153.155762 290.125977 153.155762 Q 289.562012 153.155762 288.992676 153.034912 Q 288.423340 152.914062 287.848633 152.672363 L 287.848633 151.517578 Q 288.466309 151.909668 289.016846 152.092285 Q 289.567383 152.274902 290.125977 152.274902 Q 290.947754 152.274902 291.404297 151.906982 Q 291.860840 151.539062 291.860840 150.878418 Q 291.860840 150.276855 291.546631 149.959961 Q 291.232422 149.643066 290.453613 149.471191 L 289.873535 149.336914 Q 288.756348 149.084473 288.251465 148.574219 Q 287.746582 148.063965 287.746582 147.204590 Q 287.746582 146.130371 288.468994 145.483154 Q 289.191406 144.835938 290.389160 144.835938 Q 290.851074 144.835938 291.361328 144.940674 Q 291.871582 145.045410 292.435547 145.254883 Z " fill="rgb(0, 0, 0)" fill-opacity="1.000000" />
<path d="M 295.058105 144.980957 L 299.816895 144.980957 L 299.816895 145.894043 L 296.143066 145.894043 L 296.143066 148.053223 L 299.655762 148.053223 L 299.655762 148.966309 L 296.143066 148.966309 L 296.143066 152.086914 L 299.918945 152.086914 L 299.918945 153.000000 L 295.058105 153.000000 Z " fill="rgb(0, 0, 0)" fill-opacity="1.000000" />
<path d="M 305.082031 149.213379 Q 305.500977 149.320801 305.796387 149.618896 Q 306.091797 149.916992 306.532227 150.808594 L 307.622559 153.000000 L 306.457031 153.000000 L 305.500977 150.975098 Q 305.087402 150.110352 304.757080 149.860596 Q 304.426758 149.610840 303.895020 149.610840 L 302.858398 149.610840 L 302.858398 153.000000 L 301.768066 153.000000 L 301.768066 144.980957 L 304.002441 144.980957 Q 305.323730 144.980957 306.027344 145.577148 Q 306.730957 146.173340 306.730957 147.301270 Q 306.730957 148.096191 306.298584 148.598389 Q 305.866211 149.100586 305.082031 149.213379 Z M 302.858398 145.872559 L 302.858398 148.719238 L 304.045410 148.719238 Q 304.824219 148.719238 305.205566 148.370117 Q 305.586914 148.020996 305.586914 147.301270 Q 305.586914 146.608398 305.181396 146.240479 Q 304.775879 145.872559 304.002441 145.872559 Z " fill="rgb(0, 0, 0)" fill-opacity="1.000000" />
<path d="M 311.308594 152.086914 L 313.193848 144.980957 L 314.316406 144.980957 L 311.969238 153.000000 L 310.653320 153.000000 L 308.306152 144.980957 L 309.428711 144.980957 Z " fill="rgb(0, 0, 0)" fill-opacity="1.000000" />
<path d="M 316.058105 144.980957 L 320.816895 144.980957 L 320.816895 145.894043 L 317.143066 145.894043 L 317.143066 148.053223 L 320.655762 148.053223 L 320.655762 148.966309 L 317.143066 148.966309 L 317.143066 152.086914 L 320.918945 152.086914 L 320.918945 153.000000 L 316.058105 153.000000 Z " fill="rgb(0, 0, 0)" fill-opacity="1.000000" />
<path d="M 326.082031 149.213379 Q 326.500977 149.320801 326.796387 149.618896 Q 327.091797 149.916992 327.532227 150.808594 L 328.622559 153.000000 L 327.457031 153.000000 L 326.500977 150.975098 Q 326.087402 150.110352 325.757080 149.860596 Q 325.426758 149.610840 324.895020 149.610840 L 323.858398 149.610840 L 323.858398 153.000000 L 322.768066 153.000000 L 322.768066 144.980957 L 325.002441 144.980957 Q 326.323730 144.980957 327.027344 145.577148 Q 327.730957 146.173340 327.730957 147.301270 Q 327.730957 148.096191 327.298584 148.598389 Q 326.866211 149.100586 326.082031 149.213379 Z M 323.858398 145.872559 L 323.858398 148.719238 L 325.045410 148.719238 Q 325.824219 148.719238 326.205566 148.370117 Q 326.586914 148.020996 326.586914 147.301270 Q 326.586914 146.608398 326.181396 146.240479 Q 325.775879 145.872559 325.002441 145.872559 Z " fill="rgb(0, 0, 0)" fill-opacity="1.000000" />
<path d="M 338.878906 156.319336 L 338.878906 142.300781 L 339.738281 142.300781 L 339.738281 156.319336 Z " fill="rgb(0, 0, 0)" fill-opacity="1.000000" />
<path d="M 6.892578 137.335938 L 6.892578 136.412109 L 13.729980 136.412109 L 13.729980 137.335938 Z " fill="rgb(0, 0, 0)" fill-opacity="1.000000" />
<path d="M 13.892578 137.335938 L 13.892578 136.412109 L 20.729980 136.412109 L 20.729980 137.335938 Z " fill="rgb(0, 0, 0)" fill-opacity="1.000000" />
<path d="M 20.892578 137.335938 L 20.892578 136.412109 L 27.729980 136.412109 L 27.729980 137.335938 Z " fill="rgb(0, 0, 0)" fill-opacity="1.000000" />
<path d="M 27.892578 137.335938 L 27.892578 136.412109 L 34.729980 136.412109 L 34.729980 137.335938 Z " fill="rgb(0, 0, 0)" fill-opacity="1.000000" />
<path d="M 34.892578 137.335938 L 34.892578 136.412109 L 41.729980 136.412109 L 41.729980 137.335938 Z " fill="rgb(0, 0, 0)" fill-opacity="1.000000" />
<path d="M 41.892578 137.335938 L 41.892578 136.412109 L 48.729980 136.412109 L 48.729980 137.335938 Z " fill="rgb(0, 0, 0)" fill-opacity="1.000000" />
<path d="M 48.892578 137.335938 L 48.892578 136.412109 L 55.729980 136.412109 L 55.729980 137.335938 Z " fill="rgb(0, 0, 0)" fill-opacity="1.000000" />
<path d="M 55.892578 137.335938 L 55.892578 136.412109 L 62.729980 136.412109 L 62.729980 137.335938 Z " fill="rgb(0, 0, 0)" fill-opacity="1.000000" />
<path d="M 62.892578 137.335938 L 62.892578 136.412109 L 65.878906 136.412109 L 65.878906 129.300781 L 66.738281 129.300781 L 66.738281 137.335938 Z " fill="rgb(0, 0, 0)" fill-opacity="1.000000" />
<path d="M 240.878906 143.319336 L 240.878906 129.300781 L 241.738281 129.300781 L 241.738281 143.319336 Z " fill="rgb(0, 0, 0)" fill-opacity="1.000000" />
<path d="M 275.878906 143.319336 L 275.878906 136.412109 L 279.729980 136.412109 L 279.729980 137.335938 L 276.738281 137.335938 L 276.738281 143.319336 Z " fill="rgb(0, 0, 0)" fill-opacity="1.000000" />
<path d="M 279.892578 137.335938 L 279.892578 136.412109 L 286.729980 136.412109 L 286.729980 137.335938 Z " fill="rgb(0, 0, 0)" fill-opacity="1.000000" />
<path d="M 286.892578 137.335938 L 286.892578 136.412109 L 293.729980 136.412109 L 293.729980 137.335938 Z " fill="rgb(0, 0, 0)" fill-opacity="1.000000" />
<path d="M 293.892578 137.335938 L 293.892578 136.412109 L 300.729980 136.412109 L 300.729980 137.335938 Z " fill="rgb(0, 0, 0)" fill-opacity="1.000000" />
<path d="M 300.892578 137.335938 L 300.892578 136.412109 L 307.729980 136.412109 L 307.729980 137.335938 Z " fill="rgb(0, 0, 0)" fill-opacity="1.000000" />
<path d="M 307.892578 137.335938 L 307.892578 136.412109 L 314.729980 136.412109 L 314.729980 137.335938 Z " fill="rgb(0, 0, 0)" fill-opacity="1.000000" />
<path d="M 314.892578 137.335938 L 314.892578 136.412109 L 321.729980 136.412109 L 321.729980 137.335938 Z " fill="rgb(0, 0, 0)" fill-opacity="1.000000" />
<path d="M 321.892578 137.335938 L 321.892578 136.412109 L 328.729980 136.412109 L 328.729980 137.335938 Z " fill="rgb(0, 0, 0)" fill-opacity="1.000000" />
<path d="M 328.892578 137.335938 L 328.892578 136.412109 L 335.729980 136.412109 L 335.729980 137.335938 Z " fill="rgb(0, 0, 0)" fill-opacity="1.000000" />
<path d="M 338.878906 143.319336 L 338.878906 137.335938 L 335.892578 137.335938 L 335.892578 136.412109 L 339.738281 136.412109 L 339.738281 143.319336 Z " fill="rgb(0, 0, 0)" fill-opacity="1.000000" />
<path d="M 21.789551 123.922363 L 21.789551 118.980957 L 22.879883 118.980957 L 22.879883 124.416504 Q 22.879883 125.001953 22.912109 125.251709 Q 22.944336 125.501465 23.024902 125.635742 Q 23.196777 125.952637 23.521729 126.113770 Q 23.846680 126.274902 24.308594 126.274902 Q 24.775879 126.274902 25.098145 126.113770 Q 25.420410 125.952637 25.597656 125.635742 Q 25.678223 125.501465 25.710449 125.254395 Q 25.742676 125.007324 25.742676 124.427246 L 25.742676 118.980957 L 26.827637 118.980957 L 26.827637 123.922363 Q 26.827637 125.152344 26.674561 125.670654 Q 26.521484 126.188965 26.145508 126.527344 Q 25.791016 126.844238 25.334473 127.000000 Q 24.877930 127.155762 24.308594 127.155762 Q 23.744629 127.155762 23.288086 127.000000 Q 22.831543 126.844238 22.471680 126.527344 Q 22.101074 126.194336 21.945312 125.665283 Q 21.789551 125.136230 21.789551 123.922363 Z " fill="rgb(0, 0, 0)" fill-opacity="1.000000" />
<path d="M 33.435547 119.254883 L 33.435547 120.355957 Q 32.941406 120.039062 32.444580 119.877930 Q 31.947754 119.716797 31.442871 119.716797 Q 30.674805 119.716797 30.229004 120.073975 Q 29.783203 120.431152 29.783203 121.038086 Q 29.783203 121.569824 30.075928 121.849121 Q 30.368652 122.128418 31.168945 122.316406 L 31.738281 122.445312 Q 32.866211 122.708496 33.381836 123.272461 Q 33.897461 123.836426 33.897461 124.808594 Q 33.897461 125.952637 33.188477 126.554199 Q 32.479492 127.155762 31.125977 127.155762 Q 30.562012 127.155762 29.992676 127.034912 Q 29.423340 126.914062 28.848633 126.672363 L 28.848633 125.517578 Q 29.466309 125.909668 30.016846 126.092285 Q 30.567383 126.274902 31.125977 126.274902 Q 31.947754 126.274902 32.404297 125.906982 Q 32.860840 125.539062 32.860840 124.878418 Q 32.860840 124.276855 32.546631 123.959961 Q 32.232422 123.643066 31.453613 123.471191 L 30.873535 123.336914 Q 29.756348 123.084473 29.251465 122.574219 Q 28.746582 122.063965 28.746582 121.204590 Q 28.746582 120.130371 29.468994 119.483154 Q 30.191406 118.835938 31.389160 118.835938 Q 31.851074 118.835938 32.361328 118.940674 Q 32.871582 119.045410 33.435547 119.254883 Z " fill="rgb(0, 0, 0)" fill-opacity="1.000000" />
<path d="M 36.058105 118.980957 L 40.816895 118.980957 L 40.816895 119.894043 L 37.143066 119.894043 L 37.143066 122.053223 L 40.655762 122.053223 L 40.655762 122.966309 L 37.143066 122.966309 L 37.143066 126.086914 L 40.918945 126.086914 L 40.918945 127.000000 L 36.058105 127.000000 Z " fill="rgb(0, 0, 0)" fill-opacity="1.000000" />
<path d="M 46.082031 123.213379 Q 46.500977 123.320801 46.796387 123.618896 Q 47.091797 123.916992 47.532227 124.808594 L 48.622559 127.000000 L 47.457031 127.000000 L 46.500977 124.975098 Q 46.087402 124.110352 45.757080 123.860596 Q 45.426758 123.610840 44.895020 123.610840 L 43.858398 123.610840 L 43.858398 127.000000 L 42.768066 127.000000 L 42.768066 118.980957 L 45.002441 118.980957 Q 46.323730 118.980957 47.027344 119.577148 Q 47.730957 120.173340 47.730957 121.301270 Q 47.730957 122.096191 47.298584 122.598389 Q 46.866211 123.100586 46.082031 123.213379 Z M 43.858398 119.872559 L 43.858398 122.719238 L 45.045410 122.719238 Q 45.824219 122.719238 46.205566 122.370117 Q 46.586914 122.020996 46.586914 121.301270 Q 46.586914 120.608398 46.181396 120.240479 Q 45.775879 119.872559 45.002441 119.872559 Z " fill="rgb(0, 0, 0)" fill-opacity="1.000000" />
<path d="M 65.878906 130.319336 L 65.878906 116.300781 L 66.738281 116.300781 L 66.738281 130.319336 Z " fill="rgb(0, 0, 0)" fill-opacity="1.000000" />
<path d="M 69.892578 124.335938 L 69.892578 123.412109 L 76.729980 123.412109 L 76.729980 124.335938 Z " fill="rgb(0, 0, 0)" fill-opacity="1.000000" />
<path d="M 76.892578 124.335938 L 76.892578 123.412109 L 83.729980 123.412109 L 83.729980 124.335938 Z " fill="rgb(0, 0, 0)" fill-opacity="1.000000" />
<path d="M 83.892578 124.335938 L 83.892578 123.412109 L 90.729980 123.412109 L 90.729980 124.335938 Z " fill="rgb(0, 0, 0)" fill-opacity="1.000000" />
<path d="M 90.892578 124.335938 L 90.892578 123.412109 L 93.878906 123.412109 L 93.878906 116.300781 L 94.738281 116.300781 L 94.738281 124.335938 Z " fill="rgb(0, 0, 0)" fill-opacity="1.000000" />
<path d="M 240.878906 130.319336 L 240.878906 116.300781 L 241.738281 116.300781 L 241.738281 130.319336 Z " fill="rgb(0, 0, 0)" fill-opacity="1.000000" />
<path d="M 6.892578 111.335938 L 6.892578 110.412109 L 13.729980 110.412109 L 13.729980 111.335938 Z " fill="rgb(0, 0, 0)" fill-opacity="1.000000" />
<path d="M 13.892578 111.335938 L 13.892578 110.412109 L 20.729980 110.412109 L 20.729980 111.335938 Z " fill="rgb(0, 0, 0)" fill-opacity="1.000000" />
<path d="M 20.892578 111.335938 L 20.892578 110.412109 L 27.729980 110.412109 L 27.729980 111.335938 Z " fill="rgb(0, 0, 0)" fill-opacity="1.000000" />
<path d="M 27.892578 111.335938 L 27.892578 110.412109 L 34.729980 110.412109 L 34.729980 111.335938 Z " fill="rgb(0, 0, 0)" fill-opacity="1.000000" />
<path d="M 34.892578 111.335938 L 34.892578 110.412109 L 41.729980 110.412109 L 41.729980 111.335938 Z " fill="rgb(0, 0, 0)" fill-opacity="1.000000" />
<path d="M 41.892578 111.335938 L 41.892578 110.412109 L 48.729980 110.412109 L 48.729980 111.335938 Z " fill="rgb(0, 0, 0)" fill-opacity="1.000000" />
<path d="M 48.892578 111.335938 L 48.892578 110.412109 L 55.729980 110.412109 L 55.729980 111.335938 Z " fill="rgb(0, 0, 0)" fill-opacity="1.000000" />
<path d="M 55.892578 111.335938 L 55.892578 110.412109 L 62.729980 110.412109 L 62.729980 111.335938 Z " fill="rgb(0, 0, 0)" fill-opacity="1.000000" />
<path d="M 65.878906 117.319336 L 65.878906 111.335938 L 62.892578 111.335938 L 62.892578 110.412109 L 66.738281 110.412109 L 66.738281 117.319336 Z " fill="rgb(0, 0, 0)" fill-opacity="1.000000" />
<path d="M 93.878906 117.319336 L 93.878906 103.300781 L 94.738281 103.300781 L 94.738281 117.319336 Z " fill="rgb(0, 0, 0)" fill-opacity="1.000000" />
<path d="M 131.016602 116.750000 L 131.016602 115.348145 L 131.875977 115.348145 L 131.875977 116.750000 Z M 127.600586 116.750000 L 127.600586 115.348145 L 128.454590 115.348145 L 128.454590 116.750000 Z M 129.308594 114.789551 L 129.308594 113.387695 L 130.162598 113.387695 L 130.162598 114.789551 Z M 125.892578 114.789551 L 125.892578 113.387695 L 126.741211 113.387695 L 126.741211 114.789551 Z M 131.016602 112.823730 L 131.016602 111.421875 L 131.875977 111.421875 L 131.875977 112.823730 Z M 127.600586 112.823730 L 127.600586 111.421875 L 128.454590 111.421875 L 128.454590 112.823730 Z M 129.308594 110.863281 L 129.308594 109.461426 L 130.162598 109.461426 L 130.162598 110.863281 Z M 125.892578 110.863281 L 125.892578 109.461426 L 126.741211 109.461426 L 126.741211 110.863281 Z M 131.016602 108.897461 L 131.016602 107.495605 L 131.875977 107.495605 L 131.875977 108.897461 Z M 127.600586 108.897461 L 127.600586 107.495605 L 128.454590 107.495605 L 128.454590 108.897461 Z M 129.308594 106.937012 L 129.308594 105.535156 L 130.162598 105.535156 L 130.162598 106.937012 Z M 125.892578 106.937012 L 125.892578 105.535156 L 126.741211 105.535156 L 126.741211 106.937012 Z " fill="rgb(0, 0, 0)" fill-opacity="1.000000" />
<path d="M 138.016602 116.750000 L 138.016602 115.348145 L 138.875977 115.348145 L 138.875977 116.750000 Z M 134.600586 116.750000 L 134.600586 115.348145 L 135.454590 115.348145 L 135.454590 116.750000 Z M 136.308594 114.789551 L 136.308594 113.387695 L 137.162598 113.387695 L 137.162598 114.789551 Z M 132.892578 114.789551 L 132.892578 113.387695 L 133.741211 113.387695 L 133.741211 114.789551 Z M 138.016602 112.823730 L 138.016602 111.421875 L 138.875977 111.421875 L 138.875977 112.823730 Z M 134.600586 112.823730 L 134.600586 111.421875 L 135.454590 111.421875 L 135.454590 112.823730 Z M 136.308594 110.863281 L 136.308594 109.461426 L 137.162598 109.461426 L 137.162598 110.863281 Z M 132.892578 110.863281 L 132.892578 109.461426 L 133.741211 109.461426 L 133.741211 110.863281 Z M 138.016602 108.897461 L 138.016602 107.495605 L 138.875977 107.495605 L 138.875977 108.897461 Z M 134.600586 108.897461 L 134.600586 107.495605 L 135.454590 107.495605 L 135.454590 108.897461 Z M 136.308594 106.937012 L 136.308594 105.535156 L 137.162598 105.535156 L 137.162598 106.937012 Z M 132.892578 106.937012 L 132.892578 105.535156 L 133.741211 105.535156 L 133.741211 106.937012 Z " fill="rgb(0, 0, 0)" fill-opacity="1.000000" />
<path d="M 145.016602 116.750000 L 145.016602 115.348145 L 145.875977 115.348145 L 145.875977 116.750000 Z M 141.600586 116.750000 L 141.600586 115.348145 L 142.454590 115.348145 L 142.454590 116.750000 Z M 143.308594 114.789551 L 143.308594 113.387695 L 144.162598 113.387695 L 144.162598 114.789551 Z M 139.892578 114.789551 L 139.892578 113.387695 L 140.741211 113.387695 L 140.741211 114.789551 Z M 145.016602 112.823730 L 145.016602 111.421875 L 145.875977 111.421875 L 145.875977 112.823730 Z M 141.600586 112.823730 L 141.600586 111.421875 L 142.454590 111.421875 L 142.454590 112.823730 Z M 143.308594 110.863281 L 143.308594 109.461426 L 144.162598 109.461426 L 144.162598 110.863281 Z M 139.892578 110.863281 L 139.892578 109.461426 L 140.741211 109.461426 L 140.741211 110.863281 Z M 145.016602 108.897461 L 145.016602 107.495605 L 145.875977 107.495605 L 145.875977 108.897461 Z M 141.600586 108.897461 L 141.600586 107.495605 L 142.454590 107.495605 L 142.454590 108.897461 Z M 143.308594 106.937012 L 143.308594 105.535156 L 144.162598 105.535156 L 144.162598 106.937012 Z M 139.892578 106.937012 L 139.892578 105.535156 L 140.741211 105.535156 L 140.741211 106.937012 Z " fill="rgb(0, 0, 0)" fill-opacity="1.000000" />
<path d="M 152.016602 116.750000 L 152.016602 115.348145 L 152.875977 115.348145 L 152.875977 116.750000 Z M 148.600586 116.750000 L 148.600586 115.348145 L 149.454590 115.348145 L 149.454590 116.750000 Z M 150.308594 114.789551 L 150.308594 113.387695 L 151.162598 113.387695 L 151.162598 114.789551 Z M 146.892578 114.789551 L 146.892578 113.387695 L 147.741211 113.387695 L 147.741211 114.789551 Z M 152.016602 112.823730 L 152.016602 111.421875 L 152.875977 111.421875 L 152.875977 112.823730 Z M 148.600586 112.823730 L 148.600586 111.421875 L 149.454590 111.421875 L 149.454590 112.823730 Z M 150.308594 110.863281 L 150.308594 109.461426 L 151.162598 109.461426 L 151.162598 110.863281 Z M 146.892578 110.863281 L 146.892578 109.461426 L 147.741211 109.461426 L 147.741211 110.863281 Z M 152.016602 108.897461 L 152.016602 107.495605 L 152.875977 107.495605 L 152.875977 108.897461 Z M 148.600586 108.897461 L 148.600586 107.495605 L 149.454590 107.495605 L 149.454590 108.897461 Z M 150.308594 106.937012 L 150.308594 105.535156 L 151.162598 105.535156 L 151.162598 106.937012 Z M 146.892578 106.937012 L 146.892578 105.535156 L 147.741211 105.535156 L 147.741211 106.937012 Z " fill="rgb(0, 0, 0)" fill-opacity="1.000000" />
<path d="M 159.016602 116.750000 L 159.016602 115.348145 L 159.875977 115.348145 L 159.875977 116.750000 Z M 155.600586 116.750000 L 155.600586 115.348145 L 156.454590 115.348145 L 156.454590 116.750000 Z M 157.308594 114.789551 L 157.308594 113.387695 L 158.162598 113.387695 L 158.162598 114.789551 Z M 153.892578 114.789551 L 153.892578 113.387695 L 154.741211 113.387695 L 154.741211 114.789551 Z M 159.016602 112.823730 L 159.016602 111.421875 L 159.875977 111.421875 L 159.875977 112.823730 Z M 155.600586 112.823730 L 155.600586 111.421875 L 156.454590 111.421875 L 156.454590 112.823730 Z M 157.308594 110.863281 L 157.308594 109.461426 L 158.162598 109.461426 L 158.162598 110.863281 Z M 153.892578 110.863281 L 153.892578 109.461426 L 154.741211 109.461426 L 154.741211 110.863281 Z M 159.016602 108.897461 L 159.016602 107.495605 L 159.875977 107.495605 L 159.875977 108.897461 Z M 155.600586 108.897461 L 155.600586 107.495605 L 156.454590 107.495605 L 156.454590 108.897461 Z M 157.308594 106.937012 L 157.308594 105.535156 L 158.162598 105.535156 L 158.162598 106.937012 Z M 153.892578 106.937012 L 153.892578 105.535156 L 154.741211 105.535156 L 154.741211 106.937012 Z " fill="rgb(0, 0, 0)" fill-opacity="1.000000" />
<path d="M 166.016602 116.750000 L 166.016602 115.348145 L 166.875977 115.348145 L 166.875977 116.750000 Z M 162.600586 116.750000 L 162.600586 115.348145 L 163.454590 115.348145 L 163.454590 116.750000 Z M 164.308594 114.789551 L 164.308594 113.387695 L 165.162598 113.387695 L 165.162598 114.789551 Z M 160.892578 114.789551 L 160.892578 113.387695 L 161.741211 113.387695 L 161.741211 114.789551 Z M 166.016602 112.823730 L 166.016602 111.421875 L 166.875977 111.421875 L 166.875977 112.823730 Z M 162.600586 112.823730 L 162.600586 111.421875 L 163.454590 111.421875 L 163.454590 112.823730 Z M 164.308594 110.863281 L 164.308594 109.461426 L 165.162598 109.461426 L 165.162598 110.863281 Z M 160.892578 110.863281 L 160.892578 109.461426 L 161.741211 109.461426 L 161.741211 110.863281 Z M 166.016602 108.897461 L 166.016602 107.495605 L 166.875977 107.495605 L 166.875977 108.897461 Z M 162.600586 108.897461 L 162.600586 107.495605 L 163.454590 107.495605 L 163.454590 108.897461 Z M 164.308594 106.937012 L 164.308594 105.535156 L 165.162598 105.535156 L 165.162598 106.937012 Z M 160.892578 106.937012 L 160.892578 105.535156 L 161.741211 105.535156 L 161.741211 106.937012 Z " fill="rgb(0, 0, 0)" fill-opacity="1.000000" />
<path d="M 173.016602 116.750000 L 173.016602 115.348145 L 173.875977 115.348145 L 173.875977 116.750000 Z M 169.600586 116.750000 L 169.600586 115.348145 L 170.454590 115.348145 L 170.454590 116.750000 Z M 171.308594 114.789551 L 171.308594 113.387695 L 172.162598 113.387695 L 172.162598 114.789551 Z M 167.892578 114.789551 L 167.892578 113.387695 L 168.741211 113.387695 L 168.741211 114.789551 Z M 173.016602 112.823730 L 173.016602 111.421875 L 173.875977 111.421875 L 173.875977 112.823730 Z M 169.600586 112.823730 L 169.600586 111.421875 L 170.454590 111.421875 L 170.454590 112.823730 Z M 171.308594 110.863281 L 171.308594 109.461426 L 172.162598 109.461426 L 172.162598 110.863281 Z M 167.892578 110.863281 L 167.892578 109.461426 L 168.741211 109.461426 L 168.741211 110.863281 Z M 173.016602 108.897461 L 173.016602 107.495605 L 173.875977 107.495605 L 173.875977 108.897461 Z M 169.600586 108.897461 L 169.600586 107.495605 L 170.454590 107.495605 L 170.454590 108.897461 Z M 171.308594 106.937012 L 171.308594 105.535156 L 172.162598 105.535156 L 172.162598 106.937012 Z M 167.892578 106.937012 L 167.892578 105.535156 L 168.741211 105.535156 L 168.741211 106.937012 Z " fill="rgb(0, 0, 0)" fill-opacity="1.000000" />
<path d="M 180.016602 116.750000 L 180.016602 115.348145 L 180.875977 115.348145 L 180.875977 116.750000 Z M 176.600586 116.750000 L 176.600586 115.348145 L 177.454590 115.348145 L 177.454590 116.750000 Z M 178.308594 114.789551 L 178.308594 113.387695 L 179.162598 113.387695 L 179.162598 114.789551 Z M 174.892578 114.789551 L 174.892578 113.387695 L 175.741211 113.387695 L 175.741211 114.789551 Z M 180.016602 112.823730 L 180.016602 111.421875 L 180.875977 111.421875 L 180.875977 112.823730 Z M 176.600586 112.823730 L 176.600586 111.421875 L 177.454590 111.421875 L 177.454590 112.823730 Z M 178.308594 110.863281 L 178.308594 109.461426 L 179.162598 109.461426 L 179.162598 110.863281 Z M 174.892578 110.863281 L 174.892578 109.461426 L 175.741211 109.461426 L 175.741211 110.863281 Z M 180.016602 108.897461 L 180.016602 107.495605 L 180.875977 107.495605 L 180.875977 108.897461 Z M 176.600586 108.897461 L 176.600586 107.495605 L 177.454590 107.495605 L 177.454590 108.897461 Z M 178.308594 106.937012 L 178.308594 105.535156 L 179.162598 105.535156 L 179.162598 106.937012 Z M 174.892578 106.937012 L 174.892578 105.535156 L 175.741211 105.535156 L 175.741211 106.937012 Z " fill="rgb(0, 0, 0)" fill-opacity="1.000000" />
<path d="M 187.016602 116.750000 L 187.016602 115.348145 L 187.875977 115.348145 L 187.875977 116.750000 Z M 183.600586 116.750000 L 183.600586 115.348145 L 184.454590 115.348145 L 184.454590 116.750000 Z M 185.308594 114.789551 L 185.308594 113.387695 L 186.162598 113.387695 L 186.162598 114.789551 Z M 181.892578 114.789551 L 181.892578 113.387695 L 182.741211 113.387695 L 182.741211 114.789551 Z M 187.016602 112.823730 L 187.016602 111.421875 L 187.875977 111.421875 L 187.875977 112.823730 Z M 183.600586 112.823730 L 183.600586 111.421875 L 184.454590 111.421875 L 184.454590 112.823730 Z M 185.308594 110.863281 L 185.308594 109.461426 L 186.162598 109.461426 L 186.162598 110.863281 Z M 181.892578 110.863281 L 181.892578 109.461426 L 182.741211 109.461426 L 182.741211 110.863281 Z M 187.016602 108.897461 L 187.016602 107.495605 L 187.875977 107.495605 L 187.875977 108.897461 Z M 183.600586 108.897461 L 183.600586 107.495605 L 184.454590 107.495605 L 184.454590 108.897461 Z M 185.308594 106.937012 L 185.308594 105.535156 L 186.162598 105.535156 L 186.162598 106.937012 Z M 181.892578 106.937012 L 181.892578 105.535156 L 182.741211 105.535156 L 182.741211 106.937012 Z " fill="rgb(0, 0, 0)" fill-opacity="1.000000" />
<path d="M 194.016602 116.750000 L 194.016602 115.348145 L 194.875977 115.348145 L 194.875977 116.750000 Z M 190.600586 116.750000 L 190.600586 115.348145 L 191.454590 115.348145 L 191.454590 116.750000 Z M 192.308594 114.789551 L 192.308594 113.387695 L 193.162598 113.387695 L 193.162598 114.789551 Z M 188.892578 114.789551 L 188.892578 113.387695 L 189.741211 113.387695 L 189.741211 114.789551 Z M 194.016602 112.823730 L 194.016602 111.421875 L 194.875977 111.421875 L 194.875977 112.823730 Z M 190.600586 112.823730 L 190.600586 111.421875 L 191.454590 111.421875 L 191.454590 112.823730 Z M 192.308594 110.863281 L 192.308594 109.461426 L 193.162598 109.461426 L 193.162598 110.863281 Z M 188.892578 110.863281 L 188.892578 109.461426 L 189.741211 109.461426 L 189.741211 110.863281 Z M 194.016602 108.897461 L 194.016602 107.495605 L 194.875977 107.495605 L 194.875977 108.897461 Z M 190.600586 108.897461 L 190.600586 107.495605 L 191.454590 107.495605 L 191.454590 108.897461 Z M 192.308594 106.937012 L 192.308594 105.535156 L 193.162598 105.535156 L 193.162598 106.937012 Z M 188.892578 106.937012 L 188.892578 105.535156 L 189.741211 105.535156 L 189.741211 106.937012 Z " fill="rgb(0, 0, 0)" fill-opacity="1.000000" />
<path d="M 201.016602 116.750000 L 201.016602 115.348145 L 201.875977 115.348145 L 201.875977 116.750000 Z M 197.600586 116.750000 L 197.600586 115.348145 L 198.454590 115.348145 L 198.454590 116.750000 Z M 199.308594 114.789551 L 199.308594 113.387695 L 200.162598 113.387695 L 200.162598 114.789551 Z M 195.892578 114.789551 L 195.892578 113.387695 L 196.741211 113.387695 L 196.741211 114.789551 Z M 201.016602 112.823730 L 201.016602 111.421875 L 201.875977 111.421875 L 201.875977 112.823730 Z M 197.600586 112.823730 L 197.600586 111.421875 L 198.454590 111.421875 L 198.454590 112.823730 Z M 199.308594 110.863281 L 199.308594 109.461426 L 200.162598 109.461426 L 200.162598 110.863281 Z M 195.892578 110.863281 L 195.892578 109.461426 L 196.741211 109.461426 L 196.741211 110.863281 Z M 201.016602 108.897461 L 201.016602 107.495605 L 201.875977 107.495605 L 201.875977 108.897461 Z M 197.600586 108.897461 L 197.600586 107.495605 L 198.454590 107.495605 L 198.454590 108.897461 Z M 199.308594 106.937012 L 199.308594 105.535156 L 200.162598 105.535156 L 200.162598 106.937012 Z M 195.892578 106.937012 L 195.892578 105.535156 L 196.741211 105.535156 L 196.741211 106.937012 Z " fill="rgb(0, 0, 0)" fill-opacity="1.000000" />
<path d="M 208.016602 116.750000 L 208.016602 115.348145 L 208.875977 115.348145 L 208.875977 116.750000 Z M 204.600586 116.750000 L 204.600586 115.348145 L 205.454590 115.348145 L 205.454590 116.750000 Z M 206.308594 114.789551 L 206.308594 113.387695 L 207.162598 113.387695 L 207.162598 114.789551 Z M 202.892578 114.789551 L 202.892578 113.387695 L 203.741211 113.387695 L 203.741211 114.789551 Z M 208.016602 112.823730 L 208.016602 111.421875 L 208.875977 111.421875 L 208.875977 112.823730 Z M 204.600586 112.823730 L 204.600586 111.421875 L 205.454590 111.421875 L 205.454590 112.823730 Z M 206.308594 110.863281 L 206.308594 109.461426 L 207.162598 109.461426 L 207.162598 110.863281 Z M 202.892578 110.863281 L 202.892578 109.461426 L 203.741211 109.461426 L 203.741211 110.863281 Z M 208.016602 108.897461 L 208.016602 107.495605 L 208.875977 107.495605 L 208.875977 108.897461 Z M 204.600586 108.897461 L 204.600586 107.495605 L 205.454590 107.495605 L 205.454590 108.897461 Z M 206.308594 106.937012 L 206.308594 105.535156 L 207.162598 105.535156 L 207.162598 106.937012 Z M 202.892578 106.937012 L 202.892578 105.535156 L 203.741211 105.535156 L 203.741211 106.937012 Z " fill="rgb(0, 0, 0)" fill-opacity="1.000000" />
<path d="M 215.016602 116.750000 L 215.016602 115.348145 L 215.875977 115.348145 L 215.875977 116.750000 Z M 211.600586 116.750000 L 211.600586 115.348145 L 212.454590 115.348145 L 212.454590 116.750000 Z M 213.308594 114.789551 L 213.308594 113.387695 L 214.162598 113.387695 L 214.162598 114.789551 Z M 209.892578 114.789551 L 209.892578 113.387695 L 210.741211 113.387695 L 210.741211 114.789551 Z M 215.016602 112.823730 L 215.016602 111.421875 L 215.875977 111.421875 L 215.875977 112.823730 Z M 211.600586 112.823730 L 211.600586 111.421875 L 212.454590 111.421875 L 212.454590 112.823730 Z M 213.308594 110.863281 L 213.308594 109.461426 L 214.162598 109.461426 L 214.162598 110.863281 Z M 209.892578 110.863281 L 209.892578 109.461426 L 210.741211 109.461426 L 210.741211 110.863281 Z M 215.016602 108.897461 L 215.016602 107.495605 L 215.875977 107.495605 L 215.875977 108.897461 Z M 211.600586 108.897461 L 211.600586 107.495605 L 212.454590 107.495605 L 212.454590 108.897461 Z M 213.308594 106.937012 L 213.308594 105.535156 L 214.162598 105.535156 L 214.162598 106.937012 Z M 209.892578 106.937012 L 209.892578 105.535156 L 210.741211 105.535156 L 210.741211 106.937012 Z " fill="rgb(0, 0, 0)" fill-opacity="1.000000" />
<path d="M 222.016602 116.750000 L 222.016602 115.348145 L 222.875977 115.348145 L 222.875977 116.750000 Z M 218.600586 116.750000 L 218.600586 115.348145 L 219.454590 115.348145 L 219.454590 116.750000 Z M 220.308594 114.789551 L 220.308594 113.387695 L 221.162598 113.387695 L 221.162598 114.789551 Z M 216.892578 114.789551 L 216.892578 113.387695 L 217.741211 113.387695 L 217.741211 114.789551 Z M 222.016602 112.823730 L 222.016602 111.421875 L 222.875977 111.421875 L 222.875977 112.823730 Z M 218.600586 112.823730 L 218.600586 111.421875 L 219.454590 111.421875 L 219.454590 112.823730 Z M 220.308594 110.863281 L 220.308594 109.461426 L 221.162598 109.461426 L 221.162598 110.863281 Z M 216.892578 110.863281 L 216.892578 109.461426 L 217.741211 109.461426 L 217.741211 110.863281 Z M 222.016602 108.897461 L 222.016602 107.495605 L 222.875977 107.495605 L 222.875977 108.897461 Z M 218.600586 108.897461 L 218.600586 107.495605 L 219.454590 107.495605 L 219.454590 108.897461 Z M 220.308594 106.937012 L 220.308594 105.535156 L 221.162598 105.535156 L 221.162598 106.937012 Z M 216.892578 106.937012 L 216.892578 105.535156 L 217.741211 105.535156 L 217.741211 106.937012 Z " fill="rgb(0, 0, 0)" fill-opacity="1.000000" />
<path d="M 240.878906 117.319336 L 240.878906 103.300781 L 241.738281 103.300781 L 241.738281 117.319336 Z " fill="rgb(0, 0, 0)" fill-opacity="1.000000" />
<path d="M 6.892578 98.335938 L 6.892578 97.412109 L 13.729980 97.412109 L 13.729980 98.335938 Z " fill="rgb(0, 0, 0)" fill-opacity="1.000000" />
<path d="M 13.892578 98.335938 L 13.892578 97.412109 L 20.729980 97.412109 L 20.729980 98.335938 Z " fill="rgb(0, 0, 0)" fill-opacity="1.000000" />
<path d="M 20.892578 98.335938 L 20.892578 97.412109 L 27.729980 97.412109 L 27.729980 98.335938 Z " fill="rgb(0, 0, 0)" fill-opacity="1.000000" />
<path d="M 27.892578 98.335938 L 27.892578 97.412109 L 34.729980 97.412109 L 34.729980 98.335938 Z " fill="rgb(0, 0, 0)" fill-opacity="1.000000" />
<path d="M 34.892578 98.335938 L 34.892578 97.412109 L 41.729980 97.412109 L 41.729980 98.335938 Z " fill="rgb(0, 0, 0)" fill-opacity="1.000000" />
<path d="M 41.892578 98.335938 L 41.892578 97.412109 L 48.729980 97.412109 L 48.729980 98.335938 Z " fill="rgb(0, 0, 0)" fill-opacity="1.000000" />
<path d="M 48.892578 98.335938 L 48.892578 97.412109 L 55.729980 97.412109 L 55.729980 98.335938 Z " fill="rgb(0, 0, 0)" fill-opacity="1.000000" />
<path d="M 55.892578 98.335938 L 55.892578 97.412109 L 62.729980 97.412109 L 62.729980 98.335938 Z " fill="rgb(0, 0, 0)" fill-opacity="1.000000" />
<path d="M 62.892578 98.335938 L 62.892578 97.412109 L 65.878906 97.412109 L 65.878906 90.300781 L 66.738281 90.300781 L 66.738281 98.335938 Z " fill="rgb(0, 0, 0)" fill-opacity="1.000000" />
<path d="M 93.878906 104.319336 L 93.878906 90.300781 L 94.738281 90.300781 L 94.738281 104.319336 Z " fill="rgb(0, 0, 0)" fill-opacity="1.000000" />
<path d="M 121.878906 98.335938 L 121.878906 90.300781 L 122.738281 90.300781 L 122.738281 97.412109 L 125.729980 97.412109 L 125.729980 98.335938 Z " fill="rgb(0, 0, 0)" fill-opacity="1.000000" />
<path d="M 125.892578 98.335938 L 125.892578 97.412109 L 132.729980 97.412109 L 132.729980 98.335938 Z " fill="rgb(0, 0, 0)" fill-opacity="1.000000" />
<path d="M 132.892578 98.335938 L 132.892578 97.412109 L 139.729980 97.412109 L 139.729980 98.335938 Z " fill="rgb(0, 0, 0)" fill-opacity="1.000000" />
<path d="M 139.892578 98.335938 L 139.892578 97.412109 L 146.729980 97.412109 L 146.729980 98.335938 Z " fill="rgb(0, 0, 0)" fill-opacity="1.000000" />
<path d="M 146.892578 98.335938 L 146.892578 97.412109 L 153.729980 97.412109 L 153.729980 98.335938 Z " fill="rgb(0, 0, 0)" fill-opacity="1.000000" />
<path d="M 153.892578 98.335938 L 153.892578 97.412109 L 160.729980 97.412109 L 160.729980 98.335938 Z " fill="rgb(0, 0, 0)" fill-opacity="1.000000" />
<path d="M 160.892578 98.335938 L 160.892578 97.412109 L 167.729980 97.412109 L 167.729980 98.335938 Z " fill="rgb(0, 0, 0)" fill-opacity="1.000000" />
<path d="M 167.892578 98.335938 L 167.892578 97.412109 L 174.729980 97.412109 L 174.729980 98.335938 Z " fill="rgb(0, 0, 0)" fill-opacity="1.000000" />
<path d="M 174.892578 98.335938 L 174.892578 97.412109 L 181.729980 97.412109 L 181.729980 98.335938 Z " fill="rgb(0, 0, 0)" fill-opacity="1.000000" />
<path d="M 181.892578 98.335938 L 181.892578 97.412109 L 188.729980 97.412109 L 188.729980 98.335938 Z " fill="rgb(0, 0, 0)" fill-opacity="1.000000" />
<path d="M 188.892578 98.335938 L 188.892578 97.412109 L 195.729980 97.412109 L 195.729980 98.335938 Z " fill="rgb(0, 0, 0)" fill-opacity="1.000000" />
<path d="M 195.892578 98.335938 L 195.892578 97.412109 L 202.729980 97.412109 L 202.729980 98.335938 Z " fill="rgb(0, 0, 0)" fill-opacity="1.000000" />
<path d="M 202.892578 98.335938 L 202.892578 97.412109 L 209.729980 97.412109 L 209.729980 98.335938 Z " fill="rgb(0, 0, 0)" fill-opacity="1.000000" />
<path d="M 209.892578 98.335938 L 209.892578 97.412109 L 212.878906 97.412109 L 212.878906 90.300781 L 213.738281 90.300781 L 213.738281 98.335938 Z " fill="rgb(0, 0, 0)" fill-opacity="1.000000" />
<path d="M 222.016602 103.750000 L 222.016602 102.348145 L 222.875977 102.348145 L 222.875977 103.750000 Z M 218.600586 103.750000 L 218.600586 102.348145 L 219.454590 102.348145 L 219.454590 103.750000 Z M 220.308594 101.789551 L 220.308594 100.387695 L 221.162598 100.387695 L 221.162598 101.789551 Z M 216.892578 101.789551 L 216.892578 100.387695 L 217.741211 100.387695 L 217.741211 101.789551 Z M 222.016602 99.823730 L 222.016602 98.421875 L 222.875977 98.421875 L 222.875977 99.823730 Z M 218.600586 99.823730 L 218.600586 98.421875 L 219.454590 98.421875 L 219.454590 99.823730 Z M 220.308594 97.863281 L 220.308594 96.461426 L 221.162598 96.461426 L 221.162598 97.863281 Z M 216.892578 97.863281 L 216.892578 96.461426 L 217.741211 96.461426 L 217.741211 97.863281 Z M 222.016602 95.897461 L 222.016602 94.495605 L 222.875977 94.495605 L 222.875977 95.897461 Z M 218.600586 95.897461 L 218.600586 94.495605 L 219.454590 94.495605 L 219.454590 95.897461 Z M 220.308594 93.937012 L 220.308594 92.535156 L 221.162598 92.535156 L 221.162598 93.937012 Z M 216.892578 93.937012 L 216.892578 92.535156 L 217.741211 92.535156 L 217.741211 93.937012 Z " fill="rgb(0, 0, 0)" fill-opacity="1.000000" />
<path d="M 240.878906 104.319336 L 240.878906 90.300781 L 241.738281 90.300781 L 241.738281 104.319336 Z " fill="rgb(0, 0, 0)" fill-opacity="1.000000" />
<path d="M 275.878906 98.335938 L 275.878906 90.300781 L 276.738281 90.300781 L 276.738281 97.412109 L 279.729980 97.412109 L 279.729980 98.335938 Z " fill="rgb(0, 0, 0)" fill-opacity="1.000000" />
<path d="M 279.892578 98.335938 L 279.892578 97.412109 L 286.729980 97.412109 L 286.729980 98.335938 Z " fill="rgb(0, 0, 0)" fill-opacity="1.000000" />
<path d="M 286.892578 98.335938 L 286.892578 97.412109 L 293.729980 97.412109 L 293.729980 98.335938 Z " fill="rgb(0, 0, 0)" fill-opacity="1.000000" />
<path d="M 293.892578 98.335938 L 293.892578 97.412109 L 300.729980 97.412109 L 300.729980 98.335938 Z " fill="rgb(0, 0, 0)" fill-opacity="1.000000" />
<path d="M 300.892578 98.335938 L 300.892578 97.412109 L 307.729980 97.412109 L 307.729980 98.335938 Z " fill="rgb(0, 0, 0)" fill-opacity="1.000000" />
<path d="M 307.892578 98.335938 L 307.892578 97.412109 L 314.729980 97.412109 L 314.729980 98.335938 Z " fill="rgb(0, 0, 0)" fill-opacity="1.000000" />
<path d="M 314.892578 98.335938 L 314.892578 97.412109 L 321.729980 97.412109 L 321.729980 98.335938 Z " fill="rgb(0, 0, 0)" fill-opacity="1.000000" />
<path d="M 321.892578 98.335938 L 321.892578 97.412109 L 328.729980 97.412109 L 328.729980 98.335938 Z " fill="rgb(0, 0, 0)" fill-opacity="1.000000" />
<path d="M 328.892578 98.335938 L 328.892578 97.412109 L 335.729980 97.412109 L 335.729980 98.335938 Z " fill="rgb(0, 0, 0)" fill-opacity="1.000000" />
<path d="M 335.892578 98.335938 L 335.892578 97.412109 L 338.878906 97.412109 L 338.878906 90.300781 L 339.738281 90.300781 L 339.738281 98.335938 Z " fill="rgb(0, 0, 0)" fill-opacity="1.000000" />
<path d="M 21.789551 84.922363 L 21.789551 79.980957 L 22.879883 79.980957 L 22.879883 85.416504 Q 22.879883 86.001953 22.912109 86.251709 Q 22.944336 86.501465 23.024902 86.635742 Q 23.196777 86.952637 23.521729 87.113770 Q 23.846680 87.274902 24.308594 87.274902 Q 24.775879 87.274902 25.098145 87.113770 Q 25.420410 86.952637 25.597656 86.635742 Q 25.678223 86.501465 25.710449 86.254395 Q 25.742676 86.007324 25.742676 85.427246 L 25.742676 79.980957 L 26.827637 79.980957 L 26.827637 84.922363 Q 26.827637 86.152344 26.674561 86.670654 Q 26.521484 87.188965 26.145508 87.527344 Q 25.791016 87.844238 25.334473 88.000000 Q 24.877930 88.155762 24.308594 88.155762 Q 23.744629 88.155762 23.288086 88.000000 Q 22.831543 87.844238 22.471680 87.527344 Q 22.101074 87.194336 21.945312 86.665283 Q 21.789551 86.136230 21.789551 84.922363 Z " fill="rgb(0, 0, 0)" fill-opacity="1.000000" />
<path d="M 33.435547 80.254883 L 33.435547 81.355957 Q 32.941406 81.039062 32.444580 80.877930 Q 31.947754 80.716797 31.442871 80.716797 Q 30.674805 80.716797 30.229004 81.073975 Q 29.783203 81.431152 29.783203 82.038086 Q 29.783203 82.569824 30.075928 82.849121 Q 30.368652 83.128418 31.168945 83.316406 L 31.738281 83.445312 Q 32.866211 83.708496 33.381836 84.272461 Q 33.897461 84.836426 33.897461 85.808594 Q 33.897461 86.952637 33.188477 87.554199 Q 32.479492 88.155762 31.125977 88.155762 Q 30.562012 88.155762 29.992676 88.034912 Q 29.423340 87.914062 28.848633 87.672363 L 28.848633 86.517578 Q 29.466309 86.909668 30.016846 87.092285 Q 30.567383 87.274902 31.125977 87.274902 Q 31.947754 87.274902 32.404297 86.906982 Q 32.860840 86.539062 32.860840 85.878418 Q 32.860840 85.276855 32.546631 84.959961 Q 32.232422 84.643066 31.453613 84.471191 L 30.873535 84.336914 Q 29.756348 84.084473 29.251465 83.574219 Q 28.746582 83.063965 28.746582 82.204590 Q 28.746582 81.130371 29.468994 80.483154 Q 30.191406 79.835938 31.389160 79.835938 Q 31.851074 79.835938 32.361328 79.940674 Q 32.871582 80.045410 33.435547 80.254883 Z " fill="rgb(0, 0, 0)" fill-opacity="1.000000" />
<path d="M 36.058105 79.980957 L 40.816895 79.980957 L 40.816895 80.894043 L 37.143066 80.894043 L 37.143066 83.053223 L 40.655762 83.053223 L 40.655762 83.966309 L 37.143066 83.966309 L 37.143066 87.086914 L 40.918945 87.086914 L 40.918945 88.000000 L 36.058105 88.000000 Z " fill="rgb(0, 0, 0)" fill-opacity="1.000000" />
<path d="M 46.082031 84.213379 Q 46.500977 84.320801 46.796387 84.618896 Q 47.091797 84.916992 47.532227 85.808594 L 48.622559 88.000000 L 47.457031 88.000000 L 46.500977 85.975098 Q 46.087402 85.110352 45.757080 84.860596 Q 45.426758 84.610840 44.895020 84.610840 L 43.858398 84.610840 L 43.858398 88.000000 L 42.768066 88.000000 L 42.768066 79.980957 L 45.002441 79.980957 Q 46.323730 79.980957 47.027344 80.577148 Q 47.730957 81.173340 47.730957 82.301270 Q 47.730957 83.096191 47.298584 83.598389 Q 46.866211 84.100586 46.082031 84.213379 Z M 43.858398 80.872559 L 43.858398 83.719238 L 45.045410 83.719238 Q 45.824219 83.719238 46.205566 83.370117 Q 46.586914 83.020996 46.586914 82.301270 Q 46.586914 81.608398 46.181396 81.240479 Q 45.775879 80.872559 45.002441 80.872559 Z " fill="rgb(0, 0, 0)" fill-opacity="1.000000" />
<path d="M 65.878906 91.319336 L 65.878906 77.300781 L 66.738281 77.300781 L 66.738281 91.319336 Z " fill="rgb(0, 0, 0)" fill-opacity="1.000000" />
<path d="M 69.892578 85.335938 L 69.892578 84.412109 L 76.729980 84.412109 L 76.729980 85.335938 Z " fill="rgb(0, 0, 0)" fill-opacity="1.000000" />
<path d="M 76.892578 85.335938 L 76.892578 84.412109 L 83.729980 84.412109 L 83.729980 85.335938 Z " fill="rgb(0, 0, 0)" fill-opacity="1.000000" />
<path d="M 83.892578 85.335938 L 83.892578 84.412109 L 90.729980 84.412109 L 90.729980 85.335938 Z " fill="rgb(0, 0, 0)" fill-opacity="1.000000" />
<path d="M 94.738281 85.335938 L 94.738281 91.319336 L 93.878906 91.319336 L 93.878906 85.335938 L 90.892578 85.335938 L 90.892578 84.412109 L 93.878906 84.412109 L 93.878906 77.300781 L 94.738281 77.300781 L 94.738281 84.412109 L 97.729980 84.412109 L 97.729980 85.335938 Z " fill="rgb(0, 0, 0)" fill-opacity="1.000000" />
<path d="M 97.892578 85.335938 L 97.892578 84.412109 L 104.729980 84.412109 L 104.729980 85.335938 Z " fill="rgb(0, 0, 0)" fill-opacity="1.000000" />
<path d="M 104.892578 85.335938 L 104.892578 84.412109 L 111.729980 84.412109 L 111.729980 85.335938 Z " fill="rgb(0, 0, 0)" fill-opacity="1.000000" />
<path d="M 112.032227 88.418945 L 112.032227 81.866211 L 118.590332 85.142578 Z " fill="rgb(0, 0, 0)" fill-opacity="1.000000" />
<path d="M 121.878906 91.319336 L 121.878906 77.300781 L 122.738281 77.300781 L 122.738281 91.319336 Z " fill="rgb(0, 0, 0)" fill-opacity="1.000000" />
<path d="M 141.981934 83.955566 L 141.981934 87.108398 L 143.265625 87.108398 Q 144.210938 87.108398 144.613770 86.778076 Q 145.016602 86.447754 145.016602 85.690430 Q 145.016602 84.691406 144.592285 84.323486 Q 144.167969 83.955566 143.265625 83.955566 Z M 141.981934 80.872559 L 141.981934 83.074707 L 143.244141 83.074707 Q 144.028320 83.074707 144.380127 82.773926 Q 144.731934 82.473145 144.731934 82.016602 Q 144.731934 81.409668 144.385498 81.141113 Q 144.039062 80.872559 143.244141 80.872559 Z M 140.891602 79.980957 L 143.265625 79.980957 Q 144.495605 79.980957 145.161621 80.512695 Q 145.827637 81.044434 145.827637 82.016602 Q 145.827637 82.537598 145.475830 82.961914 Q 145.124023 83.386230 144.420410 83.493652 Q 145.209961 83.611816 145.658447 84.167725 Q 146.106934 84.723633 146.106934 85.797852 Q 146.106934 86.888184 145.392578 87.444092 Q 144.678223 88.000000 143.265625 88.000000 L 140.891602 88.000000 Z " fill="rgb(0, 0, 0)" fill-opacity="1.000000" />
<path d="M 150.308594 80.937012 L 149.164551 85.040527 L 151.452637 85.040527 Z M 149.653320 79.980957 L 150.969238 79.980957 L 153.423828 88.000000 L 152.301270 88.000000 L 151.710449 85.910645 L 148.901367 85.910645 L 148.321289 88.000000 L 147.198730 88.000000 Z " fill="rgb(0, 0, 0)" fill-opacity="1.000000" />
<path d="M 155.154785 79.980957 L 156.245117 79.980957 L 156.245117 87.086914 L 160.117676 87.086914 L 160.117676 88.000000 L 155.154785 88.000000 Z " fill="rgb(0, 0, 0)" fill-opacity="1.000000" />
<path d="M 164.308594 80.937012 L 163.164551 85.040527 L 165.452637 85.040527 Z M 163.653320 79.980957 L 164.969238 79.980957 L 167.423828 88.000000 L 166.301270 88.000000 L 165.710449 85.910645 L 162.901367 85.910645 L 162.321289 88.000000 L 161.198730 88.000000 Z " fill="rgb(0, 0, 0)" fill-opacity="1.000000" />
<path d="M 168.102051 80.007812 L 169.584473 80.007812 L 172.721191 86.587402 L 172.721191 80.007812 L 173.875977 80.007812 L 173.875977 88.000000 L 172.393555 88.000000 L 169.256836 81.420410 L 169.256836 88.000000 L 168.102051 88.000000 Z " fill="rgb(0, 0, 0)" fill-opacity="1.000000" />
<path d="M 180.763184 87.715332 Q 180.349609 87.935547 179.914551 88.045654 Q 179.479492 88.155762 178.990723 88.155762 Q 177.449219 88.155762 176.597900 87.065430 Q 175.746582 85.975098 175.746582 83.998535 Q 175.746582 82.032715 176.603271 80.934326 Q 177.459961 79.835938 178.990723 79.835938 Q 179.479492 79.835938 179.914551 79.946045 Q 180.349609 80.056152 180.763184 80.276367 L 180.763184 81.388184 Q 180.365723 81.060547 179.909180 80.888672 Q 179.452637 80.716797 178.990723 80.716797 Q 177.932617 80.716797 177.406250 81.533203 Q 176.879883 82.349609 176.879883 83.998535 Q 176.879883 85.642090 177.406250 86.458496 Q 177.932617 87.274902 178.990723 87.274902 Q 179.463379 87.274902 179.917236 87.103027 Q 180.371094 86.931152 180.763184 86.603516 Z " fill="rgb(0, 0, 0)" fill-opacity="1.000000" />
<path d="M 183.058105 79.980957 L 187.816895 79.980957 L 187.816895 80.894043 L 184.143066 80.894043 L 184.143066 83.053223 L 187.655762 83.053223 L 187.655762 83.966309 L 184.143066 83.966309 L 184.143066 87.086914 L 187.918945 87.086914 L 187.918945 88.000000 L 183.058105 88.000000 Z " fill="rgb(0, 0, 0)" fill-opacity="1.000000" />
<path d="M 193.082031 84.213379 Q 193.500977 84.320801 193.796387 84.618896 Q 194.091797 84.916992 194.532227 85.808594 L 195.622559 88.000000 L 194.457031 88.000000 L 193.500977 85.975098 Q 193.087402 85.110352 192.757080 84.860596 Q 192.426758 84.610840 191.895020 84.610840 L 190.858398 84.610840 L 190.858398 88.000000 L 189.768066 88.000000 L 189.768066 79.980957 L 192.002441 79.980957 Q 193.323730 79.980957 194.027344 80.577148 Q 194.730957 81.173340 194.730957 82.301270 Q 194.730957 83.096191 194.298584 83.598389 Q 193.866211 84.100586 193.082031 84.213379 Z M 190.858398 80.872559 L 190.858398 83.719238 L 192.045410 83.719238 Q 192.824219 83.719238 193.205566 83.370117 Q 193.586914 83.020996 193.586914 82.301270 Q 193.586914 81.608398 193.181396 81.240479 Q 192.775879 80.872559 192.002441 80.872559 Z " fill="rgb(0, 0, 0)" fill-opacity="1.000000" />
<path d="M 212.878906 91.319336 L 212.878906 77.300781 L 213.738281 77.300781 L 213.738281 91.319336 Z " fill="rgb(0, 0, 0)" fill-opacity="1.000000" />
<path d="M 216.892578 85.335938 L 216.892578 84.412109 L 223.729980 84.412109 L 223.729980 85.335938 Z " fill="rgb(0, 0, 0)" fill-opacity="1.000000" />
<path d="M 223.892578 85.335938 L 223.892578 84.412109 L 230.729980 84.412109 L 230.729980 85.335938 Z " fill="rgb(0, 0, 0)" fill-opacity="1.000000" />
<path d="M 230.892578 85.335938 L 230.892578 84.412109 L 237.729980 84.412109 L 237.729980 85.335938 Z " fill="rgb(0, 0, 0)" fill-opacity="1.000000" />
<path d="M 241.738281 85.335938 L 241.738281 91.319336 L 240.878906 91.319336 L 240.878906 85.335938 L 237.892578 85.335938 L 237.892578 84.412109 L 240.878906 84.412109 L 240.878906 77.300781 L 241.738281 77.300781 L 241.738281 84.412109 L 244.729980 84.412109 L 244.729980 85.335938 Z " fill="rgb(0, 0, 0)" fill-opacity="1.000000" />
<path d="M 244.892578 85.335938 L 244.892578 84.412109 L 251.729980 84.412109 L 251.729980 85.335938 Z " fill="rgb(0, 0, 0)" fill-opacity="1.000000" />
<path d="M 251.892578 85.335938 L 251.892578 84.412109 L 258.729980 84.412109 L 258.729980 85.335938 Z " fill="rgb(0, 0, 0)" fill-opacity="1.000000" />
<path d="M 258.892578 85.335938 L 258.892578 84.412109 L 265.729980 84.412109 L 265.729980 85.335938 Z " fill="rgb(0, 0, 0)" fill-opacity="1.000000" />
<path d="M 266.032227 88.418945 L 266.032227 81.866211 L 272.590332 85.142578 Z " fill="rgb(0, 0, 0)" fill-opacity="1.000000" />
<path d="M 275.878906 91.319336 L 275.878906 77.300781 L 276.738281 77.300781 L 276.738281 91.319336 Z " fill="rgb(0, 0, 0)" fill-opacity="1.000000" />
<path d="M 292.435547 80.254883 L 292.435547 81.355957 Q 291.941406 81.039062 291.444580 80.877930 Q 290.947754 80.716797 290.442871 80.716797 Q 289.674805 80.716797 289.229004 81.073975 Q 288.783203 81.431152 288.783203 82.038086 Q 288.783203 82.569824 289.075928 82.849121 Q 289.368652 83.128418 290.168945 83.316406 L 290.738281 83.445312 Q 291.866211 83.708496 292.381836 84.272461 Q 292.897461 84.836426 292.897461 85.808594 Q 292.897461 86.952637 292.188477 87.554199 Q 291.479492 88.155762 290.125977 88.155762 Q 289.562012 88.155762 288.992676 88.034912 Q 288.423340 87.914062 287.848633 87.672363 L 287.848633 86.517578 Q 288.466309 86.909668 289.016846 87.092285 Q 289.567383 87.274902 290.125977 87.274902 Q 290.947754 87.274902 291.404297 86.906982 Q 291.860840 86.539062 291.860840 85.878418 Q 291.860840 85.276855 291.546631 84.959961 Q 291.232422 84.643066 290.453613 84.471191 L 289.873535 84.336914 Q 288.756348 84.084473 288.251465 83.574219 Q 287.746582 83.063965 287.746582 82.204590 Q 287.746582 81.130371 288.468994 80.483154 Q 289.191406 79.835938 290.389160 79.835938 Q 290.851074 79.835938 291.361328 79.940674 Q 291.871582 80.045410 292.435547 80.254883 Z " fill="rgb(0, 0, 0)" fill-opacity="1.000000" />
<path d="M 295.058105 79.980957 L 299.816895 79.980957 L 299.816895 80.894043 L 296.143066 80.894043 L 296.143066 83.053223 L 299.655762 83.053223 L 299.655762 83.966309 L 296.143066 83.966309 L 296.143066 87.086914 L 299.918945 87.086914 L 299.918945 88.000000 L 295.058105 88.000000 Z " fill="rgb(0, 0, 0)" fill-opacity="1.000000" />
<path d="M 305.082031 84.213379 Q 305.500977 84.320801 305.796387 84.618896 Q 306.091797 84.916992 306.532227 85.808594 L 307.622559 88.000000 L 306.457031 88.000000 L 305.500977 85.975098 Q 305.087402 85.110352 304.757080 84.860596 Q 304.426758 84.610840 303.895020 84.610840 L 302.858398 84.610840 L 302.858398 88.000000 L 301.768066 88.000000 L 301.768066 79.980957 L 304.002441 79.980957 Q 305.323730 79.980957 306.027344 80.577148 Q 306.730957 81.173340 306.730957 82.301270 Q 306.730957 83.096191 306.298584 83.598389 Q 305.866211 84.100586 305.082031 84.213379 Z M 302.858398 80.872559 L 302.858398 83.719238 L 304.045410 83.719238 Q 304.824219 83.719238 305.205566 83.370117 Q 305.586914 83.020996 305.586914 82.301270 Q 305.586914 81.608398 305.181396 81.240479 Q 304.775879 80.872559 304.002441 80.872559 Z " fill="rgb(0, 0, 0)" fill-opacity="1.000000" />
<path d="M 311.308594 87.086914 L 313.193848 79.980957 L 314.316406 79.980957 L 311.969238 88.000000 L 310.653320 88.000000 L 308.306152 79.980957 L 309.428711 79.980957 Z " fill="rgb(0, 0, 0)" fill-opacity="1.000000" />
<path d="M 316.058105 79.980957 L 320.816895 79.980957 L 320.816895 80.894043 L 317.143066 80.894043 L 317.143066 83.053223 L 320.655762 83.053223 L 320.655762 83.966309 L 317.143066 83.966309 L 317.143066 87.086914 L 320.918945 87.086914 L 320.918945 88.000000 L 316.058105 88.000000 Z " fill="rgb(0, 0, 0)" fill-opacity="1.000000" />
<path d="M 326.082031 84.213379 Q 326.500977 84.320801 326.796387 84.618896 Q 327.091797 84.916992 327.532227 85.808594 L 328.622559 88.000000 L 327.457031 88.000000 L 326.500977 85.975098 Q 326.087402 85.110352 325.757080 84.860596 Q 325.426758 84.610840 324.895020 84.610840 L 323.858398 84.610840 L 323.858398 88.000000 L 322.768066 88.000000 L 322.768066 79.980957 L 325.002441 79.980957 Q 326.323730 79.980957 327.027344 80.577148 Q 327.730957 81.173340 327.730957 82.301270 Q 327.730957 83.096191 327.298584 83.598389 Q 326.866211 84.100586 326.082031 84.213379 Z M 323.858398 80.872559 L 323.858398 83.719238 L 325.045410 83.719238 Q 325.824219 83.719238 326.205566 83.370117 Q 326.586914 83.020996 326.586914 82.301270 Q 326.586914 81.608398 326.181396 81.240479 Q 325.775879 80.872559 325.002441 80.872559 Z " fill="rgb(0, 0, 0)" fill-opacity="1.000000" />
<path d="M 338.878906 91.319336 L 338.878906 77.300781 L 339.738281 77.300781 L 339.738281 91.319336 Z " fill="rgb(0, 0, 0)" fill-opacity="1.000000" />
<path d="M 6.892578 72.335938 L 6.892578 71.412109 L 13.729980 71.412109 L 13.729980 72.335938 Z " fill="rgb(0, 0, 0)" fill-opacity="1.000000" />
<path d="M 13.892578 72.335938 L 13.892578 71.412109 L 20.729980 71.412109 L 20.729980 72.335938 Z " fill="rgb(0, 0, 0)" fill-opacity="1.000000" />
<path d="M 20.892578 72.335938 L 20.892578 71.412109 L 27.729980 71.412109 L 27.729980 72.335938 Z " fill="rgb(0, 0, 0)" fill-opacity="1.000000" />
<path d="M 27.892578 72.335938 L 27.892578 71.412109 L 34.729980 71.412109 L 34.729980 72.335938 Z " fill="rgb(0, 0, 0)" fill-opacity="1.000000" />
<path d="M 34.892578 72.335938 L 34.892578 71.412109 L 41.729980 71.412109 L 41.729980 72.335938 Z " fill="rgb(0, 0, 0)" fill-opacity="1.000000" />
<path d="M 41.892578 72.335938 L 41.892578 71.412109 L 48.729980 71.412109 L 48.729980 72.335938 Z " fill="rgb(0, 0, 0)" fill-opacity="1.000000" />
<path d="M 48.892578 72.335938 L 48.892578 71.412109 L 55.729980 71.412109 L 55.729980 72.335938 Z " fill="rgb(0, 0, 0)" fill-opacity="1.000000" />
<path d="M 55.892578 72.335938 L 55.892578 71.412109 L 62.729980 71.412109 L 62.729980 72.335938 Z " fill="rgb(0, 0, 0)" fill-opacity="1.000000" />
<path d="M 65.878906 78.319336 L 65.878906 72.335938 L 62.892578 72.335938 L 62.892578 71.412109 L 66.738281 71.412109 L 66.738281 78.319336 Z " fill="rgb(0, 0, 0)" fill-opacity="1.000000" />
<path d="M 93.878906 78.319336 L 93.878906 64.300781 L 94.738281 64.300781 L 94.738281 78.319336 Z " fill="rgb(0, 0, 0)" fill-opacity="1.000000" />
<path d="M 121.878906 78.319336 L 121.878906 64.300781 L 122.738281 64.300781 L 122.738281 78.319336 Z " fill="rgb(0, 0, 0)" fill-opacity="1.000000" />
<path d="M 155.154785 66.980957 L 156.245117 66.980957 L 156.245117 74.086914 L 160.117676 74.086914 L 160.117676 75.000000 L 155.154785 75.000000 Z " fill="rgb(0, 0, 0)" fill-opacity="1.000000" />
<path d="M 165.860840 70.998535 Q 165.860840 69.231445 165.498291 68.474121 Q 165.135742 67.716797 164.308594 67.716797 Q 163.486816 67.716797 163.124268 68.474121 Q 162.761719 69.231445 162.761719 70.998535 Q 162.761719 72.760254 163.124268 73.517578 Q 163.486816 74.274902 164.308594 74.274902 Q 165.135742 74.274902 165.498291 73.520264 Q 165.860840 72.765625 165.860840 70.998535 Z M 166.994141 70.998535 Q 166.994141 73.093262 166.330811 74.124512 Q 165.667480 75.155762 164.308594 75.155762 Q 162.949707 75.155762 162.289062 74.129883 Q 161.628418 73.104004 161.628418 70.998535 Q 161.628418 68.898438 162.291748 67.867188 Q 162.955078 66.835938 164.308594 66.835938 Q 165.667480 66.835938 166.330811 67.867188 Q 166.994141 68.898438 166.994141 70.998535 Z " fill="rgb(0, 0, 0)" fill-opacity="1.000000" />
<path d="M 171.308594 67.937012 L 170.164551 72.040527 L 172.452637 72.040527 Z M 170.653320 66.980957 L 171.969238 66.980957 L 174.423828 75.000000 L 173.301270 75.000000 L 172.710449 72.910645 L 169.901367 72.910645 L 169.321289 75.000000 L 168.198730 75.000000 Z " fill="rgb(0, 0, 0)" fill-opacity="1.000000" />
<path d="M 177.341797 74.108398 Q 178.711426 74.108398 179.253906 73.434326 Q 179.796387 72.760254 179.796387 70.998535 Q 179.796387 69.220703 179.256592 68.546631 Q 178.716797 67.872559 177.341797 67.872559 L 176.826172 67.872559 L 176.826172 74.108398 Z M 177.363281 66.980957 Q 179.200195 66.980957 180.070312 67.958496 Q 180.940430 68.936035 180.940430 70.998535 Q 180.940430 73.050293 180.070312 74.025146 Q 179.200195 75.000000 177.363281 75.000000 L 175.735840 75.000000 L 175.735840 66.980957 Z " fill="rgb(0, 0, 0)" fill-opacity="1.000000" />
<path d="M 212.878906 78.319336 L 212.878906 64.300781 L 213.738281 64.300781 L 213.738281 78.319336 Z " fill="rgb(0, 0, 0)" fill-opacity="1.000000" />
<path d="M 222.016602 77.750000 L 222.016602 76.348145 L 222.875977 76.348145 L 222.875977 77.750000 Z M 218.600586 77.750000 L 218.600586 76.348145 L 219.454590 76.348145 L 219.454590 77.750000 Z M 220.308594 75.789551 L 220.308594 74.387695 L 221.162598 74.387695 L 221.162598 75.789551 Z M 216.892578 75.789551 L 216.892578 74.387695 L 217.741211 74.387695 L 217.741211 75.789551 Z M 222.016602 73.823730 L 222.016602 72.421875 L 222.875977 72.421875 L 222.875977 73.823730 Z M 218.600586 73.823730 L 218.600586 72.421875 L 219.454590 72.421875 L 219.454590 73.823730 Z M 220.308594 71.863281 L 220.308594 70.461426 L 221.162598 70.461426 L 221.162598 71.863281 Z M 216.892578 71.863281 L 216.892578 70.461426 L 217.741211 70.461426 L 217.741211 71.863281 Z M 222.016602 69.897461 L 222.016602 68.495605 L 222.875977 68.495605 L 222.875977 69.897461 Z M 218.600586 69.897461 L 218.600586 68.495605 L 219.454590 68.495605 L 219.454590 69.897461 Z M 220.308594 67.937012 L 220.308594 66.535156 L 221.162598 66.535156 L 221.162598 67.937012 Z M 216.892578 67.937012 L 216.892578 66.535156 L 217.741211 66.535156 L 217.741211 67.937012 Z " fill="rgb(0, 0, 0)" fill-opacity="1.000000" />
<path d="M 240.878906 78.319336 L 240.878906 64.300781 L 241.738281 64.300781 L 241.738281 78.319336 Z " fill="rgb(0, 0, 0)" fill-opacity="1.000000" />
<path d="M 275.878906 78.319336 L 275.878906 71.412109 L 279.729980 71.412109 L 279.729980 72.335938 L 276.738281 72.335938 L 276.738281 78.319336 Z " fill="rgb(0, 0, 0)" fill-opacity="1.000000" />
<path d="M 279.892578 72.335938 L 279.892578 71.412109 L 286.729980 71.412109 L 286.729980 72.335938 Z " fill="rgb(0, 0, 0)" fill-opacity="1.000000" />
<path d="M 286.892578 72.335938 L 286.892578 71.412109 L 293.729980 71.412109 L 293.729980 72.335938 Z " fill="rgb(0, 0, 0)" fill-opacity="1.000000" />
<path d="M 293.892578 72.335938 L 293.892578 71.412109 L 300.729980 71.412109 L 300.729980 72.335938 Z " fill="rgb(0, 0, 0)" fill-opacity="1.000000" />
<path d="M 300.892578 72.335938 L 300.892578 71.412109 L 307.729980 71.412109 L 307.729980 72.335938 Z " fill="rgb(0, 0, 0)" fill-opacity="1.000000" />
<path d="M 307.892578 72.335938 L 307.892578 71.412109 L 314.729980 71.412109 L 314.729980 72.335938 Z " fill="rgb(0, 0, 0)" fill-opacity="1.000000" />
<path d="M 314.892578 72.335938 L 314.892578 71.412109 L 321.729980 71.412109 L 321.729980 72.335938 Z " fill="rgb(0, 0, 0)" fill-opacity="1.000000" />
<path d="M 321.892578 72.335938 L 321.892578 71.412109 L 328.729980 71.412109 L 328.729980 72.335938 Z " fill="rgb(0, 0, 0)" fill-opacity="1.000000" />
<path d="M 328.892578 72.335938 L 328.892578 71.412109 L 335.729980 71.412109 L 335.729980 72.335938 Z " fill="rgb(0, 0, 0)" fill-opacity="1.000000" />
<path d="M 338.878906 78.319336 L 338.878906 72.335938 L 335.892578 72.335938 L 335.892578 71.412109 L 339.738281 71.412109 L 339.738281 78.319336 Z " fill="rgb(0, 0, 0)" fill-opacity="1.000000" />
<path d="M 6.892578 59.335938 L 6.892578 58.412109 L 13.729980 58.412109 L 13.729980 59.335938 Z " fill="rgb(0, 0, 0)" fill-opacity="1.000000" />
<path d="M 13.892578 59.335938 L 13.892578 58.412109 L 20.729980 58.412109 L 20.729980 59.335938 Z " fill="rgb(0, 0, 0)" fill-opacity="1.000000" />
<path d="M 20.892578 59.335938 L 20.892578 58.412109 L 27.729980 58.412109 L 27.729980 59.335938 Z " fill="rgb(0, 0, 0)" fill-opacity="1.000000" />
<path d="M 27.892578 59.335938 L 27.892578 58.412109 L 34.729980 58.412109 L 34.729980 59.335938 Z " fill="rgb(0, 0, 0)" fill-opacity="1.000000" />
<path d="M 34.892578 59.335938 L 34.892578 58.412109 L 41.729980 58.412109 L 41.729980 59.335938 Z " fill="rgb(0, 0, 0)" fill-opacity="1.000000" />
<path d="M 41.892578 59.335938 L 41.892578 58.412109 L 48.729980 58.412109 L 48.729980 59.335938 Z " fill="rgb(0, 0, 0)" fill-opacity="1.000000" />
<path d="M 48.892578 59.335938 L 48.892578 58.412109 L 55.729980 58.412109 L 55.729980 59.335938 Z " fill="rgb(0, 0, 0)" fill-opacity="1.000000" />
<path d="M 55.892578 59.335938 L 55.892578 58.412109 L 62.729980 58.412109 L 62.729980 59.335938 Z " fill="rgb(0, 0, 0)" fill-opacity="1.000000" />
<path d="M 62.892578 59.335938 L 62.892578 58.412109 L 65.878906 58.412109 L 65.878906 51.300781 L 66.738281 51.300781 L 66.738281 59.335938 Z " fill="rgb(0, 0, 0)" fill-opacity="1.000000" />
<path d="M 93.878906 65.319336 L 93.878906 51.300781 L 94.738281 51.300781 L 94.738281 65.319336 Z " fill="rgb(0, 0, 0)" fill-opacity="1.000000" />
<path d="M 121.878906 65.319336 L 121.878906 58.412109 L 125.729980 58.412109 L 125.729980 59.335938 L 122.738281 59.335938 L 122.738281 65.319336 Z " fill="rgb(0, 0, 0)" fill-opacity="1.000000" />
<path d="M 125.892578 59.335938 L 125.892578 58.412109 L 132.729980 58.412109 L 132.729980 59.335938 Z " fill="rgb(0, 0, 0)" fill-opacity="1.000000" />
<path d="M 132.892578 59.335938 L 132.892578 58.412109 L 139.729980 58.412109 L 139.729980 59.335938 Z " fill="rgb(0, 0, 0)" fill-opacity="1.000000" />
<path d="M 139.892578 59.335938 L 139.892578 58.412109 L 146.729980 58.412109 L 146.729980 59.335938 Z " fill="rgb(0, 0, 0)" fill-opacity="1.000000" />
<path d="M 146.892578 59.335938 L 146.892578 58.412109 L 153.729980 58.412109 L 153.729980 59.335938 Z " fill="rgb(0, 0, 0)" fill-opacity="1.000000" />
<path d="M 153.892578 59.335938 L 153.892578 58.412109 L 160.729980 58.412109 L 160.729980 59.335938 Z " fill="rgb(0, 0, 0)" fill-opacity="1.000000" />
<path d="M 160.892578 59.335938 L 160.892578 58.412109 L 167.729980 58.412109 L 167.729980 59.335938 Z " fill="rgb(0, 0, 0)" fill-opacity="1.000000" />
<path d="M 167.892578 59.335938 L 167.892578 58.412109 L 174.729980 58.412109 L 174.729980 59.335938 Z " fill="rgb(0, 0, 0)" fill-opacity="1.000000" />
<path d="M 174.892578 59.335938 L 174.892578 58.412109 L 181.729980 58.412109 L 181.729980 59.335938 Z " fill="rgb(0, 0, 0)" fill-opacity="1.000000" />
<path d="M 181.892578 59.335938 L 181.892578 58.412109 L 188.729980 58.412109 L 188.729980 59.335938 Z " fill="rgb(0, 0, 0)" fill-opacity="1.000000" />
<path d="M 188.892578 59.335938 L 188.892578 58.412109 L 195.729980 58.412109 L 195.729980 59.335938 Z " fill="rgb(0, 0, 0)" fill-opacity="1.000000" />
<path d="M 195.892578 59.335938 L 195.892578 58.412109 L 202.729980 58.412109 L 202.729980 59.335938 Z " fill="rgb(0, 0, 0)" fill-opacity="1.000000" />
<path d="M 202.892578 59.335938 L 202.892578 58.412109 L 209.729980 58.412109 L 209.729980 59.335938 Z " fill="rgb(0, 0, 0)" fill-opacity="1.000000" />
<path d="M 212.878906 65.319336 L 212.878906 59.335938 L 209.892578 59.335938 L 209.892578 58.412109 L 213.738281 58.412109 L 213.738281 65.319336 Z " fill="rgb(0, 0, 0)" fill-opacity="1.000000" />
<path d="M 240.878906 65.319336 L 240.878906 51.300781 L 241.738281 51.300781 L 241.738281 65.319336 Z " fill="rgb(0, 0, 0)" fill-opacity="1.000000" />
<path d="M 21.789551 45.922363 L 21.789551 40.980957 L 22.879883 40.980957 L 22.879883 46.416504 Q 22.879883 47.001953 22.912109 47.251709 Q 22.944336 47.501465 23.024902 47.635742 Q 23.196777 47.952637 23.521729 48.113770 Q 23.846680 48.274902 24.308594 48.274902 Q 24.775879 48.274902 25.098145 48.113770 Q 25.420410 47.952637 25.597656 47.635742 Q 25.678223 47.501465 25.710449 47.254395 Q 25.742676 47.007324 25.742676 46.427246 L 25.742676 40.980957 L 26.827637 40.980957 L 26.827637 45.922363 Q 26.827637 47.152344 26.674561 47.670654 Q 26.521484 48.188965 26.145508 48.527344 Q 25.791016 48.844238 25.334473 49.000000 Q 24.877930 49.155762 24.308594 49.155762 Q 23.744629 49.155762 23.288086 49.000000 Q 22.831543 48.844238 22.471680 48.527344 Q 22.101074 48.194336 21.945312 47.665283 Q 21.789551 47.136230 21.789551 45.922363 Z " fill="rgb(0, 0, 0)" fill-opacity="1.000000" />
<path d="M 33.435547 41.254883 L 33.435547 42.355957 Q 32.941406 42.039062 32.444580 41.877930 Q 31.947754 41.716797 31.442871 41.716797 Q 30.674805 41.716797 30.229004 42.073975 Q 29.783203 42.431152 29.783203 43.038086 Q 29.783203 43.569824 30.075928 43.849121 Q 30.368652 44.128418 31.168945 44.316406 L 31.738281 44.445312 Q 32.866211 44.708496 33.381836 45.272461 Q 33.897461 45.836426 33.897461 46.808594 Q 33.897461 47.952637 33.188477 48.554199 Q 32.479492 49.155762 31.125977 49.155762 Q 30.562012 49.155762 29.992676 49.034912 Q 29.423340 48.914062 28.848633 48.672363 L 28.848633 47.517578 Q 29.466309 47.909668 30.016846 48.092285 Q 30.567383 48.274902 31.125977 48.274902 Q 31.947754 48.274902 32.404297 47.906982 Q 32.860840 47.539062 32.860840 46.878418 Q 32.860840 46.276855 32.546631 45.959961 Q 32.232422 45.643066 31.453613 45.471191 L 30.873535 45.336914 Q 29.756348 45.084473 29.251465 44.574219 Q 28.746582 44.063965 28.746582 43.204590 Q 28.746582 42.130371 29.468994 41.483154 Q 30.191406 40.835938 31.389160 40.835938 Q 31.851074 40.835938 32.361328 40.940674 Q 32.871582 41.045410 33.435547 41.254883 Z " fill="rgb(0, 0, 0)" fill-opacity="1.000000" />
<path d="M 36.058105 40.980957 L 40.816895 40.980957 L 40.816895 41.894043 L 37.143066 41.894043 L 37.143066 44.053223 L 40.655762 44.053223 L 40.655762 44.966309 L 37.143066 44.966309 L 37.143066 48.086914 L 40.918945 48.086914 L 40.918945 49.000000 L 36.058105 49.000000 Z " fill="rgb(0, 0, 0)" fill-opacity="1.000000" />
<path d="M 46.082031 45.213379 Q 46.500977 45.320801 46.796387 45.618896 Q 47.091797 45.916992 47.532227 46.808594 L 48.622559 49.000000 L 47.457031 49.000000 L 46.500977 46.975098 Q 46.087402 46.110352 45.757080 45.860596 Q 45.426758 45.610840 44.895020 45.610840 L 43.858398 45.610840 L 43.858398 49.000000 L 42.768066 49.000000 L 42.768066 40.980957 L 45.002441 40.980957 Q 46.323730 40.980957 47.027344 41.577148 Q 47.730957 42.173340 47.730957 43.301270 Q 47.730957 44.096191 47.298584 44.598389 Q 46.866211 45.100586 46.082031 45.213379 Z M 43.858398 41.872559 L 43.858398 44.719238 L 45.045410 44.719238 Q 45.824219 44.719238 46.205566 44.370117 Q 46.586914 44.020996 46.586914 43.301270 Q 46.586914 42.608398 46.181396 42.240479 Q 45.775879 41.872559 45.002441 41.872559 Z " fill="rgb(0, 0, 0)" fill-opacity="1.000000" />
<path d="M 65.878906 52.319336 L 65.878906 38.300781 L 66.738281 38.300781 L 66.738281 52.319336 Z " fill="rgb(0, 0, 0)" fill-opacity="1.000000" />
<path d="M 69.892578 46.335938 L 69.892578 45.412109 L 76.729980 45.412109 L 76.729980 46.335938 Z " fill="rgb(0, 0, 0)" fill-opacity="1.000000" />
<path d="M 76.892578 46.335938 L 76.892578 45.412109 L 83.729980 45.412109 L 83.729980 46.335938 Z " fill="rgb(0, 0, 0)" fill-opacity="1.000000" />
<path d="M 83.892578 46.335938 L 83.892578 45.412109 L 90.729980 45.412109 L 90.729980 46.335938 Z " fill="rgb(0, 0, 0)" fill-opacity="1.000000" />
<path d="M 93.878906 52.319336 L 93.878906 46.335938 L 90.892578 46.335938 L 90.892578 45.412109 L 94.738281 45.412109 L 94.738281 52.319336 Z " fill="rgb(0, 0, 0)" fill-opacity="1.000000" />
<path d="M 240.878906 52.319336 L 240.878906 38.300781 L 241.738281 38.300781 L 241.738281 52.319336 Z " fill="rgb(0, 0, 0)" fill-opacity="1.000000" />
<path d="M 6.892578 33.335938 L 6.892578 32.412109 L 13.729980 32.412109 L 13.729980 33.335938 Z " fill="rgb(0, 0, 0)" fill-opacity="1.000000" />
<path d="M 13.892578 33.335938 L 13.892578 32.412109 L 20.729980 32.412109 L 20.729980 33.335938 Z " fill="rgb(0, 0, 0)" fill-opacity="1.000000" />
<path d="M 20.892578 33.335938 L 20.892578 32.412109 L 27.729980 32.412109 L 27.729980 33.335938 Z " fill="rgb(0, 0, 0)" fill-opacity="1.000000" />
<path d="M 27.892578 33.335938 L 27.892578 32.412109 L 34.729980 32.412109 L 34.729980 33.335938 Z " fill="rgb(0, 0, 0)" fill-opacity="1.000000" />
<path d="M 34.892578 33.335938 L 34.892578 32.412109 L 41.729980 32.412109 L 41.729980 33.335938 Z " fill="rgb(0, 0, 0)" fill-opacity="1.000000" />
<path d="M 41.892578 33.335938 L 41.892578 32.412109 L 48.729980 32.412109 L 48.729980 33.335938 Z " fill="rgb(0, 0, 0)" fill-opacity="1.000000" />
<path d="M 48.892578 33.335938 L 48.892578 32.412109 L 55.729980 32.412109 L 55.729980 33.335938 Z " fill="rgb(0, 0, 0)" fill-opacity="1.000000" />
<path d="M 55.892578 33.335938 L 55.892578 32.412109 L 62.729980 32.412109 L 62.729980 33.335938 Z " fill="rgb(0, 0, 0)" fill-opacity="1.000000" />
<path d="M 65.878906 39.319336 L 65.878906 33.335938 L 62.892578 33.335938 L 62.892578 32.412109 L 66.738281 32.412109 L 66.738281 39.319336 Z " fill="rgb(0, 0, 0)" fill-opacity="1.000000" />
<path d="M 240.878906 39.319336 L 240.878906 25.300781 L 241.738281 25.300781 L 241.738281 39.319336 Z " fill="rgb(0, 0, 0)" fill-opacity="1.000000" />
<path d="M 275.878906 33.335938 L 275.878906 25.300781 L 276.738281 25.300781 L 276.738281 32.412109 L 279.729980 32.412109 L 279.729980 33.335938 Z " fill="rgb(0, 0, 0)" fill-opacity="1.000000" />
<path d="M 279.892578 33.335938 L 279.892578 32.412109 L 286.729980 32.412109 L 286.729980 33.335938 Z " fill="rgb(0, 0, 0)" fill-opacity="1.000000" />
<path d="M 286.892578 33.335938 L 286.892578 32.412109 L 293.729980 32.412109 L 293.729980 33.335938 Z " fill="rgb(0, 0, 0)" fill-opacity="1.000000" />
<path d="M 293.892578 33.335938 L 293.892578 32.412109 L 300.729980 32.412109 L 300.729980 33.335938 Z " fill="rgb(0, 0, 0)" fill-opacity="1.000000" />
<path d="M 300.892578 33.335938 L 300.892578 32.412109 L 307.729980 32.412109 L 307.729980 33.335938 Z " fill="rgb(0, 0, 0)" fill-opacity="1.000000" />
<path d="M 307.892578 33.335938 L 307.892578 32.412109 L 314.729980 32.412109 L 314.729980 33.335938 Z " fill="rgb(0, 0, 0)" fill-opacity="1.000000" />
<path d="M 314.892578 33.335938 L 314.892578 32.412109 L 321.729980 32.412109 L 321.729980 33.335938 Z " fill="rgb(0, 0, 0)" fill-opacity="1.000000" />
<path d="M 321.892578 33.335938 L 321.892578 32.412109 L 328.729980 32.412109 L 328.729980 33.335938 Z " fill="rgb(0, 0, 0)" fill-opacity="1.000000" />
<path d="M 328.892578 33.335938 L 328.892578 32.412109 L 335.729980 32.412109 L 335.729980 33.335938 Z " fill="rgb(0, 0, 0)" fill-opacity="1.000000" />
<path d="M 335.892578 33.335938 L 335.892578 32.412109 L 338.878906 32.412109 L 338.878906 25.300781 L 339.738281 25.300781 L 339.738281 33.335938 Z " fill="rgb(0, 0, 0)" fill-opacity="1.000000" />
<path d="M 240.878906 26.319336 L 240.878906 19.412109 L 244.729980 19.412109 L 244.729980 20.335938 L 241.738281 20.335938 L 241.738281 26.319336 Z " fill="rgb(0, 0, 0)" fill-opacity="1.000000" />
<path d="M 244.892578 20.335938 L 244.892578 19.412109 L 251.729980 19.412109 L 251.729980 20.335938 Z " fill="rgb(0, 0, 0)" fill-opacity="1.000000" />
<path d="M 251.892578 20.335938 L 251.892578 19.412109 L 258.729980 19.412109 L 258.729980 20.335938 Z " fill="rgb(0, 0, 0)" fill-opacity="1.000000" />
<path d="M 258.892578 20.335938 L 258.892578 19.412109 L 265.729980 19.412109 L 265.729980 20.335938 Z " fill="rgb(0, 0, 0)" fill-opacity="1.000000" />
<path d="M 266.032227 23.418945 L 266.032227 16.866211 L 272.590332 20.142578 Z " fill="rgb(0, 0, 0)" fill-opacity="1.000000" />
<path d="M 275.878906 26.319336 L 275.878906 12.300781 L 276.738281 12.300781 L 276.738281 26.319336 Z " fill="rgb(0, 0, 0)" fill-opacity="1.000000" />
<path d="M 292.435547 15.254883 L 292.435547 16.355957 Q 291.941406 16.039062 291.444580 15.877930 Q 290.947754 15.716797 290.442871 15.716797 Q 289.674805 15.716797 289.229004 16.073975 Q 288.783203 16.431152 288.783203 17.038086 Q 288.783203 17.569824 289.075928 17.849121 Q 289.368652 18.128418 290.168945 18.316406 L 290.738281 18.445312 Q 291.866211 18.708496 292.381836 19.272461 Q 292.897461 19.836426 292.897461 20.808594 Q 292.897461 21.952637 292.188477 22.554199 Q 291.479492 23.155762 290.125977 23.155762 Q 289.562012 23.155762 288.992676 23.034912 Q 288.423340 22.914062 287.848633 22.672363 L 287.848633 21.517578 Q 288.466309 21.909668 289.016846 22.092285 Q 289.567383 22.274902 290.125977 22.274902 Q 290.947754 22.274902 291.404297 21.906982 Q 291.860840 21.539062 291.860840 20.878418 Q 291.860840 20.276855 291.546631 19.959961 Q 291.232422 19.643066 290.453613 19.471191 L 289.873535 19.336914 Q 288.756348 19.084473 288.251465 18.574219 Q 287.746582 18.063965 287.746582 17.204590 Q 287.746582 16.130371 288.468994 15.483154 Q 289.191406 14.835938 290.389160 14.835938 Q 290.851074 14.835938 291.361328 14.940674 Q 291.871582 15.045410 292.435547 15.254883 Z " fill="rgb(0, 0, 0)" fill-opacity="1.000000" />
<path d="M 295.058105 14.980957 L 299.816895 14.980957 L 299.816895 15.894043 L 296.143066 15.894043 L 296.143066 18.053223 L 299.655762 18.053223 L 299.655762 18.966309 L 296.143066 18.966309 L 296.143066 22.086914 L 299.918945 22.086914 L 299.918945 23.000000 L 295.058105 23.000000 Z " fill="rgb(0, 0, 0)" fill-opacity="1.000000" />
<path d="M 305.082031 19.213379 Q 305.500977 19.320801 305.796387 19.618896 Q 306.091797 19.916992 306.532227 20.808594 L 307.622559 23.000000 L 306.457031 23.000000 L 305.500977 20.975098 Q 305.087402 20.110352 304.757080 19.860596 Q 304.426758 19.610840 303.895020 19.610840 L 302.858398 19.610840 L 302.858398 23.000000 L 301.768066 23.000000 L 301.768066 14.980957 L 304.002441 14.980957 Q 305.323730 14.980957 306.027344 15.577148 Q 306.730957 16.173340 306.730957 17.301270 Q 306.730957 18.096191 306.298584 18.598389 Q 305.866211 19.100586 305.082031 19.213379 Z M 302.858398 15.872559 L 302.858398 18.719238 L 304.045410 18.719238 Q 304.824219 18.719238 305.205566 18.370117 Q 305.586914 18.020996 305.586914 17.301270 Q 305.586914 16.608398 305.181396 16.240479 Q 304.775879 15.872559 304.002441 15.872559 Z " fill="rgb(0, 0, 0)" fill-opacity="1.000000" />
<path d="M 311.308594 22.086914 L 313.193848 14.980957 L 314.316406 14.980957 L 311.969238 23.000000 L 310.653320 23.000000 L 308.306152 14.980957 L 309.428711 14.980957 Z " fill="rgb(0, 0, 0)" fill-opacity="1.000000" />
<path d="M 316.058105 14.980957 L 320.816895 14.980957 L 320.816895 15.894043 L 317.143066 15.894043 L 317.143066 18.053223 L 320.655762 18.053223 L 320.655762 18.966309 L 317.143066 18.966309 L 317.143066 22.086914 L 320.918945 22.086914 L 320.918945 23.000000 L 316.058105 23.000000 Z " fill="rgb(0, 0, 0)" fill-opacity="1.000000" />
<path d="M 326.082031 19.213379 Q 326.500977 19.320801 326.796387 19.618896 Q 327.091797 19.916992 327.532227 20.808594 L 328.622559 23.000000 L 327.457031 23.000000 L 326.500977 20.975098 Q 326.087402 20.110352 325.757080 19.860596 Q 325.426758 19.610840 324.895020 19.610840 L 323.858398 19.610840 L 323.858398 23.000000 L 322.768066 23.000000 L 322.768066 14.980957 L 325.002441 14.980957 Q 326.323730 14.980957 327.027344 15.577148 Q 327.730957 16.173340 327.730957 17.301270 Q 327.730957 18.096191 327.298584 18.598389 Q 326.866211 19.100586 326.082031 19.213379 Z M 323.858398 15.872559 L 323.858398 18.719238 L 325.045410 18.719238 Q 325.824219 18.719238 326.205566 18.370117 Q 326.586914 18.020996 326.586914 17.301270 Q 326.586914 16.608398 326.181396 16.240479 Q 325.775879 15.872559 325.002441 15.872559 Z " fill="rgb(0, 0, 0)" fill-opacity="1.000000" />
<path d="M 338.878906 26.319336 L 338.878906 12.300781 L 339.738281 12.300781 L 339.738281 26.319336 Z " fill="rgb(0, 0, 0)" fill-opacity="1.000000" />
<path d="M 275.878906 13.319336 L 275.878906 6.412109 L 279.729980 6.412109 L 279.729980 7.335938 L 276.738281 7.335938 L 276.738281 13.319336 Z " fill="rgb(0, 0, 0)" fill-opacity="1.000000" />
<path d="M 279.892578 7.335938 L 279.892578 6.412109 L 286.729980 6.412109 L 286.729980 7.335938 Z " fill="rgb(0, 0, 0)" fill-opacity="1.000000" />
<path d="M 286.892578 7.335938 L 286.892578 6.412109 L 293.729980 6.412109 L 293.729980 7.335938 Z " fill="rgb(0, 0, 0)" fill-opacity="1.000000" />
<path d="M 293.892578 7.335938 L 293.892578 6.412109 L 300.729980 6.412109 L 300.729980 7.335938 Z " fill="rgb(0, 0, 0)" fill-opacity="1.000000" />
<path d="M 300.892578 7.335938 L 300.892578 6.412109 L 307.729980 6.412109 L 307.729980 7.335938 Z " fill="rgb(0, 0, 0)" fill-opacity="1.000000" />
<path d="M 307.892578 7.335938 L 307.892578 6.412109 L 314.729980 6.412109 L 314.729980 7.335938 Z " fill="rgb(0, 0, 0)" fill-opacity="1.000000" />
<path d="M 314.892578 7.335938 L 314.892578 6.412109 L 321.729980 6.412109 L 321.729980 7.335938 Z " fill="rgb(0, 0, 0)" fill-opacity="1.000000" />
<path d="M 321.892578 7.335938 L 321.892578 6.412109 L 328.729980 6.412109 L 328.729980 7.335938 Z " fill="rgb(0, 0, 0)" fill-opacity="1.000000" />
<path d="M 328.892578 7.335938 L 328.892578 6.412109 L 335.729980 6.412109 L 335.729980 7.335938 Z " fill="rgb(0, 0, 0)" fill-opacity="1.000000" />
<path d="M 338.878906 13.319336 L 338.878906 7.335938 L 335.892578 7.335938 L 335.892578 6.412109 L 339.738281 6.412109 L 339.738281 13.319336 Z " fill="rgb(0, 0, 0)" fill-opacity="1.000000" />
</svg>