<svg xmlns="http://www.w3.org/2000/svg" version="1.1" width="225" height="209">
<path d="M 2.449219 13.319336 L 2.449219 5.950195 L 6.729980 5.950195 L 6.729980 7.797852 L 4.167969 7.797852 L 4.167969 13.319336 Z " fill="rgb(0, 0, 0)" fill-opacity="1.000000" />
<path d="M 2.449219 26.319336 L 2.449219 12.300781 L 4.167969 12.300781 L 4.167969 26.319336 Z " fill="rgb(0, 0, 0)" fill-opacity="1.000000" />
<path d="M 2.449219 39.319336 L 2.449219 25.300781 L 4.167969 25.300781 L 4.167969 31.950195 L 6.729980 31.950195 L 6.729980 33.797852 L 4.167969 33.797852 L 4.167969 39.319336 Z " fill="rgb(0, 0, 0)" fill-opacity="1.000000" />
<path d="M 2.449219 52.319336 L 2.449219 38.300781 L 4.167969 38.300781 L 4.167969 52.319336 Z " fill="rgb(0, 0, 0)" fill-opacity="1.000000" />
<path d="M 2.449219 59.797852 L 2.449219 51.300781 L 4.167969 51.300781 L 4.167969 57.950195 L 6.729980 57.950195 L 6.729980 59.797852 Z " fill="rgb(0, 0, 0)" fill-opacity="1.000000" />
<path d="M 2.878906 78.319336 L 2.878906 71.412109 L 6.729980 71.412109 L 6.729980 72.335938 L 3.738281 72.335938 L 3.738281 78.319336 Z " fill="rgb(0, 0, 0)" fill-opacity="1.000000" />
<path d="M 2.878906 91.319336 L 2.878906 77.300781 L 3.738281 77.300781 L 3.738281 91.319336 Z " fill="rgb(0, 0, 0)" fill-opacity="1.000000" />
<path d="M 2.878906 104.319336 L 2.878906 90.300781 L 3.738281 90.300781 L 3.738281 97.412109 L 6.729980 97.412109 L 6.729980 98.335938 L 3.738281 98.335938 L 3.738281 104.319336 Z " fill="rgb(0, 0, 0)" fill-opacity="1.000000" />
<path d="M 2.878906 117.319336 L 2.878906 103.300781 L 3.738281 103.300781 L 3.738281 117.319336 Z " fill="rgb(0, 0, 0)" fill-opacity="1.000000" />
<path d="M 2.878906 130.319336 L 2.878906 116.300781 L 3.738281 116.300781 L 3.738281 123.412109 L 6.729980 123.412109 L 6.729980 124.335938 L 3.738281 124.335938 L 3.738281 130.319336 Z " fill="rgb(0, 0, 0)" fill-opacity="1.000000" />
<path d="M 2.878906 143.319336 L 2.878906 129.300781 L 3.738281 129.300781 L 3.738281 143.319336 Z " fill="rgb(0, 0, 0)" fill-opacity="1.000000" />
<path d="M 2.878906 156.319336 L 2.878906 142.300781 L 3.738281 142.300781 L 3.738281 149.412109 L 6.729980 149.412109 L 6.729980 150.335938 L 3.738281 150.335938 L 3.738281 156.319336 Z " fill="rgb(0, 0, 0)" fill-opacity="1.000000" />
<path d="M 2.878906 169.319336 L 2.878906 155.300781 L 3.738281 155.300781 L 3.738281 169.319336 Z " fill="rgb(0, 0, 0)" fill-opacity="1.000000" />
<path d="M 2.878906 182.319336 L 2.878906 168.300781 L 3.738281 168.300781 L 3.738281 175.412109 L 6.729980 175.412109 L 6.729980 176.335938 L 3.738281 176.335938 L 3.738281 182.319336 Z " fill="rgb(0, 0, 0)" fill-opacity="1.000000" />
<path d="M 2.878906 195.319336 L 2.878906 181.300781 L 3.738281 181.300781 L 3.738281 195.319336 Z " fill="rgb(0, 0, 0)" fill-opacity="1.000000" />
<path d="M 2.878906 202.335938 L 2.878906 194.300781 L 3.738281 194.300781 L 3.738281 201.412109 L 6.729980 201.412109 L 6.729980 202.335938 Z " fill="rgb(0, 0, 0)" fill-opacity="1.000000" />
<path d="M 6.892578 202.335938 L 6.892578 201.412109 L 13.729980 201.412109 L 13.729980 202.335938 Z " fill="rgb(0, 0, 0)" fill-opacity="1.000000" />
<path d="M 13.892578 202.335938 L 13.892578 201.412109 L 20.729980 201.412109 L 20.729980 202.335938 Z " fill="rgb(0, 0, 0)" fill-opacity="1.000000" />
<path d="M 20.892578 202.335938 L 20.892578 201.412109 L 27.729980 201.412109 L 27.729980 202.335938 Z " fill="rgb(0, 0, 0)" fill-opacity="1.000000" />
<path d="M 27.892578 202.335938 L 27.892578 201.412109 L 34.729980 201.412109 L 34.729980 202.335938 Z " fill="rgb(0, 0, 0)" fill-opacity="1.000000" />
<path d="M 34.892578 202.335938 L 34.892578 201.412109 L 41.729980 201.412109 L 41.729980 202.335938 Z " fill="rgb(0, 0, 0)" fill-opacity="1.000000" />
<path d="M 41.892578 202.335938 L 41.892578 201.412109 L 48.729980 201.412109 L 48.729980 202.335938 Z " fill="rgb(0, 0, 0)" fill-opacity="1.000000" />
<path d="M 48.892578 202.335938 L 48.892578 201.412109 L 55.729980 201.412109 L 55.729980 202.335938 Z " fill="rgb(0, 0, 0)" fill-opacity="1.000000" />
<path d="M 55.892578 202.335938 L 55.892578 201.412109 L 62.729980 201.412109 L 62.729980 202.335938 Z " fill="rgb(0, 0, 0)" fill-opacity="1.000000" />
<path d="M 62.892578 202.335938 L 62.892578 201.412109 L 69.729980 201.412109 L 69.729980 202.335938 Z " fill="rgb(0, 0, 0)" fill-opacity="1.000000" />
<path d="M 69.892578 202.335938 L 69.892578 201.412109 L 76.729980 201.412109 L 76.729980 202.335938 Z " fill="rgb(0, 0, 0)" fill-opacity="1.000000" />
<path d="M 76.892578 202.335938 L 76.892578 201.412109 L 83.729980 201.412109 L 83.729980 202.335938 Z " fill="rgb(0, 0, 0)" fill-opacity="1.000000" />
<path d="M 83.892578 202.335938 L 83.892578 201.412109 L 90.729980 201.412109 L 90.729980 202.335938 Z " fill="rgb(0, 0, 0)" fill-opacity="1.000000" />
<path d="M 90.892578 202.335938 L 90.892578 201.412109 L 97.729980 201.412109 L 97.729980 202.335938 Z " fill="rgb(0, 0, 0)" fill-opacity="1.000000" />
<path d="M 97.892578 202.335938 L 97.892578 201.412109 L 104.729980 201.412109 L 104.729980 202.335938 Z " fill="rgb(0, 0, 0)" fill-opacity="1.000000" />
<path d="M 104.892578 202.335938 L 104.892578 201.412109 L 111.729980 201.412109 L 111.729980 202.335938 Z " fill="rgb(0, 0, 0)" fill-opacity="1.000000" />
<path d="M 111.892578 202.335938 L 111.892578 201.412109 L 118.729980 201.412109 L 118.729980 202.335938 Z " fill="rgb(0, 0, 0)" fill-opacity="1.000000" />
<path d="M 118.892578 202.335938 L 118.892578 201.412109 L 121.878906 201.412109 L 121.878906 194.300781 L 122.738281 194.300781 L 122.738281 202.335938 Z " fill="rgb(0, 0, 0)" fill-opacity="1.000000" />
<path d="M 35.102051 184.007812 L 36.584473 184.007812 L 39.721191 190.587402 L 39.721191 184.007812 L 40.875977 184.007812 L 40.875977 192.000000 L 39.393555 192.000000 L 36.256836 185.420410 L 36.256836 192.000000 L 35.102051 192.000000 Z " fill="rgb(0, 0, 0)" fill-opacity="1.000000" />
<path d="M 48.015625 188.498047 L 48.015625 188.981445 L 43.734863 188.981445 L 43.734863 189.013672 Q 43.691895 190.243652 44.204834 190.780762 Q 44.717773 191.317871 45.652344 191.317871 Q 46.125000 191.317871 46.640625 191.167480 Q 47.156250 191.017090 47.741699 190.710938 L 47.741699 191.693848 Q 47.177734 191.924805 46.654053 192.040283 Q 46.130371 192.155762 45.641602 192.155762 Q 44.239746 192.155762 43.450195 191.315186 Q 42.660645 190.474609 42.660645 188.997559 Q 42.660645 187.558105 43.434082 186.698730 Q 44.207520 185.839355 45.496582 185.839355 Q 46.645996 185.839355 47.309326 186.618164 Q 47.972656 187.396973 48.015625 188.498047 Z M 47.027344 188.208008 Q 46.962891 187.584961 46.573486 187.131104 Q 46.184082 186.677246 45.453613 186.677246 Q 44.739258 186.677246 44.277344 187.149902 Q 43.815430 187.622559 43.772461 188.213379 Z " fill="rgb(0, 0, 0)" fill-opacity="1.000000" />
<path d="M 52.297852 184.276367 L 52.297852 185.984375 L 54.542969 185.984375 L 54.542969 186.752441 L 52.297852 186.752441 L 52.297852 190.018066 Q 52.297852 190.684082 52.550293 190.947266 Q 52.802734 191.210449 53.431152 191.210449 L 54.542969 191.210449 L 54.542969 192.000000 L 53.334473 192.000000 Q 52.222656 192.000000 51.766113 191.554199 Q 51.309570 191.108398 51.309570 190.018066 L 51.309570 186.752441 L 49.703613 186.752441 L 49.703613 185.984375 L 51.309570 185.984375 L 51.309570 184.276367 Z " fill="rgb(0, 0, 0)" fill-opacity="1.000000" />
<path d="M 56.000000 185.984375 L 56.977539 185.984375 L 58.024902 190.845215 L 58.884277 187.740723 L 59.727539 187.740723 L 60.597656 190.845215 L 61.645020 185.984375 L 62.622559 185.984375 L 61.215332 192.000000 L 60.270020 192.000000 L 59.308594 188.702148 L 58.352539 192.000000 L 57.407227 192.000000 Z " fill="rgb(0, 0, 0)" fill-opacity="1.000000" />
<path d="M 66.308594 186.677246 Q 65.556641 186.677246 65.169922 187.262695 Q 64.783203 187.848145 64.783203 188.997559 Q 64.783203 190.141602 65.169922 190.729736 Q 65.556641 191.317871 66.308594 191.317871 Q 67.065918 191.317871 67.452637 190.729736 Q 67.839355 190.141602 67.839355 188.997559 Q 67.839355 187.848145 67.452637 187.262695 Q 67.065918 186.677246 66.308594 186.677246 Z M 66.308594 185.839355 Q 67.560059 185.839355 68.223389 186.650391 Q 68.886719 187.461426 68.886719 188.997559 Q 68.886719 190.539062 68.226074 191.347412 Q 67.565430 192.155762 66.308594 192.155762 Q 65.057129 192.155762 64.396484 191.347412 Q 63.735840 190.539062 63.735840 188.997559 Q 63.735840 187.461426 64.396484 186.650391 Q 65.057129 185.839355 66.308594 185.839355 Z " fill="rgb(0, 0, 0)" fill-opacity="1.000000" />
<path d="M 76.203613 187.225098 Q 75.886719 186.978027 75.559082 186.865234 Q 75.231445 186.752441 74.839355 186.752441 Q 73.915527 186.752441 73.426758 187.332520 Q 72.937988 187.912598 72.937988 189.008301 L 72.937988 192.000000 L 71.944336 192.000000 L 71.944336 185.984375 L 72.937988 185.984375 L 72.937988 187.160645 Q 73.185059 186.521484 73.697998 186.180420 Q 74.210938 185.839355 74.914551 185.839355 Q 75.279785 185.839355 75.596680 185.930664 Q 75.913574 186.021973 76.203613 186.215332 Z " fill="rgb(0, 0, 0)" fill-opacity="1.000000" />
<path d="M 78.267578 183.642578 L 79.288086 183.642578 L 79.288086 188.481934 L 81.882324 185.984375 L 83.085449 185.984375 L 80.716797 188.250977 L 83.456055 192.000000 L 82.247559 192.000000 L 80.023926 188.895508 L 79.288086 189.588379 L 79.288086 192.000000 L 78.267578 192.000000 Z " fill="rgb(0, 0, 0)" fill-opacity="1.000000" />
<path d="M 121.878906 195.319336 L 121.878906 181.300781 L 122.738281 181.300781 L 122.738281 195.319336 Z " fill="rgb(0, 0, 0)" fill-opacity="1.000000" />
<path d="M 6.892578 176.335938 L 6.892578 175.412109 L 13.729980 175.412109 L 13.729980 176.335938 Z " fill="rgb(0, 0, 0)" fill-opacity="1.000000" />
<path d="M 13.892578 176.335938 L 13.892578 175.412109 L 20.729980 175.412109 L 20.729980 176.335938 Z " fill="rgb(0, 0, 0)" fill-opacity="1.000000" />
<path d="M 20.892578 176.335938 L 20.892578 175.412109 L 27.729980 175.412109 L 27.729980 176.335938 Z " fill="rgb(0, 0, 0)" fill-opacity="1.000000" />
<path d="M 27.892578 176.335938 L 27.892578 175.412109 L 34.729980 175.412109 L 34.729980 176.335938 Z " fill="rgb(0, 0, 0)" fill-opacity="1.000000" />
<path d="M 34.892578 176.335938 L 34.892578 175.412109 L 41.729980 175.412109 L 41.729980 176.335938 Z " fill="rgb(0, 0, 0)" fill-opacity="1.000000" />
<path d="M 41.892578 176.335938 L 41.892578 175.412109 L 48.729980 175.412109 L 48.729980 176.335938 Z " fill="rgb(0, 0, 0)" fill-opacity="1.000000" />
<path d="M 48.892578 176.335938 L 48.892578 175.412109 L 55.729980 175.412109 L 55.729980 176.335938 Z " fill="rgb(0, 0, 0)" fill-opacity="1.000000" />
<path d="M 55.892578 176.335938 L 55.892578 175.412109 L 62.729980 175.412109 L 62.729980 176.335938 Z " fill="rgb(0, 0, 0)" fill-opacity="1.000000" />
<path d="M 62.892578 176.335938 L 62.892578 175.412109 L 69.729980 175.412109 L 69.729980 176.335938 Z " fill="rgb(0, 0, 0)" fill-opacity="1.000000" />
<path d="M 69.892578 176.335938 L 69.892578 175.412109 L 76.729980 175.412109 L 76.729980 176.335938 Z " fill="rgb(0, 0, 0)" fill-opacity="1.000000" />
<path d="M 76.892578 176.335938 L 76.892578 175.412109 L 83.729980 175.412109 L 83.729980 176.335938 Z " fill="rgb(0, 0, 0)" fill-opacity="1.000000" />
<path d="M 83.892578 176.335938 L 83.892578 175.412109 L 90.729980 175.412109 L 90.729980 176.335938 Z " fill="rgb(0, 0, 0)" fill-opacity="1.000000" />
<path d="M 90.892578 176.335938 L 90.892578 175.412109 L 97.729980 175.412109 L 97.729980 176.335938 Z " fill="rgb(0, 0, 0)" fill-opacity="1.000000" />
<path d="M 97.892578 176.335938 L 97.892578 175.412109 L 104.729980 175.412109 L 104.729980 176.335938 Z " fill="rgb(0, 0, 0)" fill-opacity="1.000000" />
<path d="M 104.892578 176.335938 L 104.892578 175.412109 L 111.729980 175.412109 L 111.729980 176.335938 Z " fill="rgb(0, 0, 0)" fill-opacity="1.000000" />
<path d="M 111.892578 176.335938 L 111.892578 175.412109 L 118.729980 175.412109 L 118.729980 176.335938 Z " fill="rgb(0, 0, 0)" fill-opacity="1.000000" />
<path d="M 121.878906 182.319336 L 121.878906 176.335938 L 118.892578 176.335938 L 118.892578 175.412109 L 121.878906 175.412109 L 121.878906 168.300781 L 122.738281 168.300781 L 122.738281 182.319336 Z " fill="rgb(0, 0, 0)" fill-opacity="1.000000" />
<path d="M 47.435547 158.254883 L 47.435547 159.355957 Q 46.941406 159.039062 46.444580 158.877930 Q 45.947754 158.716797 45.442871 158.716797 Q 44.674805 158.716797 44.229004 159.073975 Q 43.783203 159.431152 43.783203 160.038086 Q 43.783203 160.569824 44.075928 160.849121 Q 44.368652 161.128418 45.168945 161.316406 L 45.738281 161.445312 Q 46.866211 161.708496 47.381836 162.272461 Q 47.897461 162.836426 47.897461 163.808594 Q 47.897461 164.952637 47.188477 165.554199 Q 46.479492 166.155762 45.125977 166.155762 Q 44.562012 166.155762 43.992676 166.034912 Q 43.423340 165.914062 42.848633 165.672363 L 42.848633 164.517578 Q 43.466309 164.909668 44.016846 165.092285 Q 44.567383 165.274902 45.125977 165.274902 Q 45.947754 165.274902 46.404297 164.906982 Q 46.860840 164.539062 46.860840 163.878418 Q 46.860840 163.276855 46.546631 162.959961 Q 46.232422 162.643066 45.453613 162.471191 L 44.873535 162.336914 Q 43.756348 162.084473 43.251465 161.574219 Q 42.746582 161.063965 42.746582 160.204590 Q 42.746582 159.130371 43.468994 158.483154 Q 44.191406 157.835938 45.389160 157.835938 Q 45.851074 157.835938 46.361328 157.940674 Q 46.871582 158.045410 47.435547 158.254883 Z " fill="rgb(0, 0, 0)" fill-opacity="1.000000" />
<path d="M 55.015625 162.498047 L 55.015625 162.981445 L 50.734863 162.981445 L 50.734863 163.013672 Q 50.691895 164.243652 51.204834 164.780762 Q 51.717773 165.317871 52.652344 165.317871 Q 53.125000 165.317871 53.640625 165.167480 Q 54.156250 165.017090 54.741699 164.710938 L 54.741699 165.693848 Q 54.177734 165.924805 53.654053 166.040283 Q 53.130371 166.155762 52.641602 166.155762 Q 51.239746 166.155762 50.450195 165.315186 Q 49.660645 164.474609 49.660645 162.997559 Q 49.660645 161.558105 50.434082 160.698730 Q 51.207520 159.839355 52.496582 159.839355 Q 53.645996 159.839355 54.309326 160.618164 Q 54.972656 161.396973 55.015625 162.498047 Z M 54.027344 162.208008 Q 53.962891 161.584961 53.573486 161.131104 Q 53.184082 160.677246 52.453613 160.677246 Q 51.739258 160.677246 51.277344 161.149902 Q 50.815430 161.622559 50.772461 162.213379 Z " fill="rgb(0, 0, 0)" fill-opacity="1.000000" />
<path d="M 62.203613 161.225098 Q 61.886719 160.978027 61.559082 160.865234 Q 61.231445 160.752441 60.839355 160.752441 Q 59.915527 160.752441 59.426758 161.332520 Q 58.937988 161.912598 58.937988 163.008301 L 58.937988 166.000000 L 57.944336 166.000000 L 57.944336 159.984375 L 58.937988 159.984375 L 58.937988 161.160645 Q 59.185059 160.521484 59.697998 160.180420 Q 60.210938 159.839355 60.914551 159.839355 Q 61.279785 159.839355 61.596680 159.930664 Q 61.913574 160.021973 62.203613 160.215332 Z " fill="rgb(0, 0, 0)" fill-opacity="1.000000" />
<path d="M 63.537109 159.984375 L 64.562988 159.984375 L 66.308594 165.033203 L 68.059570 159.984375 L 69.085449 159.984375 L 66.947754 166.000000 L 65.674805 166.000000 Z " fill="rgb(0, 0, 0)" fill-opacity="1.000000" />
<path d="M 76.015625 162.498047 L 76.015625 162.981445 L 71.734863 162.981445 L 71.734863 163.013672 Q 71.691895 164.243652 72.204834 164.780762 Q 72.717773 165.317871 73.652344 165.317871 Q 74.125000 165.317871 74.640625 165.167480 Q 75.156250 165.017090 75.741699 164.710938 L 75.741699 165.693848 Q 75.177734 165.924805 74.654053 166.040283 Q 74.130371 166.155762 73.641602 166.155762 Q 72.239746 166.155762 71.450195 165.315186 Q 70.660645 164.474609 70.660645 162.997559 Q 70.660645 161.558105 71.434082 160.698730 Q 72.207520 159.839355 73.496582 159.839355 Q 74.645996 159.839355 75.309326 160.618164 Q 75.972656 161.396973 76.015625 162.498047 Z M 75.027344 162.208008 Q 74.962891 161.584961 74.573486 161.131104 Q 74.184082 160.677246 73.453613 160.677246 Q 72.739258 160.677246 72.277344 161.149902 Q 71.815430 161.622559 71.772461 162.213379 Z " fill="rgb(0, 0, 0)" fill-opacity="1.000000" />
<path d="M 83.203613 161.225098 Q 82.886719 160.978027 82.559082 160.865234 Q 82.231445 160.752441 81.839355 160.752441 Q 80.915527 160.752441 80.426758 161.332520 Q 79.937988 161.912598 79.937988 163.008301 L 79.937988 166.000000 L 78.944336 166.000000 L 78.944336 159.984375 L 79.937988 159.984375 L 79.937988 161.160645 Q 80.185059 160.521484 80.697998 160.180420 Q 81.210938 159.839355 81.914551 159.839355 Q 82.279785 159.839355 82.596680 159.930664 Q 82.913574 160.021973 83.203613 160.215332 Z " fill="rgb(0, 0, 0)" fill-opacity="1.000000" />
<path d="M 121.878906 169.319336 L 121.878906 155.300781 L 122.738281 155.300781 L 122.738281 169.319336 Z " fill="rgb(0, 0, 0)" fill-opacity="1.000000" />
<path d="M 6.892578 150.335938 L 6.892578 149.412109 L 13.729980 149.412109 L 13.729980 150.335938 Z " fill="rgb(0, 0, 0)" fill-opacity="1.000000" />
<path d="M 13.892578 150.335938 L 13.892578 149.412109 L 20.729980 149.412109 L 20.729980 150.335938 Z " fill="rgb(0, 0, 0)" fill-opacity="1.000000" />
<path d="M 20.892578 150.335938 L 20.892578 149.412109 L 27.729980 149.412109 L 27.729980 150.335938 Z " fill="rgb(0, 0, 0)" fill-opacity="1.000000" />
<path d="M 27.892578 150.335938 L 27.892578 149.412109 L 34.729980 149.412109 L 34.729980 150.335938 Z " fill="rgb(0, 0, 0)" fill-opacity="1.000000" />
<path d="M 34.892578 150.335938 L 34.892578 149.412109 L 41.729980 149.412109 L 41.729980 150.335938 Z " fill="rgb(0, 0, 0)" fill-opacity="1.000000" />
<path d="M 41.892578 150.335938 L 41.892578 149.412109 L 48.729980 149.412109 L 48.729980 150.335938 Z " fill="rgb(0, 0, 0)" fill-opacity="1.000000" />
<path d="M 48.892578 150.335938 L 48.892578 149.412109 L 55.729980 149.412109 L 55.729980 150.335938 Z " fill="rgb(0, 0, 0)" fill-opacity="1.000000" />
<path d="M 55.892578 150.335938 L 55.892578 149.412109 L 62.729980 149.412109 L 62.729980 150.335938 Z " fill="rgb(0, 0, 0)" fill-opacity="1.000000" />
<path d="M 62.892578 150.335938 L 62.892578 149.412109 L 69.729980 149.412109 L 69.729980 150.335938 Z " fill="rgb(0, 0, 0)" fill-opacity="1.000000" />
<path d="M 69.892578 150.335938 L 69.892578 149.412109 L 76.729980 149.412109 L 76.729980 150.335938 Z " fill="rgb(0, 0, 0)" fill-opacity="1.000000" />
<path d="M 76.892578 150.335938 L 76.892578 149.412109 L 83.729980 149.412109 L 83.729980 150.335938 Z " fill="rgb(0, 0, 0)" fill-opacity="1.000000" />
<path d="M 83.892578 150.335938 L 83.892578 149.412109 L 90.729980 149.412109 L 90.729980 150.335938 Z " fill="rgb(0, 0, 0)" fill-opacity="1.000000" />
<path d="M 90.892578 150.335938 L 90.892578 149.412109 L 97.729980 149.412109 L 97.729980 150.335938 Z " fill="rgb(0, 0, 0)" fill-opacity="1.000000" />
<path d="M 97.892578 150.335938 L 97.892578 149.412109 L 104.729980 149.412109 L 104.729980 150.335938 Z " fill="rgb(0, 0, 0)" fill-opacity="1.000000" />
<path d="M 104.892578 150.335938 L 104.892578 149.412109 L 111.729980 149.412109 L 111.729980 150.335938 Z " fill="rgb(0, 0, 0)" fill-opacity="1.000000" />
<path d="M 111.892578 150.335938 L 111.892578 149.412109 L 118.729980 149.412109 L 118.729980 150.335938 Z " fill="rgb(0, 0, 0)" fill-opacity="1.000000" />
<path d="M 121.878906 156.319336 L 121.878906 150.335938 L 118.892578 150.335938 L 118.892578 149.412109 L 121.878906 149.412109 L 121.878906 142.300781 L 122.738281 142.300781 L 122.738281 156.319336 Z " fill="rgb(0, 0, 0)" fill-opacity="1.000000" />
<path d="M 17.308594 139.086914 L 19.193848 131.980957 L 20.316406 131.980957 L 17.969238 140.000000 L 16.653320 140.000000 L 14.306152 131.980957 L 15.428711 131.980957 Z " fill="rgb(0, 0, 0)" fill-opacity="1.000000" />
<path d="M 22.697266 134.005859 L 25.227051 134.005859 L 25.227051 139.231934 L 27.187500 139.231934 L 27.187500 140.000000 L 22.278320 140.000000 L 22.278320 139.231934 L 24.238770 139.231934 L 24.238770 134.773926 L 22.697266 134.773926 Z M 24.238770 131.669434 L 25.227051 131.669434 L 25.227051 132.915527 L 24.238770 132.915527 Z " fill="rgb(0, 0, 0)" fill-opacity="1.000000" />
<path d="M 34.203613 135.225098 Q 33.886719 134.978027 33.559082 134.865234 Q 33.231445 134.752441 32.839355 134.752441 Q 31.915527 134.752441 31.426758 135.332520 Q 30.937988 135.912598 30.937988 137.008301 L 30.937988 140.000000 L 29.944336 140.000000 L 29.944336 133.984375 L 30.937988 133.984375 L 30.937988 135.160645 Q 31.185059 134.521484 31.697998 134.180420 Q 32.210938 133.839355 32.914551 133.839355 Q 33.279785 133.839355 33.596680 133.930664 Q 33.913574 134.021973 34.203613 134.215332 Z " fill="rgb(0, 0, 0)" fill-opacity="1.000000" />
<path d="M 38.297852 132.276367 L 38.297852 133.984375 L 40.542969 133.984375 L 40.542969 134.752441 L 38.297852 134.752441 L 38.297852 138.018066 Q 38.297852 138.684082 38.550293 138.947266 Q 38.802734 139.210449 39.431152 139.210449 L 40.542969 139.210449 L 40.542969 140.000000 L 39.334473 140.000000 Q 38.222656 140.000000 37.766113 139.554199 Q 37.309570 139.108398 37.309570 138.018066 L 37.309570 134.752441 L 35.703613 134.752441 L 35.703613 133.984375 L 37.309570 133.984375 L 37.309570 132.276367 Z " fill="rgb(0, 0, 0)" fill-opacity="1.000000" />
<path d="M 43.047363 137.722656 L 43.047363 133.995117 L 44.035645 133.995117 L 44.035645 137.722656 Q 44.035645 138.533691 44.322998 138.915039 Q 44.610352 139.296387 45.211914 139.296387 Q 45.910156 139.296387 46.280762 138.804932 Q 46.651367 138.313477 46.651367 137.395020 L 46.651367 133.995117 L 47.645020 133.995117 L 47.645020 140.000000 L 46.651367 140.000000 L 46.651367 139.097656 Q 46.388184 139.618652 45.934326 139.887207 Q 45.480469 140.155762 44.873535 140.155762 Q 43.949707 140.155762 43.498535 139.551514 Q 43.047363 138.947266 43.047363 137.722656 Z " fill="rgb(0, 0, 0)" fill-opacity="1.000000" />
<path d="M 52.770508 136.976074 L 52.442871 136.976074 Q 51.578125 136.976074 51.140381 137.279541 Q 50.702637 137.583008 50.702637 138.184570 Q 50.702637 138.727051 51.030273 139.027832 Q 51.357910 139.328613 51.937988 139.328613 Q 52.754395 139.328613 53.221680 138.761963 Q 53.688965 138.195312 53.694336 137.196289 L 53.694336 136.976074 Z M 54.687988 136.567871 L 54.687988 140.000000 L 53.694336 140.000000 L 53.694336 139.108398 Q 53.377441 139.645508 52.896729 139.900635 Q 52.416016 140.155762 51.728516 140.155762 Q 50.810059 140.155762 50.262207 139.637451 Q 49.714355 139.119141 49.714355 138.249023 Q 49.714355 137.244629 50.388428 136.723633 Q 51.062500 136.202637 52.367676 136.202637 L 53.694336 136.202637 L 53.694336 136.046875 Q 53.688965 135.327148 53.329102 135.002197 Q 52.969238 134.677246 52.179688 134.677246 Q 51.674805 134.677246 51.159180 134.822266 Q 50.643555 134.967285 50.154785 135.246582 L 50.154785 134.258301 Q 50.702637 134.048828 51.204834 133.944092 Q 51.707031 133.839355 52.179688 133.839355 Q 52.926270 133.839355 53.455322 134.059570 Q 53.984375 134.279785 54.312012 134.720215 Q 54.516113 134.988770 54.602051 135.383545 Q 54.687988 135.778320 54.687988 136.567871 Z " fill="rgb(0, 0, 0)" fill-opacity="1.000000" />
<path d="M 59.861816 137.824707 Q 59.861816 138.490723 60.106201 138.829102 Q 60.350586 139.167480 60.828613 139.167480 L 61.983398 139.167480 L 61.983398 140.000000 L 60.731934 140.000000 Q 59.845703 140.000000 59.359619 139.433350 Q 58.873535 138.866699 58.873535 137.824707 L 58.873535 132.383789 L 57.289062 132.383789 L 57.289062 131.610352 L 59.861816 131.610352 Z " fill="rgb(0, 0, 0)" fill-opacity="1.000000" />
<path d="M 64.697266 134.005859 L 67.227051 134.005859 L 67.227051 139.231934 L 69.187500 139.231934 L 69.187500 140.000000 L 64.278320 140.000000 L 64.278320 139.231934 L 66.238770 139.231934 L 66.238770 134.773926 L 64.697266 134.773926 Z M 66.238770 131.669434 L 67.227051 131.669434 L 67.227051 132.915527 L 66.238770 132.915527 Z " fill="rgb(0, 0, 0)" fill-opacity="1.000000" />
<path d="M 71.219238 133.973633 L 75.585938 133.973633 L 75.585938 134.875977 L 72.132324 139.194336 L 75.585938 139.194336 L 75.585938 140.000000 L 71.090332 140.000000 L 71.090332 139.086914 L 74.543945 134.763184 L 71.219238 134.763184 Z " fill="rgb(0, 0, 0)" fill-opacity="1.000000" />
<path d="M 80.770508 136.976074 L 80.442871 136.976074 Q 79.578125 136.976074 79.140381 137.279541 Q 78.702637 137.583008 78.702637 138.184570 Q 78.702637 138.727051 79.030273 139.027832 Q 79.357910 139.328613 79.937988 139.328613 Q 80.754395 139.328613 81.221680 138.761963 Q 81.688965 138.195312 81.694336 137.196289 L 81.694336 136.976074 Z M 82.687988 136.567871 L 82.687988 140.000000 L 81.694336 140.000000 L 81.694336 139.108398 Q 81.377441 139.645508 80.896729 139.900635 Q 80.416016 140.155762 79.728516 140.155762 Q 78.810059 140.155762 78.262207 139.637451 Q 77.714355 139.119141 77.714355 138.249023 Q 77.714355 137.244629 78.388428 136.723633 Q 79.062500 136.202637 80.367676 136.202637 L 81.694336 136.202637 L 81.694336 136.046875 Q 81.688965 135.327148 81.329102 135.002197 Q 80.969238 134.677246 80.179688 134.677246 Q 79.674805 134.677246 79.159180 134.822266 Q 78.643555 134.967285 78.154785 135.246582 L 78.154785 134.258301 Q 78.702637 134.048828 79.204834 133.944092 Q 79.707031 133.839355 80.179688 133.839355 Q 80.926270 133.839355 81.455322 134.059570 Q 81.984375 134.279785 82.312012 134.720215 Q 82.516113 134.988770 82.602051 135.383545 Q 82.687988 135.778320 82.687988 136.567871 Z " fill="rgb(0, 0, 0)" fill-opacity="1.000000" />
<path d="M 87.297852 132.276367 L 87.297852 133.984375 L 89.542969 133.984375 L 89.542969 134.752441 L 87.297852 134.752441 L 87.297852 138.018066 Q 87.297852 138.684082 87.550293 138.947266 Q 87.802734 139.210449 88.431152 139.210449 L 89.542969 139.210449 L 89.542969 140.000000 L 88.334473 140.000000 Q 87.222656 140.000000 86.766113 139.554199 Q 86.309570 139.108398 86.309570 138.018066 L 86.309570 134.752441 L 84.703613 134.752441 L 84.703613 133.984375 L 86.309570 133.984375 L 86.309570 132.276367 Z " fill="rgb(0, 0, 0)" fill-opacity="1.000000" />
<path d="M 92.697266 134.005859 L 95.227051 134.005859 L 95.227051 139.231934 L 97.187500 139.231934 L 97.187500 140.000000 L 92.278320 140.000000 L 92.278320 139.231934 L 94.238770 139.231934 L 94.238770 134.773926 L 92.697266 134.773926 Z M 94.238770 131.669434 L 95.227051 131.669434 L 95.227051 132.915527 L 94.238770 132.915527 Z " fill="rgb(0, 0, 0)" fill-opacity="1.000000" />
<path d="M 101.308594 134.677246 Q 100.556641 134.677246 100.169922 135.262695 Q 99.783203 135.848145 99.783203 136.997559 Q 99.783203 138.141602 100.169922 138.729736 Q 100.556641 139.317871 101.308594 139.317871 Q 102.065918 139.317871 102.452637 138.729736 Q 102.839355 138.141602 102.839355 136.997559 Q 102.839355 135.848145 102.452637 135.262695 Q 102.065918 134.677246 101.308594 134.677246 Z M 101.308594 133.839355 Q 102.560059 133.839355 103.223389 134.650391 Q 103.886719 135.461426 103.886719 136.997559 Q 103.886719 138.539062 103.226074 139.347412 Q 102.565430 140.155762 101.308594 140.155762 Q 100.057129 140.155762 99.396484 139.347412 Q 98.735840 138.539062 98.735840 136.997559 Q 98.735840 135.461426 99.396484 134.650391 Q 100.057129 133.839355 101.308594 133.839355 Z " fill="rgb(0, 0, 0)" fill-opacity="1.000000" />
<path d="M 110.645020 136.272461 L 110.645020 140.000000 L 109.651367 140.000000 L 109.651367 136.272461 Q 109.651367 135.461426 109.366699 135.080078 Q 109.082031 134.698730 108.475098 134.698730 Q 107.782227 134.698730 107.408936 135.190186 Q 107.035645 135.681641 107.035645 136.600098 L 107.035645 140.000000 L 106.047363 140.000000 L 106.047363 133.984375 L 107.035645 133.984375 L 107.035645 134.886719 Q 107.298828 134.371094 107.750000 134.105225 Q 108.201172 133.839355 108.818848 133.839355 Q 109.737305 133.839355 110.191162 134.443604 Q 110.645020 135.047852 110.645020 136.272461 Z " fill="rgb(0, 0, 0)" fill-opacity="1.000000" />
<path d="M 121.878906 143.319336 L 121.878906 129.300781 L 122.738281 129.300781 L 122.738281 143.319336 Z " fill="rgb(0, 0, 0)" fill-opacity="1.000000" />
<path d="M 6.892578 124.335938 L 6.892578 123.412109 L 13.729980 123.412109 L 13.729980 124.335938 Z " fill="rgb(0, 0, 0)" fill-opacity="1.000000" />
<path d="M 13.892578 124.335938 L 13.892578 123.412109 L 20.729980 123.412109 L 20.729980 124.335938 Z " fill="rgb(0, 0, 0)" fill-opacity="1.000000" />
<path d="M 20.892578 124.335938 L 20.892578 123.412109 L 27.729980 123.412109 L 27.729980 124.335938 Z " fill="rgb(0, 0, 0)" fill-opacity="1.000000" />
<path d="M 27.892578 124.335938 L 27.892578 123.412109 L 34.729980 123.412109 L 34.729980 124.335938 Z " fill="rgb(0, 0, 0)" fill-opacity="1.000000" />
<path d="M 34.892578 124.335938 L 34.892578 123.412109 L 41.729980 123.412109 L 41.729980 124.335938 Z " fill="rgb(0, 0, 0)" fill-opacity="1.000000" />
<path d="M 41.892578 124.335938 L 41.892578 123.412109 L 48.729980 123.412109 L 48.729980 124.335938 Z " fill="rgb(0, 0, 0)" fill-opacity="1.000000" />
<path d="M 48.892578 124.335938 L 48.892578 123.412109 L 55.729980 123.412109 L 55.729980 124.335938 Z " fill="rgb(0, 0, 0)" fill-opacity="1.000000" />
<path d="M 55.892578 124.335938 L 55.892578 123.412109 L 62.729980 123.412109 L 62.729980 124.335938 Z " fill="rgb(0, 0, 0)" fill-opacity="1.000000" />
<path d="M 62.892578 124.335938 L 62.892578 123.412109 L 69.729980 123.412109 L 69.729980 124.335938 Z " fill="rgb(0, 0, 0)" fill-opacity="1.000000" />
<path d="M 69.892578 124.335938 L 69.892578 123.412109 L 76.729980 123.412109 L 76.729980 124.335938 Z " fill="rgb(0, 0, 0)" fill-opacity="1.000000" />
<path d="M 76.892578 124.335938 L 76.892578 123.412109 L 83.729980 123.412109 L 83.729980 124.335938 Z " fill="rgb(0, 0, 0)" fill-opacity="1.000000" />
<path d="M 83.892578 124.335938 L 83.892578 123.412109 L 90.729980 123.412109 L 90.729980 124.335938 Z " fill="rgb(0, 0, 0)" fill-opacity="1.000000" />
<path d="M 90.892578 124.335938 L 90.892578 123.412109 L 97.729980 123.412109 L 97.729980 124.335938 Z " fill="rgb(0, 0, 0)" fill-opacity="1.000000" />
<path d="M 97.892578 124.335938 L 97.892578 123.412109 L 104.729980 123.412109 L 104.729980 124.335938 Z " fill="rgb(0, 0, 0)" fill-opacity="1.000000" />
<path d="M 104.892578 124.335938 L 104.892578 123.412109 L 111.729980 123.412109 L 111.729980 124.335938 Z " fill="rgb(0, 0, 0)" fill-opacity="1.000000" />
<path d="M 111.892578 124.335938 L 111.892578 123.412109 L 118.729980 123.412109 L 118.729980 124.335938 Z " fill="rgb(0, 0, 0)" fill-opacity="1.000000" />
<path d="M 121.878906 130.319336 L 121.878906 124.335938 L 118.892578 124.335938 L 118.892578 123.412109 L 121.878906 123.412109 L 121.878906 116.300781 L 122.738281 116.300781 L 122.738281 130.319336 Z " fill="rgb(0, 0, 0)" fill-opacity="1.000000" />
<path d="M 11.860840 109.998535 Q 11.860840 108.231445 11.498291 107.474121 Q 11.135742 106.716797 10.308594 106.716797 Q 9.486816 106.716797 9.124268 107.474121 Q 8.761719 108.231445 8.761719 109.998535 Q 8.761719 111.760254 9.124268 112.517578 Q 9.486816 113.274902 10.308594 113.274902 Q 11.135742 113.274902 11.498291 112.520264 Q 11.860840 111.765625 11.860840 109.998535 Z M 12.994141 109.998535 Q 12.994141 112.093262 12.330811 113.124512 Q 11.667480 114.155762 10.308594 114.155762 Q 8.949707 114.155762 8.289062 113.129883 Q 7.628418 112.104004 7.628418 109.998535 Q 7.628418 107.898438 8.291748 106.867188 Q 8.955078 105.835938 10.308594 105.835938 Q 11.667480 105.835938 12.330811 106.867188 Q 12.994141 107.898438 12.994141 109.998535 Z " fill="rgb(0, 0, 0)" fill-opacity="1.000000" />
<path d="M 16.014160 113.242676 L 16.014160 116.288086 L 15.020508 116.288086 L 15.020508 107.984375 L 16.014160 107.984375 L 16.014160 108.752441 Q 16.261230 108.306641 16.672119 108.072998 Q 17.083008 107.839355 17.620117 107.839355 Q 18.710449 107.839355 19.330811 108.682617 Q 19.951172 109.525879 19.951172 111.019043 Q 19.951172 112.485352 19.328125 113.320557 Q 18.705078 114.155762 17.620117 114.155762 Q 17.072266 114.155762 16.661377 113.922119 Q 16.250488 113.688477 16.014160 113.242676 Z M 18.914551 110.997559 Q 18.914551 109.848145 18.552002 109.262695 Q 18.189453 108.677246 17.475098 108.677246 Q 16.755371 108.677246 16.384766 109.265381 Q 16.014160 109.853516 16.014160 110.997559 Q 16.014160 112.136230 16.384766 112.727051 Q 16.755371 113.317871 17.475098 113.317871 Q 18.189453 113.317871 18.552002 112.732422 Q 18.914551 112.146973 18.914551 110.997559 Z " fill="rgb(0, 0, 0)" fill-opacity="1.000000" />
<path d="M 27.015625 110.498047 L 27.015625 110.981445 L 22.734863 110.981445 L 22.734863 111.013672 Q 22.691895 112.243652 23.204834 112.780762 Q 23.717773 113.317871 24.652344 113.317871 Q 25.125000 113.317871 25.640625 113.167480 Q 26.156250 113.017090 26.741699 112.710938 L 26.741699 113.693848 Q 26.177734 113.924805 25.654053 114.040283 Q 25.130371 114.155762 24.641602 114.155762 Q 23.239746 114.155762 22.450195 113.315186 Q 21.660645 112.474609 21.660645 110.997559 Q 21.660645 109.558105 22.434082 108.698730 Q 23.207520 107.839355 24.496582 107.839355 Q 25.645996 107.839355 26.309326 108.618164 Q 26.972656 109.396973 27.015625 110.498047 Z M 26.027344 110.208008 Q 25.962891 109.584961 25.573486 109.131104 Q 25.184082 108.677246 24.453613 108.677246 Q 23.739258 108.677246 23.277344 109.149902 Q 22.815430 109.622559 22.772461 110.213379 Z " fill="rgb(0, 0, 0)" fill-opacity="1.000000" />
<path d="M 34.203613 109.225098 Q 33.886719 108.978027 33.559082 108.865234 Q 33.231445 108.752441 32.839355 108.752441 Q 31.915527 108.752441 31.426758 109.332520 Q 30.937988 109.912598 30.937988 111.008301 L 30.937988 114.000000 L 29.944336 114.000000 L 29.944336 107.984375 L 30.937988 107.984375 L 30.937988 109.160645 Q 31.185059 108.521484 31.697998 108.180420 Q 32.210938 107.839355 32.914551 107.839355 Q 33.279785 107.839355 33.596680 107.930664 Q 33.913574 108.021973 34.203613 108.215332 Z " fill="rgb(0, 0, 0)" fill-opacity="1.000000" />
<path d="M 38.770508 110.976074 L 38.442871 110.976074 Q 37.578125 110.976074 37.140381 111.279541 Q 36.702637 111.583008 36.702637 112.184570 Q 36.702637 112.727051 37.030273 113.027832 Q 37.357910 113.328613 37.937988 113.328613 Q 38.754395 113.328613 39.221680 112.761963 Q 39.688965 112.195312 39.694336 111.196289 L 39.694336 110.976074 Z M 40.687988 110.567871 L 40.687988 114.000000 L 39.694336 114.000000 L 39.694336 113.108398 Q 39.377441 113.645508 38.896729 113.900635 Q 38.416016 114.155762 37.728516 114.155762 Q 36.810059 114.155762 36.262207 113.637451 Q 35.714355 113.119141 35.714355 112.249023 Q 35.714355 111.244629 36.388428 110.723633 Q 37.062500 110.202637 38.367676 110.202637 L 39.694336 110.202637 L 39.694336 110.046875 Q 39.688965 109.327148 39.329102 109.002197 Q 38.969238 108.677246 38.179688 108.677246 Q 37.674805 108.677246 37.159180 108.822266 Q 36.643555 108.967285 36.154785 109.246582 L 36.154785 108.258301 Q 36.702637 108.048828 37.204834 107.944092 Q 37.707031 107.839355 38.179688 107.839355 Q 38.926270 107.839355 39.455322 108.059570 Q 39.984375 108.279785 40.312012 108.720215 Q 40.516113 108.988770 40.602051 109.383545 Q 40.687988 109.778320 40.687988 110.567871 Z " fill="rgb(0, 0, 0)" fill-opacity="1.000000" />
<path d="M 45.297852 106.276367 L 45.297852 107.984375 L 47.542969 107.984375 L 47.542969 108.752441 L 45.297852 108.752441 L 45.297852 112.018066 Q 45.297852 112.684082 45.550293 112.947266 Q 45.802734 113.210449 46.431152 113.210449 L 47.542969 113.210449 L 47.542969 114.000000 L 46.334473 114.000000 Q 45.222656 114.000000 44.766113 113.554199 Q 44.309570 113.108398 44.309570 112.018066 L 44.309570 108.752441 L 42.703613 108.752441 L 42.703613 107.984375 L 44.309570 107.984375 L 44.309570 106.276367 Z " fill="rgb(0, 0, 0)" fill-opacity="1.000000" />
<path d="M 50.697266 108.005859 L 53.227051 108.005859 L 53.227051 113.231934 L 55.187500 113.231934 L 55.187500 114.000000 L 50.278320 114.000000 L 50.278320 113.231934 L 52.238770 113.231934 L 52.238770 108.773926 L 50.697266 108.773926 Z M 52.238770 105.669434 L 53.227051 105.669434 L 53.227051 106.915527 L 52.238770 106.915527 Z " fill="rgb(0, 0, 0)" fill-opacity="1.000000" />
<path d="M 61.645020 110.272461 L 61.645020 114.000000 L 60.651367 114.000000 L 60.651367 110.272461 Q 60.651367 109.461426 60.366699 109.080078 Q 60.082031 108.698730 59.475098 108.698730 Q 58.782227 108.698730 58.408936 109.190186 Q 58.035645 109.681641 58.035645 110.600098 L 58.035645 114.000000 L 57.047363 114.000000 L 57.047363 107.984375 L 58.035645 107.984375 L 58.035645 108.886719 Q 58.298828 108.371094 58.750000 108.105225 Q 59.201172 107.839355 59.818848 107.839355 Q 60.737305 107.839355 61.191162 108.443604 Q 61.645020 109.047852 61.645020 110.272461 Z " fill="rgb(0, 0, 0)" fill-opacity="1.000000" />
<path d="M 67.608398 110.943848 Q 67.608398 109.832031 67.245850 109.254639 Q 66.883301 108.677246 66.190430 108.677246 Q 65.465332 108.677246 65.083984 109.254639 Q 64.702637 109.832031 64.702637 110.943848 Q 64.702637 112.055664 65.086670 112.638428 Q 65.470703 113.221191 66.201172 113.221191 Q 66.883301 113.221191 67.245850 112.635742 Q 67.608398 112.050293 67.608398 110.943848 Z M 68.596680 113.613281 Q 68.596680 114.966797 67.957520 115.665039 Q 67.318359 116.363281 66.077637 116.363281 Q 65.669434 116.363281 65.223633 116.288086 Q 64.777832 116.212891 64.332031 116.067871 L 64.332031 115.090332 Q 64.858398 115.337402 65.288086 115.455566 Q 65.717773 115.573730 66.077637 115.573730 Q 66.877930 115.573730 67.243164 115.138672 Q 67.608398 114.703613 67.608398 113.758301 L 67.608398 113.715332 L 67.608398 113.043945 Q 67.372070 113.548828 66.963867 113.795898 Q 66.555664 114.042969 65.970215 114.042969 Q 64.917480 114.042969 64.289062 113.199707 Q 63.660645 112.356445 63.660645 110.943848 Q 63.660645 109.525879 64.289062 108.682617 Q 64.917480 107.839355 65.970215 107.839355 Q 66.550293 107.839355 66.953125 108.070312 Q 67.355957 108.301270 67.608398 108.784668 L 67.608398 108.005859 L 68.596680 108.005859 Z " fill="rgb(0, 0, 0)" fill-opacity="1.000000" />
<path d="M 82.435547 106.254883 L 82.435547 107.355957 Q 81.941406 107.039062 81.444580 106.877930 Q 80.947754 106.716797 80.442871 106.716797 Q 79.674805 106.716797 79.229004 107.073975 Q 78.783203 107.431152 78.783203 108.038086 Q 78.783203 108.569824 79.075928 108.849121 Q 79.368652 109.128418 80.168945 109.316406 L 80.738281 109.445312 Q 81.866211 109.708496 82.381836 110.272461 Q 82.897461 110.836426 82.897461 111.808594 Q 82.897461 112.952637 82.188477 113.554199 Q 81.479492 114.155762 80.125977 114.155762 Q 79.562012 114.155762 78.992676 114.034912 Q 78.423340 113.914062 77.848633 113.672363 L 77.848633 112.517578 Q 78.466309 112.909668 79.016846 113.092285 Q 79.567383 113.274902 80.125977 113.274902 Q 80.947754 113.274902 81.404297 112.906982 Q 81.860840 112.539062 81.860840 111.878418 Q 81.860840 111.276855 81.546631 110.959961 Q 81.232422 110.643066 80.453613 110.471191 L 79.873535 110.336914 Q 78.756348 110.084473 78.251465 109.574219 Q 77.746582 109.063965 77.746582 108.204590 Q 77.746582 107.130371 78.468994 106.483154 Q 79.191406 105.835938 80.389160 105.835938 Q 80.851074 105.835938 81.361328 105.940674 Q 81.871582 106.045410 82.435547 106.254883 Z " fill="rgb(0, 0, 0)" fill-opacity="1.000000" />
<path d="M 88.608398 112.066406 Q 88.361328 112.694824 87.979980 113.720703 Q 87.448242 115.138672 87.265625 115.450195 Q 87.018555 115.869141 86.647949 116.078613 Q 86.277344 116.288086 85.783203 116.288086 L 84.988281 116.288086 L 84.988281 115.460938 L 85.573730 115.460938 Q 86.008789 115.460938 86.255859 115.208496 Q 86.502930 114.956055 86.884277 113.903320 L 84.558594 107.984375 L 85.605957 107.984375 L 87.389160 112.689453 L 89.145508 107.984375 L 90.192871 107.984375 Z " fill="rgb(0, 0, 0)" fill-opacity="1.000000" />
<path d="M 96.226074 108.193848 L 96.226074 109.160645 Q 95.801758 108.913574 95.372070 108.790039 Q 94.942383 108.666504 94.496582 108.666504 Q 93.825195 108.666504 93.494873 108.884033 Q 93.164551 109.101562 93.164551 109.547363 Q 93.164551 109.950195 93.411621 110.148926 Q 93.658691 110.347656 94.641602 110.535645 L 95.039062 110.610840 Q 95.774902 110.750488 96.153564 111.169434 Q 96.532227 111.588379 96.532227 112.259766 Q 96.532227 113.151367 95.898438 113.653564 Q 95.264648 114.155762 94.136719 114.155762 Q 93.690918 114.155762 93.202148 114.061768 Q 92.713379 113.967773 92.144043 113.779785 L 92.144043 112.759277 Q 92.697266 113.043945 93.202148 113.186279 Q 93.707031 113.328613 94.158203 113.328613 Q 94.813477 113.328613 95.173340 113.062744 Q 95.533203 112.796875 95.533203 112.318848 Q 95.533203 111.631348 94.217285 111.368164 L 94.174316 111.357422 L 93.803711 111.282227 Q 92.949707 111.115723 92.557617 110.720947 Q 92.165527 110.326172 92.165527 109.644043 Q 92.165527 108.779297 92.750977 108.309326 Q 93.336426 107.839355 94.421387 107.839355 Q 94.904785 107.839355 95.350586 107.927979 Q 95.796387 108.016602 96.226074 108.193848 Z " fill="rgb(0, 0, 0)" fill-opacity="1.000000" />
<path d="M 101.297852 106.276367 L 101.297852 107.984375 L 103.542969 107.984375 L 103.542969 108.752441 L 101.297852 108.752441 L 101.297852 112.018066 Q 101.297852 112.684082 101.550293 112.947266 Q 101.802734 113.210449 102.431152 113.210449 L 103.542969 113.210449 L 103.542969 114.000000 L 102.334473 114.000000 Q 101.222656 114.000000 100.766113 113.554199 Q 100.309570 113.108398 100.309570 112.018066 L 100.309570 108.752441 L 98.703613 108.752441 L 98.703613 107.984375 L 100.309570 107.984375 L 100.309570 106.276367 Z " fill="rgb(0, 0, 0)" fill-opacity="1.000000" />
<path d="M 111.015625 110.498047 L 111.015625 110.981445 L 106.734863 110.981445 L 106.734863 111.013672 Q 106.691895 112.243652 107.204834 112.780762 Q 107.717773 113.317871 108.652344 113.317871 Q 109.125000 113.317871 109.640625 113.167480 Q 110.156250 113.017090 110.741699 112.710938 L 110.741699 113.693848 Q 110.177734 113.924805 109.654053 114.040283 Q 109.130371 114.155762 108.641602 114.155762 Q 107.239746 114.155762 106.450195 113.315186 Q 105.660645 112.474609 105.660645 110.997559 Q 105.660645 109.558105 106.434082 108.698730 Q 107.207520 107.839355 108.496582 107.839355 Q 109.645996 107.839355 110.309326 108.618164 Q 110.972656 109.396973 111.015625 110.498047 Z M 110.027344 110.208008 Q 109.962891 109.584961 109.573486 109.131104 Q 109.184082 108.677246 108.453613 108.677246 Q 107.739258 108.677246 107.277344 109.149902 Q 106.815430 109.622559 106.772461 110.213379 Z " fill="rgb(0, 0, 0)" fill-opacity="1.000000" />
<path d="M 115.630859 108.596680 Q 115.813477 108.209961 116.095459 108.024658 Q 116.377441 107.839355 116.774902 107.839355 Q 117.500000 107.839355 117.798096 108.400635 Q 118.096191 108.961914 118.096191 110.514160 L 118.096191 114.000000 L 117.193848 114.000000 L 117.193848 110.557129 Q 117.193848 109.284180 117.051514 108.975342 Q 116.909180 108.666504 116.533203 108.666504 Q 116.103516 108.666504 115.945068 108.996826 Q 115.786621 109.327148 115.786621 110.557129 L 115.786621 114.000000 L 114.884277 114.000000 L 114.884277 110.557129 Q 114.884277 109.268066 114.731201 108.967285 Q 114.578125 108.666504 114.180664 108.666504 Q 113.788574 108.666504 113.635498 108.996826 Q 113.482422 109.327148 113.482422 110.557129 L 113.482422 114.000000 L 112.585449 114.000000 L 112.585449 107.984375 L 113.482422 107.984375 L 113.482422 108.500000 Q 113.659668 108.177734 113.925537 108.008545 Q 114.191406 107.839355 114.529785 107.839355 Q 114.937988 107.839355 115.209229 108.027344 Q 115.480469 108.215332 115.630859 108.596680 Z " fill="rgb(0, 0, 0)" fill-opacity="1.000000" />
<path d="M 121.878906 117.319336 L 121.878906 103.300781 L 122.738281 103.300781 L 122.738281 117.319336 Z " fill="rgb(0, 0, 0)" fill-opacity="1.000000" />
<path d="M 6.892578 98.335938 L 6.892578 97.412109 L 13.729980 97.412109 L 13.729980 98.335938 Z " fill="rgb(0, 0, 0)" fill-opacity="1.000000" />
<path d="M 13.892578 98.335938 L 13.892578 97.412109 L 20.729980 97.412109 L 20.729980 98.335938 Z " fill="rgb(0, 0, 0)" fill-opacity="1.000000" />
<path d="M 20.892578 98.335938 L 20.892578 97.412109 L 27.729980 97.412109 L 27.729980 98.335938 Z " fill="rgb(0, 0, 0)" fill-opacity="1.000000" />
<path d="M 27.892578 98.335938 L 27.892578 97.412109 L 34.729980 97.412109 L 34.729980 98.335938 Z " fill="rgb(0, 0, 0)" fill-opacity="1.000000" />
<path d="M 34.892578 98.335938 L 34.892578 97.412109 L 41.729980 97.412109 L 41.729980 98.335938 Z " fill="rgb(0, 0, 0)" fill-opacity="1.000000" />
<path d="M 41.892578 98.335938 L 41.892578 97.412109 L 48.729980 97.412109 L 48.729980 98.335938 Z " fill="rgb(0, 0, 0)" fill-opacity="1.000000" />
<path d="M 48.892578 98.335938 L 48.892578 97.412109 L 55.729980 97.412109 L 55.729980 98.335938 Z " fill="rgb(0, 0, 0)" fill-opacity="1.000000" />
<path d="M 55.892578 98.335938 L 55.892578 97.412109 L 62.729980 97.412109 L 62.729980 98.335938 Z " fill="rgb(0, 0, 0)" fill-opacity="1.000000" />
<path d="M 62.892578 98.335938 L 62.892578 97.412109 L 69.729980 97.412109 L 69.729980 98.335938 Z " fill="rgb(0, 0, 0)" fill-opacity="1.000000" />
<path d="M 69.892578 98.335938 L 69.892578 97.412109 L 76.729980 97.412109 L 76.729980 98.335938 Z " fill="rgb(0, 0, 0)" fill-opacity="1.000000" />
<path d="M 76.892578 98.335938 L 76.892578 97.412109 L 83.729980 97.412109 L 83.729980 98.335938 Z " fill="rgb(0, 0, 0)" fill-opacity="1.000000" />
<path d="M 83.892578 98.335938 L 83.892578 97.412109 L 90.729980 97.412109 L 90.729980 98.335938 Z " fill="rgb(0, 0, 0)" fill-opacity="1.000000" />
<path d="M 90.892578 98.335938 L 90.892578 97.412109 L 97.729980 97.412109 L 97.729980 98.335938 Z " fill="rgb(0, 0, 0)" fill-opacity="1.000000" />
<path d="M 97.892578 98.335938 L 97.892578 97.412109 L 104.729980 97.412109 L 104.729980 98.335938 Z " fill="rgb(0, 0, 0)" fill-opacity="1.000000" />
<path d="M 104.892578 98.335938 L 104.892578 97.412109 L 111.729980 97.412109 L 111.729980 98.335938 Z " fill="rgb(0, 0, 0)" fill-opacity="1.000000" />
<path d="M 111.892578 98.335938 L 111.892578 97.412109 L 118.729980 97.412109 L 118.729980 98.335938 Z " fill="rgb(0, 0, 0)" fill-opacity="1.000000" />
<path d="M 121.878906 104.319336 L 121.878906 98.335938 L 118.892578 98.335938 L 118.892578 97.412109 L 121.878906 97.412109 L 121.878906 90.300781 L 122.738281 90.300781 L 122.738281 104.319336 Z " fill="rgb(0, 0, 0)" fill-opacity="1.000000" />
<path d="M 39.082031 84.213379 Q 39.500977 84.320801 39.796387 84.618896 Q 40.091797 84.916992 40.532227 85.808594 L 41.622559 88.000000 L 40.457031 88.000000 L 39.500977 85.975098 Q 39.087402 85.110352 38.757080 84.860596 Q 38.426758 84.610840 37.895020 84.610840 L 36.858398 84.610840 L 36.858398 88.000000 L 35.768066 88.000000 L 35.768066 79.980957 L 38.002441 79.980957 Q 39.323730 79.980957 40.027344 80.577148 Q 40.730957 81.173340 40.730957 82.301270 Q 40.730957 83.096191 40.298584 83.598389 Q 39.866211 84.100586 39.082031 84.213379 Z M 36.858398 80.872559 L 36.858398 83.719238 L 38.045410 83.719238 Q 38.824219 83.719238 39.205566 83.370117 Q 39.586914 83.020996 39.586914 82.301270 Q 39.586914 81.608398 39.181396 81.240479 Q 38.775879 80.872559 38.002441 80.872559 Z " fill="rgb(0, 0, 0)" fill-opacity="1.000000" />
<path d="M 43.047363 85.722656 L 43.047363 81.995117 L 44.035645 81.995117 L 44.035645 85.722656 Q 44.035645 86.533691 44.322998 86.915039 Q 44.610352 87.296387 45.211914 87.296387 Q 45.910156 87.296387 46.280762 86.804932 Q 46.651367 86.313477 46.651367 85.395020 L 46.651367 81.995117 L 47.645020 81.995117 L 47.645020 88.000000 L 46.651367 88.000000 L 46.651367 87.097656 Q 46.388184 87.618652 45.934326 87.887207 Q 45.480469 88.155762 44.873535 88.155762 Q 43.949707 88.155762 43.498535 87.551514 Q 43.047363 86.947266 43.047363 85.722656 Z " fill="rgb(0, 0, 0)" fill-opacity="1.000000" />
<path d="M 54.645020 84.272461 L 54.645020 88.000000 L 53.651367 88.000000 L 53.651367 84.272461 Q 53.651367 83.461426 53.366699 83.080078 Q 53.082031 82.698730 52.475098 82.698730 Q 51.782227 82.698730 51.408936 83.190186 Q 51.035645 83.681641 51.035645 84.600098 L 51.035645 88.000000 L 50.047363 88.000000 L 50.047363 81.984375 L 51.035645 81.984375 L 51.035645 82.886719 Q 51.298828 82.371094 51.750000 82.105225 Q 52.201172 81.839355 52.818848 81.839355 Q 53.737305 81.839355 54.191162 82.443604 Q 54.645020 83.047852 54.645020 84.272461 Z " fill="rgb(0, 0, 0)" fill-opacity="1.000000" />
<path d="M 59.297852 80.276367 L 59.297852 81.984375 L 61.542969 81.984375 L 61.542969 82.752441 L 59.297852 82.752441 L 59.297852 86.018066 Q 59.297852 86.684082 59.550293 86.947266 Q 59.802734 87.210449 60.431152 87.210449 L 61.542969 87.210449 L 61.542969 88.000000 L 60.334473 88.000000 Q 59.222656 88.000000 58.766113 87.554199 Q 58.309570 87.108398 58.309570 86.018066 L 58.309570 82.752441 L 56.703613 82.752441 L 56.703613 81.984375 L 58.309570 81.984375 L 58.309570 80.276367 Z " fill="rgb(0, 0, 0)" fill-opacity="1.000000" />
<path d="M 64.697266 82.005859 L 67.227051 82.005859 L 67.227051 87.231934 L 69.187500 87.231934 L 69.187500 88.000000 L 64.278320 88.000000 L 64.278320 87.231934 L 66.238770 87.231934 L 66.238770 82.773926 L 64.697266 82.773926 Z M 66.238770 79.669434 L 67.227051 79.669434 L 67.227051 80.915527 L 66.238770 80.915527 Z " fill="rgb(0, 0, 0)" fill-opacity="1.000000" />
<path d="M 73.630859 82.596680 Q 73.813477 82.209961 74.095459 82.024658 Q 74.377441 81.839355 74.774902 81.839355 Q 75.500000 81.839355 75.798096 82.400635 Q 76.096191 82.961914 76.096191 84.514160 L 76.096191 88.000000 L 75.193848 88.000000 L 75.193848 84.557129 Q 75.193848 83.284180 75.051514 82.975342 Q 74.909180 82.666504 74.533203 82.666504 Q 74.103516 82.666504 73.945068 82.996826 Q 73.786621 83.327148 73.786621 84.557129 L 73.786621 88.000000 L 72.884277 88.000000 L 72.884277 84.557129 Q 72.884277 83.268066 72.731201 82.967285 Q 72.578125 82.666504 72.180664 82.666504 Q 71.788574 82.666504 71.635498 82.996826 Q 71.482422 83.327148 71.482422 84.557129 L 71.482422 88.000000 L 70.585449 88.000000 L 70.585449 81.984375 L 71.482422 81.984375 L 71.482422 82.500000 Q 71.659668 82.177734 71.925537 82.008545 Q 72.191406 81.839355 72.529785 81.839355 Q 72.937988 81.839355 73.209229 82.027344 Q 73.480469 82.215332 73.630859 82.596680 Z " fill="rgb(0, 0, 0)" fill-opacity="1.000000" />
<path d="M 83.015625 84.498047 L 83.015625 84.981445 L 78.734863 84.981445 L 78.734863 85.013672 Q 78.691895 86.243652 79.204834 86.780762 Q 79.717773 87.317871 80.652344 87.317871 Q 81.125000 87.317871 81.640625 87.167480 Q 82.156250 87.017090 82.741699 86.710938 L 82.741699 87.693848 Q 82.177734 87.924805 81.654053 88.040283 Q 81.130371 88.155762 80.641602 88.155762 Q 79.239746 88.155762 78.450195 87.315186 Q 77.660645 86.474609 77.660645 84.997559 Q 77.660645 83.558105 78.434082 82.698730 Q 79.207520 81.839355 80.496582 81.839355 Q 81.645996 81.839355 82.309326 82.618164 Q 82.972656 83.396973 83.015625 84.498047 Z M 82.027344 84.208008 Q 81.962891 83.584961 81.573486 83.131104 Q 81.184082 82.677246 80.453613 82.677246 Q 79.739258 82.677246 79.277344 83.149902 Q 78.815430 83.622559 78.772461 84.213379 Z " fill="rgb(0, 0, 0)" fill-opacity="1.000000" />
<path d="M 121.878906 91.319336 L 121.878906 77.300781 L 122.738281 77.300781 L 122.738281 91.319336 Z " fill="rgb(0, 0, 0)" fill-opacity="1.000000" />
<path d="M 6.892578 72.335938 L 6.892578 71.412109 L 13.729980 71.412109 L 13.729980 72.335938 Z " fill="rgb(0, 0, 0)" fill-opacity="1.000000" />
<path d="M 13.892578 72.335938 L 13.892578 71.412109 L 20.729980 71.412109 L 20.729980 72.335938 Z " fill="rgb(0, 0, 0)" fill-opacity="1.000000" />
<path d="M 20.892578 72.335938 L 20.892578 71.412109 L 27.729980 71.412109 L 27.729980 72.335938 Z " fill="rgb(0, 0, 0)" fill-opacity="1.000000" />
<path d="M 27.892578 72.335938 L 27.892578 71.412109 L 34.729980 71.412109 L 34.729980 72.335938 Z " fill="rgb(0, 0, 0)" fill-opacity="1.000000" />
<path d="M 34.892578 72.335938 L 34.892578 71.412109 L 41.729980 71.412109 L 41.729980 72.335938 Z " fill="rgb(0, 0, 0)" fill-opacity="1.000000" />
<path d="M 41.892578 72.335938 L 41.892578 71.412109 L 48.729980 71.412109 L 48.729980 72.335938 Z " fill="rgb(0, 0, 0)" fill-opacity="1.000000" />
<path d="M 48.892578 72.335938 L 48.892578 71.412109 L 55.729980 71.412109 L 55.729980 72.335938 Z " fill="rgb(0, 0, 0)" fill-opacity="1.000000" />
<path d="M 55.892578 72.335938 L 55.892578 71.412109 L 62.729980 71.412109 L 62.729980 72.335938 Z " fill="rgb(0, 0, 0)" fill-opacity="1.000000" />
<path d="M 62.892578 72.335938 L 62.892578 71.412109 L 69.729980 71.412109 L 69.729980 72.335938 Z " fill="rgb(0, 0, 0)" fill-opacity="1.000000" />
<path d="M 69.892578 72.335938 L 69.892578 71.412109 L 76.729980 71.412109 L 76.729980 72.335938 Z " fill="rgb(0, 0, 0)" fill-opacity="1.000000" />
<path d="M 76.892578 72.335938 L 76.892578 71.412109 L 83.729980 71.412109 L 83.729980 72.335938 Z " fill="rgb(0, 0, 0)" fill-opacity="1.000000" />
<path d="M 83.892578 72.335938 L 83.892578 71.412109 L 90.729980 71.412109 L 90.729980 72.335938 Z " fill="rgb(0, 0, 0)" fill-opacity="1.000000" />
<path d="M 90.892578 72.335938 L 90.892578 71.412109 L 97.729980 71.412109 L 97.729980 72.335938 Z " fill="rgb(0, 0, 0)" fill-opacity="1.000000" />
<path d="M 97.892578 72.335938 L 97.892578 71.412109 L 104.729980 71.412109 L 104.729980 72.335938 Z " fill="rgb(0, 0, 0)" fill-opacity="1.000000" />
<path d="M 104.892578 72.335938 L 104.892578 71.412109 L 111.729980 71.412109 L 111.729980 72.335938 Z " fill="rgb(0, 0, 0)" fill-opacity="1.000000" />
<path d="M 111.892578 72.335938 L 111.892578 71.412109 L 118.729980 71.412109 L 118.729980 72.335938 Z " fill="rgb(0, 0, 0)" fill-opacity="1.000000" />
<path d="M 121.878906 78.319336 L 121.878906 72.335938 L 118.892578 72.335938 L 118.892578 71.412109 L 122.738281 71.412109 L 122.738281 78.319336 Z " fill="rgb(0, 0, 0)" fill-opacity="1.000000" />
<path d="M 6.892578 59.797852 L 6.892578 57.950195 L 13.729980 57.950195 L 13.729980 59.797852 Z " fill="rgb(0, 0, 0)" fill-opacity="1.000000" />
<path d="M 13.892578 59.797852 L 13.892578 57.950195 L 20.729980 57.950195 L 20.729980 59.797852 Z " fill="rgb(0, 0, 0)" fill-opacity="1.000000" />
<path d="M 20.892578 59.797852 L 20.892578 57.950195 L 27.729980 57.950195 L 27.729980 59.797852 Z " fill="rgb(0, 0, 0)" fill-opacity="1.000000" />
<path d="M 27.892578 59.797852 L 27.892578 57.950195 L 34.729980 57.950195 L 34.729980 59.797852 Z " fill="rgb(0, 0, 0)" fill-opacity="1.000000" />
<path d="M 34.892578 59.797852 L 34.892578 57.950195 L 41.729980 57.950195 L 41.729980 59.797852 Z " fill="rgb(0, 0, 0)" fill-opacity="1.000000" />
<path d="M 41.892578 59.797852 L 41.892578 57.950195 L 48.729980 57.950195 L 48.729980 59.797852 Z " fill="rgb(0, 0, 0)" fill-opacity="1.000000" />
<path d="M 48.892578 59.797852 L 48.892578 57.950195 L 55.729980 57.950195 L 55.729980 59.797852 Z " fill="rgb(0, 0, 0)" fill-opacity="1.000000" />
<path d="M 55.892578 59.797852 L 55.892578 57.950195 L 62.729980 57.950195 L 62.729980 59.797852 Z " fill="rgb(0, 0, 0)" fill-opacity="1.000000" />
<path d="M 62.892578 59.797852 L 62.892578 57.950195 L 69.729980 57.950195 L 69.729980 59.797852 Z " fill="rgb(0, 0, 0)" fill-opacity="1.000000" />
<path d="M 69.892578 59.797852 L 69.892578 57.950195 L 76.729980 57.950195 L 76.729980 59.797852 Z " fill="rgb(0, 0, 0)" fill-opacity="1.000000" />
<path d="M 76.892578 59.797852 L 76.892578 57.950195 L 83.729980 57.950195 L 83.729980 59.797852 Z " fill="rgb(0, 0, 0)" fill-opacity="1.000000" />
<path d="M 83.892578 59.797852 L 83.892578 57.950195 L 90.729980 57.950195 L 90.729980 59.797852 Z " fill="rgb(0, 0, 0)" fill-opacity="1.000000" />
<path d="M 90.892578 59.797852 L 90.892578 57.950195 L 97.729980 57.950195 L 97.729980 59.797852 Z " fill="rgb(0, 0, 0)" fill-opacity="1.000000" />
<path d="M 97.892578 59.797852 L 97.892578 57.950195 L 104.729980 57.950195 L 104.729980 59.797852 Z " fill="rgb(0, 0, 0)" fill-opacity="1.000000" />
<path d="M 104.892578 59.797852 L 104.892578 57.950195 L 111.729980 57.950195 L 111.729980 59.797852 Z " fill="rgb(0, 0, 0)" fill-opacity="1.000000" />
<path d="M 111.892578 59.797852 L 111.892578 57.950195 L 118.729980 57.950195 L 118.729980 59.797852 Z " fill="rgb(0, 0, 0)" fill-opacity="1.000000" />
<path d="M 118.892578 59.797852 L 118.892578 57.950195 L 121.449219 57.950195 L 121.449219 51.300781 L 123.167969 51.300781 L 123.167969 59.797852 Z " fill="rgb(0, 0, 0)" fill-opacity="1.000000" />
<path d="M 132.892578 59.335938 L 132.892578 58.412109 L 139.729980 58.412109 L 139.729980 59.335938 Z " fill="rgb(0, 0, 0)" fill-opacity="1.000000" />
<path d="M 139.892578 59.335938 L 139.892578 58.412109 L 146.729980 58.412109 L 146.729980 59.335938 Z " fill="rgb(0, 0, 0)" fill-opacity="1.000000" />
<path d="M 146.892578 59.335938 L 146.892578 58.412109 L 149.878906 58.412109 L 149.878906 51.300781 L 150.738281 51.300781 L 150.738281 59.335938 Z " fill="rgb(0, 0, 0)" fill-opacity="1.000000" />
<path d="M 24.308594 41.937012 L 23.164551 46.040527 L 25.452637 46.040527 Z M 23.653320 40.980957 L 24.969238 40.980957 L 27.423828 49.000000 L 26.301270 49.000000 L 25.710449 46.910645 L 22.901367 46.910645 L 22.321289 49.000000 L 21.198730 49.000000 Z " fill="rgb(0, 0, 0)" fill-opacity="1.000000" />
<path d="M 30.014160 48.242676 L 30.014160 51.288086 L 29.020508 51.288086 L 29.020508 42.984375 L 30.014160 42.984375 L 30.014160 43.752441 Q 30.261230 43.306641 30.672119 43.072998 Q 31.083008 42.839355 31.620117 42.839355 Q 32.710449 42.839355 33.330811 43.682617 Q 33.951172 44.525879 33.951172 46.019043 Q 33.951172 47.485352 33.328125 48.320557 Q 32.705078 49.155762 31.620117 49.155762 Q 31.072266 49.155762 30.661377 48.922119 Q 30.250488 48.688477 30.014160 48.242676 Z M 32.914551 45.997559 Q 32.914551 44.848145 32.552002 44.262695 Q 32.189453 43.677246 31.475098 43.677246 Q 30.755371 43.677246 30.384766 44.265381 Q 30.014160 44.853516 30.014160 45.997559 Q 30.014160 47.136230 30.384766 47.727051 Q 30.755371 48.317871 31.475098 48.317871 Q 32.189453 48.317871 32.552002 47.732422 Q 32.914551 47.146973 32.914551 45.997559 Z " fill="rgb(0, 0, 0)" fill-opacity="1.000000" />
<path d="M 37.014160 48.242676 L 37.014160 51.288086 L 36.020508 51.288086 L 36.020508 42.984375 L 37.014160 42.984375 L 37.014160 43.752441 Q 37.261230 43.306641 37.672119 43.072998 Q 38.083008 42.839355 38.620117 42.839355 Q 39.710449 42.839355 40.330811 43.682617 Q 40.951172 44.525879 40.951172 46.019043 Q 40.951172 47.485352 40.328125 48.320557 Q 39.705078 49.155762 38.620117 49.155762 Q 38.072266 49.155762 37.661377 48.922119 Q 37.250488 48.688477 37.014160 48.242676 Z M 39.914551 45.997559 Q 39.914551 44.848145 39.552002 44.262695 Q 39.189453 43.677246 38.475098 43.677246 Q 37.755371 43.677246 37.384766 44.265381 Q 37.014160 44.853516 37.014160 45.997559 Q 37.014160 47.136230 37.384766 47.727051 Q 37.755371 48.317871 38.475098 48.317871 Q 39.189453 48.317871 39.552002 47.732422 Q 39.914551 47.146973 39.914551 45.997559 Z " fill="rgb(0, 0, 0)" fill-opacity="1.000000" />
<path d="M 45.861816 46.824707 Q 45.861816 47.490723 46.106201 47.829102 Q 46.350586 48.167480 46.828613 48.167480 L 47.983398 48.167480 L 47.983398 49.000000 L 46.731934 49.000000 Q 45.845703 49.000000 45.359619 48.433350 Q 44.873535 47.866699 44.873535 46.824707 L 44.873535 41.383789 L 43.289062 41.383789 L 43.289062 40.610352 L 45.861816 40.610352 Z " fill="rgb(0, 0, 0)" fill-opacity="1.000000" />
<path d="M 50.697266 43.005859 L 53.227051 43.005859 L 53.227051 48.231934 L 55.187500 48.231934 L 55.187500 49.000000 L 50.278320 49.000000 L 50.278320 48.231934 L 52.238770 48.231934 L 52.238770 43.773926 L 50.697266 43.773926 Z M 52.238770 40.669434 L 53.227051 40.669434 L 53.227051 41.915527 L 52.238770 41.915527 Z " fill="rgb(0, 0, 0)" fill-opacity="1.000000" />
<path d="M 61.698730 48.693848 Q 61.301270 48.924805 60.879639 49.040283 Q 60.458008 49.155762 60.017578 49.155762 Q 58.621094 49.155762 57.834229 48.317871 Q 57.047363 47.479980 57.047363 45.997559 Q 57.047363 44.515137 57.834229 43.677246 Q 58.621094 42.839355 60.017578 42.839355 Q 60.452637 42.839355 60.866211 42.952148 Q 61.279785 43.064941 61.698730 43.301270 L 61.698730 44.337891 Q 61.306641 43.988770 60.911865 43.833008 Q 60.517090 43.677246 60.017578 43.677246 Q 59.088379 43.677246 58.588867 44.278809 Q 58.089355 44.880371 58.089355 45.997559 Q 58.089355 47.109375 58.591553 47.713623 Q 59.093750 48.317871 60.017578 48.317871 Q 60.533203 48.317871 60.941406 48.159424 Q 61.349609 48.000977 61.698730 47.667969 Z " fill="rgb(0, 0, 0)" fill-opacity="1.000000" />
<path d="M 66.770508 45.976074 L 66.442871 45.976074 Q 65.578125 45.976074 65.140381 46.279541 Q 64.702637 46.583008 64.702637 47.184570 Q 64.702637 47.727051 65.030273 48.027832 Q 65.357910 48.328613 65.937988 48.328613 Q 66.754395 48.328613 67.221680 47.761963 Q 67.688965 47.195312 67.694336 46.196289 L 67.694336 45.976074 Z M 68.687988 45.567871 L 68.687988 49.000000 L 67.694336 49.000000 L 67.694336 48.108398 Q 67.377441 48.645508 66.896729 48.900635 Q 66.416016 49.155762 65.728516 49.155762 Q 64.810059 49.155762 64.262207 48.637451 Q 63.714355 48.119141 63.714355 47.249023 Q 63.714355 46.244629 64.388428 45.723633 Q 65.062500 45.202637 66.367676 45.202637 L 67.694336 45.202637 L 67.694336 45.046875 Q 67.688965 44.327148 67.329102 44.002197 Q 66.969238 43.677246 66.179688 43.677246 Q 65.674805 43.677246 65.159180 43.822266 Q 64.643555 43.967285 64.154785 44.246582 L 64.154785 43.258301 Q 64.702637 43.048828 65.204834 42.944092 Q 65.707031 42.839355 66.179688 42.839355 Q 66.926270 42.839355 67.455322 43.059570 Q 67.984375 43.279785 68.312012 43.720215 Q 68.516113 43.988770 68.602051 44.383545 Q 68.687988 44.778320 68.687988 45.567871 Z " fill="rgb(0, 0, 0)" fill-opacity="1.000000" />
<path d="M 73.297852 41.276367 L 73.297852 42.984375 L 75.542969 42.984375 L 75.542969 43.752441 L 73.297852 43.752441 L 73.297852 47.018066 Q 73.297852 47.684082 73.550293 47.947266 Q 73.802734 48.210449 74.431152 48.210449 L 75.542969 48.210449 L 75.542969 49.000000 L 74.334473 49.000000 Q 73.222656 49.000000 72.766113 48.554199 Q 72.309570 48.108398 72.309570 47.018066 L 72.309570 43.752441 L 70.703613 43.752441 L 70.703613 42.984375 L 72.309570 42.984375 L 72.309570 41.276367 Z " fill="rgb(0, 0, 0)" fill-opacity="1.000000" />
<path d="M 78.697266 43.005859 L 81.227051 43.005859 L 81.227051 48.231934 L 83.187500 48.231934 L 83.187500 49.000000 L 78.278320 49.000000 L 78.278320 48.231934 L 80.238770 48.231934 L 80.238770 43.773926 L 78.697266 43.773926 Z M 80.238770 40.669434 L 81.227051 40.669434 L 81.227051 41.915527 L 80.238770 41.915527 Z " fill="rgb(0, 0, 0)" fill-opacity="1.000000" />
<path d="M 87.308594 43.677246 Q 86.556641 43.677246 86.169922 44.262695 Q 85.783203 44.848145 85.783203 45.997559 Q 85.783203 47.141602 86.169922 47.729736 Q 86.556641 48.317871 87.308594 48.317871 Q 88.065918 48.317871 88.452637 47.729736 Q 88.839355 47.141602 88.839355 45.997559 Q 88.839355 44.848145 88.452637 44.262695 Q 88.065918 43.677246 87.308594 43.677246 Z M 87.308594 42.839355 Q 88.560059 42.839355 89.223389 43.650391 Q 89.886719 44.461426 89.886719 45.997559 Q 89.886719 47.539062 89.226074 48.347412 Q 88.565430 49.155762 87.308594 49.155762 Q 86.057129 49.155762 85.396484 48.347412 Q 84.735840 47.539062 84.735840 45.997559 Q 84.735840 44.461426 85.396484 43.650391 Q 86.057129 42.839355 87.308594 42.839355 Z " fill="rgb(0, 0, 0)" fill-opacity="1.000000" />
<path d="M 96.645020 45.272461 L 96.645020 49.000000 L 95.651367 49.000000 L 95.651367 45.272461 Q 95.651367 44.461426 95.366699 44.080078 Q 95.082031 43.698730 94.475098 43.698730 Q 93.782227 43.698730 93.408936 44.190186 Q 93.035645 44.681641 93.035645 45.600098 L 93.035645 49.000000 L 92.047363 49.000000 L 92.047363 42.984375 L 93.035645 42.984375 L 93.035645 43.886719 Q 93.298828 43.371094 93.750000 43.105225 Q 94.201172 42.839355 94.818848 42.839355 Q 95.737305 42.839355 96.191162 43.443604 Q 96.645020 44.047852 96.645020 45.272461 Z " fill="rgb(0, 0, 0)" fill-opacity="1.000000" />
<path d="M 121.449219 52.319336 L 121.449219 38.300781 L 123.167969 38.300781 L 123.167969 52.319336 Z " fill="rgb(0, 0, 0)" fill-opacity="1.000000" />
<path d="M 149.878906 52.319336 L 149.878906 38.300781 L 150.738281 38.300781 L 150.738281 52.319336 Z " fill="rgb(0, 0, 0)" fill-opacity="1.000000" />
<path d="M 6.892578 33.797852 L 6.892578 31.950195 L 13.729980 31.950195 L 13.729980 33.797852 Z " fill="rgb(0, 0, 0)" fill-opacity="1.000000" />
<path d="M 13.892578 33.797852 L 13.892578 31.950195 L 20.729980 31.950195 L 20.729980 33.797852 Z " fill="rgb(0, 0, 0)" fill-opacity="1.000000" />
<path d="M 20.892578 33.797852 L 20.892578 31.950195 L 27.729980 31.950195 L 27.729980 33.797852 Z " fill="rgb(0, 0, 0)" fill-opacity="1.000000" />
<path d="M 27.892578 33.797852 L 27.892578 31.950195 L 34.729980 31.950195 L 34.729980 33.797852 Z " fill="rgb(0, 0, 0)" fill-opacity="1.000000" />
<path d="M 34.892578 33.797852 L 34.892578 31.950195 L 41.729980 31.950195 L 41.729980 33.797852 Z " fill="rgb(0, 0, 0)" fill-opacity="1.000000" />
<path d="M 41.892578 33.797852 L 41.892578 31.950195 L 48.729980 31.950195 L 48.729980 33.797852 Z " fill="rgb(0, 0, 0)" fill-opacity="1.000000" />
<path d="M 48.892578 33.797852 L 48.892578 31.950195 L 55.729980 31.950195 L 55.729980 33.797852 Z " fill="rgb(0, 0, 0)" fill-opacity="1.000000" />
<path d="M 55.892578 33.797852 L 55.892578 31.950195 L 62.729980 31.950195 L 62.729980 33.797852 Z " fill="rgb(0, 0, 0)" fill-opacity="1.000000" />
<path d="M 62.892578 33.797852 L 62.892578 31.950195 L 69.729980 31.950195 L 69.729980 33.797852 Z " fill="rgb(0, 0, 0)" fill-opacity="1.000000" />
<path d="M 69.892578 33.797852 L 69.892578 31.950195 L 76.729980 31.950195 L 76.729980 33.797852 Z " fill="rgb(0, 0, 0)" fill-opacity="1.000000" />
<path d="M 76.892578 33.797852 L 76.892578 31.950195 L 83.729980 31.950195 L 83.729980 33.797852 Z " fill="rgb(0, 0, 0)" fill-opacity="1.000000" />
<path d="M 83.892578 33.797852 L 83.892578 31.950195 L 90.729980 31.950195 L 90.729980 33.797852 Z " fill="rgb(0, 0, 0)" fill-opacity="1.000000" />
<path d="M 90.892578 33.797852 L 90.892578 31.950195 L 97.729980 31.950195 L 97.729980 33.797852 Z " fill="rgb(0, 0, 0)" fill-opacity="1.000000" />
<path d="M 97.892578 33.797852 L 97.892578 31.950195 L 104.729980 31.950195 L 104.729980 33.797852 Z " fill="rgb(0, 0, 0)" fill-opacity="1.000000" />
<path d="M 104.892578 33.797852 L 104.892578 31.950195 L 111.729980 31.950195 L 111.729980 33.797852 Z " fill="rgb(0, 0, 0)" fill-opacity="1.000000" />
<path d="M 111.892578 33.797852 L 111.892578 31.950195 L 118.729980 31.950195 L 118.729980 33.797852 Z " fill="rgb(0, 0, 0)" fill-opacity="1.000000" />
<path d="M 121.449219 39.319336 L 121.449219 33.797852 L 118.892578 33.797852 L 118.892578 31.950195 L 121.449219 31.950195 L 121.449219 25.300781 L 123.167969 25.300781 L 123.167969 39.319336 Z " fill="rgb(0, 0, 0)" fill-opacity="1.000000" />
<path d="M 149.878906 39.319336 L 149.878906 25.300781 L 150.738281 25.300781 L 150.738281 39.319336 Z " fill="rgb(0, 0, 0)" fill-opacity="1.000000" />
<path d="M 168.193359 28.007812 L 169.643555 28.007812 L 171.029297 32.079102 L 172.425781 28.007812 L 173.881348 28.007812 L 173.881348 36.000000 L 172.876953 36.000000 L 172.876953 28.937012 L 171.448242 33.147949 L 170.626465 33.147949 L 169.192383 28.937012 L 169.192383 36.000000 L 168.193359 36.000000 Z " fill="rgb(0, 0, 0)" fill-opacity="1.000000" />
<path d="M 178.770508 32.976074 L 178.442871 32.976074 Q 177.578125 32.976074 177.140381 33.279541 Q 176.702637 33.583008 176.702637 34.184570 Q 176.702637 34.727051 177.030273 35.027832 Q 177.357910 35.328613 177.937988 35.328613 Q 178.754395 35.328613 179.221680 34.761963 Q 179.688965 34.195312 179.694336 33.196289 L 179.694336 32.976074 Z M 180.687988 32.567871 L 180.687988 36.000000 L 179.694336 36.000000 L 179.694336 35.108398 Q 179.377441 35.645508 178.896729 35.900635 Q 178.416016 36.155762 177.728516 36.155762 Q 176.810059 36.155762 176.262207 35.637451 Q 175.714355 35.119141 175.714355 34.249023 Q 175.714355 33.244629 176.388428 32.723633 Q 177.062500 32.202637 178.367676 32.202637 L 179.694336 32.202637 L 179.694336 32.046875 Q 179.688965 31.327148 179.329102 31.002197 Q 178.969238 30.677246 178.179688 30.677246 Q 177.674805 30.677246 177.159180 30.822266 Q 176.643555 30.967285 176.154785 31.246582 L 176.154785 30.258301 Q 176.702637 30.048828 177.204834 29.944092 Q 177.707031 29.839355 178.179688 29.839355 Q 178.926270 29.839355 179.455322 30.059570 Q 179.984375 30.279785 180.312012 30.720215 Q 180.516113 30.988770 180.602051 31.383545 Q 180.687988 31.778320 180.687988 32.567871 Z " fill="rgb(0, 0, 0)" fill-opacity="1.000000" />
<path d="M 187.645020 32.272461 L 187.645020 36.000000 L 186.651367 36.000000 L 186.651367 32.272461 Q 186.651367 31.461426 186.366699 31.080078 Q 186.082031 30.698730 185.475098 30.698730 Q 184.782227 30.698730 184.408936 31.190186 Q 184.035645 31.681641 184.035645 32.600098 L 184.035645 36.000000 L 183.047363 36.000000 L 183.047363 29.984375 L 184.035645 29.984375 L 184.035645 30.886719 Q 184.298828 30.371094 184.750000 30.105225 Q 185.201172 29.839355 185.818848 29.839355 Q 186.737305 29.839355 187.191162 30.443604 Q 187.645020 31.047852 187.645020 32.272461 Z " fill="rgb(0, 0, 0)" fill-opacity="1.000000" />
<path d="M 192.770508 32.976074 L 192.442871 32.976074 Q 191.578125 32.976074 191.140381 33.279541 Q 190.702637 33.583008 190.702637 34.184570 Q 190.702637 34.727051 191.030273 35.027832 Q 191.357910 35.328613 191.937988 35.328613 Q 192.754395 35.328613 193.221680 34.761963 Q 193.688965 34.195312 193.694336 33.196289 L 193.694336 32.976074 Z M 194.687988 32.567871 L 194.687988 36.000000 L 193.694336 36.000000 L 193.694336 35.108398 Q 193.377441 35.645508 192.896729 35.900635 Q 192.416016 36.155762 191.728516 36.155762 Q 190.810059 36.155762 190.262207 35.637451 Q 189.714355 35.119141 189.714355 34.249023 Q 189.714355 33.244629 190.388428 32.723633 Q 191.062500 32.202637 192.367676 32.202637 L 193.694336 32.202637 L 193.694336 32.046875 Q 193.688965 31.327148 193.329102 31.002197 Q 192.969238 30.677246 192.179688 30.677246 Q 191.674805 30.677246 191.159180 30.822266 Q 190.643555 30.967285 190.154785 31.246582 L 190.154785 30.258301 Q 190.702637 30.048828 191.204834 29.944092 Q 191.707031 29.839355 192.179688 29.839355 Q 192.926270 29.839355 193.455322 30.059570 Q 193.984375 30.279785 194.312012 30.720215 Q 194.516113 30.988770 194.602051 31.383545 Q 194.687988 31.778320 194.687988 32.567871 Z " fill="rgb(0, 0, 0)" fill-opacity="1.000000" />
<path d="M 200.608398 32.943848 Q 200.608398 31.832031 200.245850 31.254639 Q 199.883301 30.677246 199.190430 30.677246 Q 198.465332 30.677246 198.083984 31.254639 Q 197.702637 31.832031 197.702637 32.943848 Q 197.702637 34.055664 198.086670 34.638428 Q 198.470703 35.221191 199.201172 35.221191 Q 199.883301 35.221191 200.245850 34.635742 Q 200.608398 34.050293 200.608398 32.943848 Z M 201.596680 35.613281 Q 201.596680 36.966797 200.957520 37.665039 Q 200.318359 38.363281 199.077637 38.363281 Q 198.669434 38.363281 198.223633 38.288086 Q 197.777832 38.212891 197.332031 38.067871 L 197.332031 37.090332 Q 197.858398 37.337402 198.288086 37.455566 Q 198.717773 37.573730 199.077637 37.573730 Q 199.877930 37.573730 200.243164 37.138672 Q 200.608398 36.703613 200.608398 35.758301 L 200.608398 35.715332 L 200.608398 35.043945 Q 200.372070 35.548828 199.963867 35.795898 Q 199.555664 36.042969 198.970215 36.042969 Q 197.917480 36.042969 197.289062 35.199707 Q 196.660645 34.356445 196.660645 32.943848 Q 196.660645 31.525879 197.289062 30.682617 Q 197.917480 29.839355 198.970215 29.839355 Q 199.550293 29.839355 199.953125 30.070312 Q 200.355957 30.301270 200.608398 30.784668 L 200.608398 30.005859 L 201.596680 30.005859 Z " fill="rgb(0, 0, 0)" fill-opacity="1.000000" />
<path d="M 209.015625 32.498047 L 209.015625 32.981445 L 204.734863 32.981445 L 204.734863 33.013672 Q 204.691895 34.243652 205.204834 34.780762 Q 205.717773 35.317871 206.652344 35.317871 Q 207.125000 35.317871 207.640625 35.167480 Q 208.156250 35.017090 208.741699 34.710938 L 208.741699 35.693848 Q 208.177734 35.924805 207.654053 36.040283 Q 207.130371 36.155762 206.641602 36.155762 Q 205.239746 36.155762 204.450195 35.315186 Q 203.660645 34.474609 203.660645 32.997559 Q 203.660645 31.558105 204.434082 30.698730 Q 205.207520 29.839355 206.496582 29.839355 Q 207.645996 29.839355 208.309326 30.618164 Q 208.972656 31.396973 209.015625 32.498047 Z M 208.027344 32.208008 Q 207.962891 31.584961 207.573486 31.131104 Q 207.184082 30.677246 206.453613 30.677246 Q 205.739258 30.677246 205.277344 31.149902 Q 204.815430 31.622559 204.772461 32.213379 Z " fill="rgb(0, 0, 0)" fill-opacity="1.000000" />
<path d="M 214.608398 30.752441 L 214.608398 27.642578 L 215.596680 27.642578 L 215.596680 36.000000 L 214.608398 36.000000 L 214.608398 35.242676 Q 214.361328 35.688477 213.950439 35.922119 Q 213.539551 36.155762 213.002441 36.155762 Q 211.912109 36.155762 211.286377 35.309814 Q 210.660645 34.463867 210.660645 32.976074 Q 210.660645 31.509766 211.289062 30.674561 Q 211.917480 29.839355 213.002441 29.839355 Q 213.544922 29.839355 213.958496 30.072998 Q 214.372070 30.306641 214.608398 30.752441 Z M 211.702637 32.997559 Q 211.702637 34.146973 212.067871 34.732422 Q 212.433105 35.317871 213.147461 35.317871 Q 213.861816 35.317871 214.235107 34.727051 Q 214.608398 34.136230 214.608398 32.997559 Q 214.608398 31.853516 214.235107 31.265381 Q 213.861816 30.677246 213.147461 30.677246 Q 212.433105 30.677246 212.067871 31.262695 Q 211.702637 31.848145 211.702637 32.997559 Z " fill="rgb(0, 0, 0)" fill-opacity="1.000000" />
<path d="M 51.341797 22.108398 Q 52.711426 22.108398 53.253906 21.434326 Q 53.796387 20.760254 53.796387 18.998535 Q 53.796387 17.220703 53.256592 16.546631 Q 52.716797 15.872559 51.341797 15.872559 L 50.826172 15.872559 L 50.826172 22.108398 Z M 51.363281 14.980957 Q 53.200195 14.980957 54.070312 15.958496 Q 54.940430 16.936035 54.940430 18.998535 Q 54.940430 21.050293 54.070312 22.025146 Q 53.200195 23.000000 51.363281 23.000000 L 49.735840 23.000000 L 49.735840 14.980957 Z " fill="rgb(0, 0, 0)" fill-opacity="1.000000" />
<path d="M 59.770508 19.976074 L 59.442871 19.976074 Q 58.578125 19.976074 58.140381 20.279541 Q 57.702637 20.583008 57.702637 21.184570 Q 57.702637 21.727051 58.030273 22.027832 Q 58.357910 22.328613 58.937988 22.328613 Q 59.754395 22.328613 60.221680 21.761963 Q 60.688965 21.195312 60.694336 20.196289 L 60.694336 19.976074 Z M 61.687988 19.567871 L 61.687988 23.000000 L 60.694336 23.000000 L 60.694336 22.108398 Q 60.377441 22.645508 59.896729 22.900635 Q 59.416016 23.155762 58.728516 23.155762 Q 57.810059 23.155762 57.262207 22.637451 Q 56.714355 22.119141 56.714355 21.249023 Q 56.714355 20.244629 57.388428 19.723633 Q 58.062500 19.202637 59.367676 19.202637 L 60.694336 19.202637 L 60.694336 19.046875 Q 60.688965 18.327148 60.329102 18.002197 Q 59.969238 17.677246 59.179688 17.677246 Q 58.674805 17.677246 58.159180 17.822266 Q 57.643555 17.967285 57.154785 18.246582 L 57.154785 17.258301 Q 57.702637 17.048828 58.204834 16.944092 Q 58.707031 16.839355 59.179688 16.839355 Q 59.926270 16.839355 60.455322 17.059570 Q 60.984375 17.279785 61.312012 17.720215 Q 61.516113 17.988770 61.602051 18.383545 Q 61.687988 18.778320 61.687988 19.567871 Z " fill="rgb(0, 0, 0)" fill-opacity="1.000000" />
<path d="M 66.297852 15.276367 L 66.297852 16.984375 L 68.542969 16.984375 L 68.542969 17.752441 L 66.297852 17.752441 L 66.297852 21.018066 Q 66.297852 21.684082 66.550293 21.947266 Q 66.802734 22.210449 67.431152 22.210449 L 68.542969 22.210449 L 68.542969 23.000000 L 67.334473 23.000000 Q 66.222656 23.000000 65.766113 22.554199 Q 65.309570 22.108398 65.309570 21.018066 L 65.309570 17.752441 L 63.703613 17.752441 L 63.703613 16.984375 L 65.309570 16.984375 L 65.309570 15.276367 Z " fill="rgb(0, 0, 0)" fill-opacity="1.000000" />
<path d="M 73.770508 19.976074 L 73.442871 19.976074 Q 72.578125 19.976074 72.140381 20.279541 Q 71.702637 20.583008 71.702637 21.184570 Q 71.702637 21.727051 72.030273 22.027832 Q 72.357910 22.328613 72.937988 22.328613 Q 73.754395 22.328613 74.221680 21.761963 Q 74.688965 21.195312 74.694336 20.196289 L 74.694336 19.976074 Z M 75.687988 19.567871 L 75.687988 23.000000 L 74.694336 23.000000 L 74.694336 22.108398 Q 74.377441 22.645508 73.896729 22.900635 Q 73.416016 23.155762 72.728516 23.155762 Q 71.810059 23.155762 71.262207 22.637451 Q 70.714355 22.119141 70.714355 21.249023 Q 70.714355 20.244629 71.388428 19.723633 Q 72.062500 19.202637 73.367676 19.202637 L 74.694336 19.202637 L 74.694336 19.046875 Q 74.688965 18.327148 74.329102 18.002197 Q 73.969238 17.677246 73.179688 17.677246 Q 72.674805 17.677246 72.159180 17.822266 Q 71.643555 17.967285 71.154785 18.246582 L 71.154785 17.258301 Q 71.702637 17.048828 72.204834 16.944092 Q 72.707031 16.839355 73.179688 16.839355 Q 73.926270 16.839355 74.455322 17.059570 Q 74.984375 17.279785 75.312012 17.720215 Q 75.516113 17.988770 75.602051 18.383545 Q 75.687988 18.778320 75.687988 19.567871 Z " fill="rgb(0, 0, 0)" fill-opacity="1.000000" />
<path d="M 121.449219 26.319336 L 121.449219 12.300781 L 123.167969 12.300781 L 123.167969 26.319336 Z " fill="rgb(0, 0, 0)" fill-opacity="1.000000" />
<path d="M 149.878906 26.319336 L 149.878906 12.300781 L 150.738281 12.300781 L 150.738281 26.319336 Z " fill="rgb(0, 0, 0)" fill-opacity="1.000000" />
<path d="M 166.763184 22.715332 Q 166.349609 22.935547 165.914551 23.045654 Q 165.479492 23.155762 164.990723 23.155762 Q 163.449219 23.155762 162.597900 22.065430 Q 161.746582 20.975098 161.746582 18.998535 Q 161.746582 17.032715 162.603271 15.934326 Q 163.459961 14.835938 164.990723 14.835938 Q 165.479492 14.835938 165.914551 14.946045 Q 166.349609 15.056152 166.763184 15.276367 L 166.763184 16.388184 Q 166.365723 16.060547 165.909180 15.888672 Q 165.452637 15.716797 164.990723 15.716797 Q 163.932617 15.716797 163.406250 16.533203 Q 162.879883 17.349609 162.879883 18.998535 Q 162.879883 20.642090 163.406250 21.458496 Q 163.932617 22.274902 164.990723 22.274902 Q 165.463379 22.274902 165.917236 22.103027 Q 166.371094 21.931152 166.763184 21.603516 Z " fill="rgb(0, 0, 0)" fill-opacity="1.000000" />
<path d="M 169.047363 20.722656 L 169.047363 16.995117 L 170.035645 16.995117 L 170.035645 20.722656 Q 170.035645 21.533691 170.322998 21.915039 Q 170.610352 22.296387 171.211914 22.296387 Q 171.910156 22.296387 172.280762 21.804932 Q 172.651367 21.313477 172.651367 20.395020 L 172.651367 16.995117 L 173.645020 16.995117 L 173.645020 23.000000 L 172.651367 23.000000 L 172.651367 22.097656 Q 172.388184 22.618652 171.934326 22.887207 Q 171.480469 23.155762 170.873535 23.155762 Q 169.949707 23.155762 169.498535 22.551514 Q 169.047363 21.947266 169.047363 20.722656 Z " fill="rgb(0, 0, 0)" fill-opacity="1.000000" />
<path d="M 180.226074 17.193848 L 180.226074 18.160645 Q 179.801758 17.913574 179.372070 17.790039 Q 178.942383 17.666504 178.496582 17.666504 Q 177.825195 17.666504 177.494873 17.884033 Q 177.164551 18.101562 177.164551 18.547363 Q 177.164551 18.950195 177.411621 19.148926 Q 177.658691 19.347656 178.641602 19.535645 L 179.039062 19.610840 Q 179.774902 19.750488 180.153564 20.169434 Q 180.532227 20.588379 180.532227 21.259766 Q 180.532227 22.151367 179.898438 22.653564 Q 179.264648 23.155762 178.136719 23.155762 Q 177.690918 23.155762 177.202148 23.061768 Q 176.713379 22.967773 176.144043 22.779785 L 176.144043 21.759277 Q 176.697266 22.043945 177.202148 22.186279 Q 177.707031 22.328613 178.158203 22.328613 Q 178.813477 22.328613 179.173340 22.062744 Q 179.533203 21.796875 179.533203 21.318848 Q 179.533203 20.631348 178.217285 20.368164 L 178.174316 20.357422 L 177.803711 20.282227 Q 176.949707 20.115723 176.557617 19.720947 Q 176.165527 19.326172 176.165527 18.644043 Q 176.165527 17.779297 176.750977 17.309326 Q 177.336426 16.839355 178.421387 16.839355 Q 178.904785 16.839355 179.350586 16.927979 Q 179.796387 17.016602 180.226074 17.193848 Z " fill="rgb(0, 0, 0)" fill-opacity="1.000000" />
<path d="M 185.297852 15.276367 L 185.297852 16.984375 L 187.542969 16.984375 L 187.542969 17.752441 L 185.297852 17.752441 L 185.297852 21.018066 Q 185.297852 21.684082 185.550293 21.947266 Q 185.802734 22.210449 186.431152 22.210449 L 187.542969 22.210449 L 187.542969 23.000000 L 186.334473 23.000000 Q 185.222656 23.000000 184.766113 22.554199 Q 184.309570 22.108398 184.309570 21.018066 L 184.309570 17.752441 L 182.703613 17.752441 L 182.703613 16.984375 L 184.309570 16.984375 L 184.309570 15.276367 Z " fill="rgb(0, 0, 0)" fill-opacity="1.000000" />
<path d="M 192.308594 17.677246 Q 191.556641 17.677246 191.169922 18.262695 Q 190.783203 18.848145 190.783203 19.997559 Q 190.783203 21.141602 191.169922 21.729736 Q 191.556641 22.317871 192.308594 22.317871 Q 193.065918 22.317871 193.452637 21.729736 Q 193.839355 21.141602 193.839355 19.997559 Q 193.839355 18.848145 193.452637 18.262695 Q 193.065918 17.677246 192.308594 17.677246 Z M 192.308594 16.839355 Q 193.560059 16.839355 194.223389 17.650391 Q 194.886719 18.461426 194.886719 19.997559 Q 194.886719 21.539062 194.226074 22.347412 Q 193.565430 23.155762 192.308594 23.155762 Q 191.057129 23.155762 190.396484 22.347412 Q 189.735840 21.539062 189.735840 19.997559 Q 189.735840 18.461426 190.396484 17.650391 Q 191.057129 16.839355 192.308594 16.839355 Z " fill="rgb(0, 0, 0)" fill-opacity="1.000000" />
<path d="M 199.630859 17.596680 Q 199.813477 17.209961 200.095459 17.024658 Q 200.377441 16.839355 200.774902 16.839355 Q 201.500000 16.839355 201.798096 17.400635 Q 202.096191 17.961914 202.096191 19.514160 L 202.096191 23.000000 L 201.193848 23.000000 L 201.193848 19.557129 Q 201.193848 18.284180 201.051514 17.975342 Q 200.909180 17.666504 200.533203 17.666504 Q 200.103516 17.666504 199.945068 17.996826 Q 199.786621 18.327148 199.786621 19.557129 L 199.786621 23.000000 L 198.884277 23.000000 L 198.884277 19.557129 Q 198.884277 18.268066 198.731201 17.967285 Q 198.578125 17.666504 198.180664 17.666504 Q 197.788574 17.666504 197.635498 17.996826 Q 197.482422 18.327148 197.482422 19.557129 L 197.482422 23.000000 L 196.585449 23.000000 L 196.585449 16.984375 L 197.482422 16.984375 L 197.482422 17.500000 Q 197.659668 17.177734 197.925537 17.008545 Q 198.191406 16.839355 198.529785 16.839355 Q 198.937988 16.839355 199.209229 17.027344 Q 199.480469 17.215332 199.630859 17.596680 Z " fill="rgb(0, 0, 0)" fill-opacity="1.000000" />
<path d="M 209.015625 19.498047 L 209.015625 19.981445 L 204.734863 19.981445 L 204.734863 20.013672 Q 204.691895 21.243652 205.204834 21.780762 Q 205.717773 22.317871 206.652344 22.317871 Q 207.125000 22.317871 207.640625 22.167480 Q 208.156250 22.017090 208.741699 21.710938 L 208.741699 22.693848 Q 208.177734 22.924805 207.654053 23.040283 Q 207.130371 23.155762 206.641602 23.155762 Q 205.239746 23.155762 204.450195 22.315186 Q 203.660645 21.474609 203.660645 19.997559 Q 203.660645 18.558105 204.434082 17.698730 Q 205.207520 16.839355 206.496582 16.839355 Q 207.645996 16.839355 208.309326 17.618164 Q 208.972656 18.396973 209.015625 19.498047 Z M 208.027344 19.208008 Q 207.962891 18.584961 207.573486 18.131104 Q 207.184082 17.677246 206.453613 17.677246 Q 205.739258 17.677246 205.277344 18.149902 Q 204.815430 18.622559 204.772461 19.213379 Z " fill="rgb(0, 0, 0)" fill-opacity="1.000000" />
<path d="M 216.203613 18.225098 Q 215.886719 17.978027 215.559082 17.865234 Q 215.231445 17.752441 214.839355 17.752441 Q 213.915527 17.752441 213.426758 18.332520 Q 212.937988 18.912598 212.937988 20.008301 L 212.937988 23.000000 L 211.944336 23.000000 L 211.944336 16.984375 L 212.937988 16.984375 L 212.937988 18.160645 Q 213.185059 17.521484 213.697998 17.180420 Q 214.210938 16.839355 214.914551 16.839355 Q 215.279785 16.839355 215.596680 16.930664 Q 215.913574 17.021973 216.203613 17.215332 Z " fill="rgb(0, 0, 0)" fill-opacity="1.000000" />
<path d="M 6.892578 7.797852 L 6.892578 5.950195 L 13.729980 5.950195 L 13.729980 7.797852 Z " fill="rgb(0, 0, 0)" fill-opacity="1.000000" />
<path d="M 13.892578 7.797852 L 13.892578 5.950195 L 20.729980 5.950195 L 20.729980 7.797852 Z " fill="rgb(0, 0, 0)" fill-opacity="1.000000" />
<path d="M 20.892578 7.797852 L 20.892578 5.950195 L 27.729980 5.950195 L 27.729980 7.797852 Z " fill="rgb(0, 0, 0)" fill-opacity="1.000000" />
<path d="M 27.892578 7.797852 L 27.892578 5.950195 L 34.729980 5.950195 L 34.729980 7.797852 Z " fill="rgb(0, 0, 0)" fill-opacity="1.000000" />
<path d="M 34.892578 7.797852 L 34.892578 5.950195 L 41.729980 5.950195 L 41.729980 7.797852 Z " fill="rgb(0, 0, 0)" fill-opacity="1.000000" />
<path d="M 41.892578 7.797852 L 41.892578 5.950195 L 48.729980 5.950195 L 48.729980 7.797852 Z " fill="rgb(0, 0, 0)" fill-opacity="1.000000" />
<path d="M 48.892578 7.797852 L 48.892578 5.950195 L 55.729980 5.950195 L 55.729980 7.797852 Z " fill="rgb(0, 0, 0)" fill-opacity="1.000000" />
<path d="M 55.892578 7.797852 L 55.892578 5.950195 L 62.729980 5.950195 L 62.729980 7.797852 Z " fill="rgb(0, 0, 0)" fill-opacity="1.000000" />
<path d="M 62.892578 7.797852 L 62.892578 5.950195 L 69.729980 5.950195 L 69.729980 7.797852 Z " fill="rgb(0, 0, 0)" fill-opacity="1.000000" />
<path d="M 69.892578 7.797852 L 69.892578 5.950195 L 76.729980 5.950195 L 76.729980 7.797852 Z " fill="rgb(0, 0, 0)" fill-opacity="1.000000" />
<path d="M 76.892578 7.797852 L 76.892578 5.950195 L 83.729980 5.950195 L 83.729980 7.797852 Z " fill="rgb(0, 0, 0)" fill-opacity="1.000000" />
<path d="M 83.892578 7.797852 L 83.892578 5.950195 L 90.729980 5.950195 L 90.729980 7.797852 Z " fill="rgb(0, 0, 0)" fill-opacity="1.000000" />
<path d="M 90.892578 7.797852 L 90.892578 5.950195 L 97.729980 5.950195 L 97.729980 7.797852 Z " fill="rgb(0, 0, 0)" fill-opacity="1.000000" />
<path d="M 97.892578 7.797852 L 97.892578 5.950195 L 104.729980 5.950195 L 104.729980 7.797852 Z " fill="rgb(0, 0, 0)" fill-opacity="1.000000" />
<path d="M 104.892578 7.797852 L 104.892578 5.950195 L 111.729980 5.950195 L 111.729980 7.797852 Z " fill="rgb(0, 0, 0)" fill-opacity="1.000000" />
<path d="M 111.892578 7.797852 L 111.892578 5.950195 L 118.729980 5.950195 L 118.729980 7.797852 Z " fill="rgb(0, 0, 0)" fill-opacity="1.000000" />
<path d="M 121.449219 13.319336 L 121.449219 7.797852 L 118.892578 7.797852 L 118.892578 5.950195 L 123.167969 5.950195 L 123.167969 13.319336 Z " fill="rgb(0, 0, 0)" fill-opacity="1.000000" />
<path d="M 132.892578 7.335938 L 132.892578 6.412109 L 139.729980 6.412109 L 139.729980 7.335938 Z " fill="rgb(0, 0, 0)" fill-opacity="1.000000" />
<path d="M 139.892578 7.335938 L 139.892578 6.412109 L 146.729980 6.412109 L 146.729980 7.335938 Z " fill="rgb(0, 0, 0)" fill-opacity="1.000000" />
<path d="M 149.878906 13.319336 L 149.878906 7.335938 L 146.892578 7.335938 L 146.892578 6.412109 L 150.738281 6.412109 L 150.738281 13.319336 Z " fill="rgb(0, 0, 0)" fill-opacity="1.000000" />
</svg>