<svg xmlns="http://www.w3.org/2000/svg" version="1.1" width="211" height="196">
<path d="M 2.878906 13.319336 L 2.878906 6.412109 L 6.729980 6.412109 L 6.729980 7.335938 L 3.738281 7.335938 L 3.738281 13.319336 Z " fill="rgb(0, 0, 0)" fill-opacity="1.000000" />
<path d="M 2.878906 26.319336 L 2.878906 12.300781 L 3.738281 12.300781 L 3.738281 26.319336 Z " fill="rgb(0, 0, 0)" fill-opacity="1.000000" />
<path d="M 2.878906 39.319336 L 2.878906 25.300781 L 3.738281 25.300781 L 3.738281 32.412109 L 6.729980 32.412109 L 6.729980 33.335938 L 3.738281 33.335938 L 3.738281 39.319336 Z " fill="rgb(0, 0, 0)" fill-opacity="1.000000" />
<path d="M 2.878906 52.319336 L 2.878906 38.300781 L 3.738281 38.300781 L 3.738281 52.319336 Z " fill="rgb(0, 0, 0)" fill-opacity="1.000000" />
<path d="M 2.878906 65.319336 L 2.878906 51.300781 L 3.738281 51.300781 L 3.738281 58.412109 L 6.729980 58.412109 L 6.729980 59.335938 L 3.738281 59.335938 L 3.738281 65.319336 Z " fill="rgb(0, 0, 0)" fill-opacity="1.000000" />
<path d="M 2.878906 78.319336 L 2.878906 64.300781 L 3.738281 64.300781 L 3.738281 78.319336 Z " fill="rgb(0, 0, 0)" fill-opacity="1.000000" />
<path d="M 2.878906 91.319336 L 2.878906 77.300781 L 3.738281 77.300781 L 3.738281 84.412109 L 6.729980 84.412109 L 6.729980 85.335938 L 3.738281 85.335938 L 3.738281 91.319336 Z " fill="rgb(0, 0, 0)" fill-opacity="1.000000" />
<path d="M 2.878906 104.319336 L 2.878906 90.300781 L 3.738281 90.300781 L 3.738281 104.319336 Z " fill="rgb(0, 0, 0)" fill-opacity="1.000000" />
<path d="M 2.878906 117.319336 L 2.878906 103.300781 L 3.738281 103.300781 L 3.738281 110.412109 L 6.729980 110.412109 L 6.729980 111.335938 L 3.738281 111.335938 L 3.738281 117.319336 Z " fill="rgb(0, 0, 0)" fill-opacity="1.000000" />
<path d="M 2.878906 130.319336 L 2.878906 116.300781 L 3.738281 116.300781 L 3.738281 130.319336 Z " fill="rgb(0, 0, 0)" fill-opacity="1.000000" />
<path d="M 2.878906 143.319336 L 2.878906 129.300781 L 3.738281 129.300781 L 3.738281 136.412109 L 6.729980 136.412109 L 6.729980 137.335938 L 3.738281 137.335938 L 3.738281 143.319336 Z " fill="rgb(0, 0, 0)" fill-opacity="1.000000" />
<path d="M 2.878906 156.319336 L 2.878906 142.300781 L 3.738281 142.300781 L 3.738281 156.319336 Z " fill="rgb(0, 0, 0)" fill-opacity="1.000000" />
<path d="M 2.878906 169.319336 L 2.878906 155.300781 L 3.738281 155.300781 L 3.738281 162.412109 L 6.729980 162.412109 L 6.729980 163.335938 L 3.738281 163.335938 L 3.738281 169.319336 Z " fill="rgb(0, 0, 0)" fill-opacity="1.000000" />
<path d="M 2.878906 182.319336 L 2.878906 168.300781 L 3.738281 168.300781 L 3.738281 182.319336 Z " fill="rgb(0, 0, 0)" fill-opacity="1.000000" />
<path d="M 2.878906 189.335938 L 2.878906 181.300781 L 3.738281 181.300781 L 3.738281 188.412109 L 6.729980 188.412109 L 6.729980 189.335938 Z " fill="rgb(0, 0, 0)" fill-opacity="1.000000" />
<path d="M 6.892578 189.335938 L 6.892578 188.412109 L 13.729980 188.412109 L 13.729980 189.335938 Z " fill="rgb(0, 0, 0)" fill-opacity="1.000000" />
<path d="M 13.892578 189.335938 L 13.892578 188.412109 L 20.729980 188.412109 L 20.729980 189.335938 Z " fill="rgb(0, 0, 0)" fill-opacity="1.000000" />
<path d="M 20.892578 189.335938 L 20.892578 188.412109 L 27.729980 188.412109 L 27.729980 189.335938 Z " fill="rgb(0, 0, 0)" fill-opacity="1.000000" />
<path d="M 27.892578 189.335938 L 27.892578 188.412109 L 34.729980 188.412109 L 34.729980 189.335938 Z " fill="rgb(0, 0, 0)" fill-opacity="1.000000" />
<path d="M 34.892578 189.335938 L 34.892578 188.412109 L 41.729980 188.412109 L 41.729980 189.335938 Z " fill="rgb(0, 0, 0)" fill-opacity="1.000000" />
<path d="M 41.892578 189.335938 L 41.892578 188.412109 L 48.729980 188.412109 L 48.729980 189.335938 Z " fill="rgb(0, 0, 0)" fill-opacity="1.000000" />
<path d="M 48.892578 189.335938 L 48.892578 188.412109 L 55.729980 188.412109 L 55.729980 189.335938 Z " fill="rgb(0, 0, 0)" fill-opacity="1.000000" />
<path d="M 55.892578 189.335938 L 55.892578 188.412109 L 62.729980 188.412109 L 62.729980 189.335938 Z " fill="rgb(0, 0, 0)" fill-opacity="1.000000" />
<path d="M 62.892578 189.335938 L 62.892578 188.412109 L 69.729980 188.412109 L 69.729980 189.335938 Z " fill="rgb(0, 0, 0)" fill-opacity="1.000000" />
<path d="M 69.892578 189.335938 L 69.892578 188.412109 L 76.729980 188.412109 L 76.729980 189.335938 Z " fill="rgb(0, 0, 0)" fill-opacity="1.000000" />
<path d="M 76.892578 189.335938 L 76.892578 188.412109 L 83.729980 188.412109 L 83.729980 189.335938 Z " fill="rgb(0, 0, 0)" fill-opacity="1.000000" />
<path d="M 83.892578 189.335938 L 83.892578 188.412109 L 90.729980 188.412109 L 90.729980 189.335938 Z " fill="rgb(0, 0, 0)" fill-opacity="1.000000" />
<path d="M 90.892578 189.335938 L 90.892578 188.412109 L 97.729980 188.412109 L 97.729980 189.335938 Z " fill="rgb(0, 0, 0)" fill-opacity="1.000000" />
<path d="M 97.892578 189.335938 L 97.892578 188.412109 L 104.729980 188.412109 L 104.729980 189.335938 Z " fill="rgb(0, 0, 0)" fill-opacity="1.000000" />
<path d="M 104.892578 189.335938 L 104.892578 188.412109 L 111.729980 188.412109 L 111.729980 189.335938 Z " fill="rgb(0, 0, 0)" fill-opacity="1.000000" />
<path d="M 111.892578 189.335938 L 111.892578 188.412109 L 118.729980 188.412109 L 118.729980 189.335938 Z " fill="rgb(0, 0, 0)" fill-opacity="1.000000" />
<path d="M 118.892578 189.335938 L 118.892578 188.412109 L 121.878906 188.412109 L 121.878906 181.300781 L 122.738281 181.300781 L 122.738281 189.335938 Z " fill="rgb(0, 0, 0)" fill-opacity="1.000000" />
<path d="M 35.102051 171.007812 L 36.584473 171.007812 L 39.721191 177.587402 L 39.721191 171.007812 L 40.875977 171.007812 L 40.875977 179.000000 L 39.393555 179.000000 L 36.256836 172.420410 L 36.256836 179.000000 L 35.102051 179.000000 Z " fill="rgb(0, 0, 0)" fill-opacity="1.000000" />
<path d="M 48.015625 175.498047 L 48.015625 175.981445 L 43.734863 175.981445 L 43.734863 176.013672 Q 43.691895 177.243652 44.204834 177.780762 Q 44.717773 178.317871 45.652344 178.317871 Q 46.125000 178.317871 46.640625 178.167480 Q 47.156250 178.017090 47.741699 177.710938 L 47.741699 178.693848 Q 47.177734 178.924805 46.654053 179.040283 Q 46.130371 179.155762 45.641602 179.155762 Q 44.239746 179.155762 43.450195 178.315186 Q 42.660645 177.474609 42.660645 175.997559 Q 42.660645 174.558105 43.434082 173.698730 Q 44.207520 172.839355 45.496582 172.839355 Q 46.645996 172.839355 47.309326 173.618164 Q 47.972656 174.396973 48.015625 175.498047 Z M 47.027344 175.208008 Q 46.962891 174.584961 46.573486 174.131104 Q 46.184082 173.677246 45.453613 173.677246 Q 44.739258 173.677246 44.277344 174.149902 Q 43.815430 174.622559 43.772461 175.213379 Z " fill="rgb(0, 0, 0)" fill-opacity="1.000000" />
<path d="M 52.297852 171.276367 L 52.297852 172.984375 L 54.542969 172.984375 L 54.542969 173.752441 L 52.297852 173.752441 L 52.297852 177.018066 Q 52.297852 177.684082 52.550293 177.947266 Q 52.802734 178.210449 53.431152 178.210449 L 54.542969 178.210449 L 54.542969 179.000000 L 53.334473 179.000000 Q 52.222656 179.000000 51.766113 178.554199 Q 51.309570 178.108398 51.309570 177.018066 L 51.309570 173.752441 L 49.703613 173.752441 L 49.703613 172.984375 L 51.309570 172.984375 L 51.309570 171.276367 Z " fill="rgb(0, 0, 0)" fill-opacity="1.000000" />
<path d="M 56.000000 172.984375 L 56.977539 172.984375 L 58.024902 177.845215 L 58.884277 174.740723 L 59.727539 174.740723 L 60.597656 177.845215 L 61.645020 172.984375 L 62.622559 172.984375 L 61.215332 179.000000 L 60.270020 179.000000 L 59.308594 175.702148 L 58.352539 179.000000 L 57.407227 179.000000 Z " fill="rgb(0, 0, 0)" fill-opacity="1.000000" />
<path d="M 66.308594 173.677246 Q 65.556641 173.677246 65.169922 174.262695 Q 64.783203 174.848145 64.783203 175.997559 Q 64.783203 177.141602 65.169922 177.729736 Q 65.556641 178.317871 66.308594 178.317871 Q 67.065918 178.317871 67.452637 177.729736 Q 67.839355 177.141602 67.839355 175.997559 Q 67.839355 174.848145 67.452637 174.262695 Q 67.065918 173.677246 66.308594 173.677246 Z M 66.308594 172.839355 Q 67.560059 172.839355 68.223389 173.650391 Q 68.886719 174.461426 68.886719 175.997559 Q 68.886719 177.539062 68.226074 178.347412 Q 67.565430 179.155762 66.308594 179.155762 Q 65.057129 179.155762 64.396484 178.347412 Q 63.735840 177.539062 63.735840 175.997559 Q 63.735840 174.461426 64.396484 173.650391 Q 65.057129 172.839355 66.308594 172.839355 Z " fill="rgb(0, 0, 0)" fill-opacity="1.000000" />
<path d="M 76.203613 174.225098 Q 75.886719 173.978027 75.559082 173.865234 Q 75.231445 173.752441 74.839355 173.752441 Q 73.915527 173.752441 73.426758 174.332520 Q 72.937988 174.912598 72.937988 176.008301 L 72.937988 179.000000 L 71.944336 179.000000 L 71.944336 172.984375 L 72.937988 172.984375 L 72.937988 174.160645 Q 73.185059 173.521484 73.697998 173.180420 Q 74.210938 172.839355 74.914551 172.839355 Q 75.279785 172.839355 75.596680 172.930664 Q 75.913574 173.021973 76.203613 173.215332 Z " fill="rgb(0, 0, 0)" fill-opacity="1.000000" />
<path d="M 78.267578 170.642578 L 79.288086 170.642578 L 79.288086 175.481934 L 81.882324 172.984375 L 83.085449 172.984375 L 80.716797 175.250977 L 83.456055 179.000000 L 82.247559 179.000000 L 80.023926 175.895508 L 79.288086 176.588379 L 79.288086 179.000000 L 78.267578 179.000000 Z " fill="rgb(0, 0, 0)" fill-opacity="1.000000" />
<path d="M 121.878906 182.319336 L 121.878906 168.300781 L 122.738281 168.300781 L 122.738281 182.319336 Z " fill="rgb(0, 0, 0)" fill-opacity="1.000000" />
<path d="M 6.892578 163.335938 L 6.892578 162.412109 L 13.729980 162.412109 L 13.729980 163.335938 Z " fill="rgb(0, 0, 0)" fill-opacity="1.000000" />
<path d="M 13.892578 163.335938 L 13.892578 162.412109 L 20.729980 162.412109 L 20.729980 163.335938 Z " fill="rgb(0, 0, 0)" fill-opacity="1.000000" />
<path d="M 20.892578 163.335938 L 20.892578 162.412109 L 27.729980 162.412109 L 27.729980 163.335938 Z " fill="rgb(0, 0, 0)" fill-opacity="1.000000" />
<path d="M 27.892578 163.335938 L 27.892578 162.412109 L 34.729980 162.412109 L 34.729980 163.335938 Z " fill="rgb(0, 0, 0)" fill-opacity="1.000000" />
<path d="M 34.892578 163.335938 L 34.892578 162.412109 L 41.729980 162.412109 L 41.729980 163.335938 Z " fill="rgb(0, 0, 0)" fill-opacity="1.000000" />
<path d="M 41.892578 163.335938 L 41.892578 162.412109 L 48.729980 162.412109 L 48.729980 163.335938 Z " fill="rgb(0, 0, 0)" fill-opacity="1.000000" />
<path d="M 48.892578 163.335938 L 48.892578 162.412109 L 55.729980 162.412109 L 55.729980 163.335938 Z " fill="rgb(0, 0, 0)" fill-opacity="1.000000" />
<path d="M 55.892578 163.335938 L 55.892578 162.412109 L 62.729980 162.412109 L 62.729980 163.335938 Z " fill="rgb(0, 0, 0)" fill-opacity="1.000000" />
<path d="M 62.892578 163.335938 L 62.892578 162.412109 L 69.729980 162.412109 L 69.729980 163.335938 Z " fill="rgb(0, 0, 0)" fill-opacity="1.000000" />
<path d="M 69.892578 163.335938 L 69.892578 162.412109 L 76.729980 162.412109 L 76.729980 163.335938 Z " fill="rgb(0, 0, 0)" fill-opacity="1.000000" />
<path d="M 76.892578 163.335938 L 76.892578 162.412109 L 83.729980 162.412109 L 83.729980 163.335938 Z " fill="rgb(0, 0, 0)" fill-opacity="1.000000" />
<path d="M 83.892578 163.335938 L 83.892578 162.412109 L 90.729980 162.412109 L 90.729980 163.335938 Z " fill="rgb(0, 0, 0)" fill-opacity="1.000000" />
<path d="M 90.892578 163.335938 L 90.892578 162.412109 L 97.729980 162.412109 L 97.729980 163.335938 Z " fill="rgb(0, 0, 0)" fill-opacity="1.000000" />
<path d="M 97.892578 163.335938 L 97.892578 162.412109 L 104.729980 162.412109 L 104.729980 163.335938 Z " fill="rgb(0, 0, 0)" fill-opacity="1.000000" />
<path d="M 104.892578 163.335938 L 104.892578 162.412109 L 111.729980 162.412109 L 111.729980 163.335938 Z " fill="rgb(0, 0, 0)" fill-opacity="1.000000" />
<path d="M 111.892578 163.335938 L 111.892578 162.412109 L 118.729980 162.412109 L 118.729980 163.335938 Z " fill="rgb(0, 0, 0)" fill-opacity="1.000000" />
<path d="M 121.878906 169.319336 L 121.878906 163.335938 L 118.892578 163.335938 L 118.892578 162.412109 L 121.878906 162.412109 L 121.878906 155.300781 L 122.738281 155.300781 L 122.738281 169.319336 Z " fill="rgb(0, 0, 0)" fill-opacity="1.000000" />
<path d="M 47.435547 145.254883 L 47.435547 146.355957 Q 46.941406 146.039062 46.444580 145.877930 Q 45.947754 145.716797 45.442871 145.716797 Q 44.674805 145.716797 44.229004 146.073975 Q 43.783203 146.431152 43.783203 147.038086 Q 43.783203 147.569824 44.075928 147.849121 Q 44.368652 148.128418 45.168945 148.316406 L 45.738281 148.445312 Q 46.866211 148.708496 47.381836 149.272461 Q 47.897461 149.836426 47.897461 150.808594 Q 47.897461 151.952637 47.188477 152.554199 Q 46.479492 153.155762 45.125977 153.155762 Q 44.562012 153.155762 43.992676 153.034912 Q 43.423340 152.914062 42.848633 152.672363 L 42.848633 151.517578 Q 43.466309 151.909668 44.016846 152.092285 Q 44.567383 152.274902 45.125977 152.274902 Q 45.947754 152.274902 46.404297 151.906982 Q 46.860840 151.539062 46.860840 150.878418 Q 46.860840 150.276855 46.546631 149.959961 Q 46.232422 149.643066 45.453613 149.471191 L 44.873535 149.336914 Q 43.756348 149.084473 43.251465 148.574219 Q 42.746582 148.063965 42.746582 147.204590 Q 42.746582 146.130371 43.468994 145.483154 Q 44.191406 144.835938 45.389160 144.835938 Q 45.851074 144.835938 46.361328 144.940674 Q 46.871582 145.045410 47.435547 145.254883 Z " fill="rgb(0, 0, 0)" fill-opacity="1.000000" />
<path d="M 55.015625 149.498047 L 55.015625 149.981445 L 50.734863 149.981445 L 50.734863 150.013672 Q 50.691895 151.243652 51.204834 151.780762 Q 51.717773 152.317871 52.652344 152.317871 Q 53.125000 152.317871 53.640625 152.167480 Q 54.156250 152.017090 54.741699 151.710938 L 54.741699 152.693848 Q 54.177734 152.924805 53.654053 153.040283 Q 53.130371 153.155762 52.641602 153.155762 Q 51.239746 153.155762 50.450195 152.315186 Q 49.660645 151.474609 49.660645 149.997559 Q 49.660645 148.558105 50.434082 147.698730 Q 51.207520 146.839355 52.496582 146.839355 Q 53.645996 146.839355 54.309326 147.618164 Q 54.972656 148.396973 55.015625 149.498047 Z M 54.027344 149.208008 Q 53.962891 148.584961 53.573486 148.131104 Q 53.184082 147.677246 52.453613 147.677246 Q 51.739258 147.677246 51.277344 148.149902 Q 50.815430 148.622559 50.772461 149.213379 Z " fill="rgb(0, 0, 0)" fill-opacity="1.000000" />
<path d="M 62.203613 148.225098 Q 61.886719 147.978027 61.559082 147.865234 Q 61.231445 147.752441 60.839355 147.752441 Q 59.915527 147.752441 59.426758 148.332520 Q 58.937988 148.912598 58.937988 150.008301 L 58.937988 153.000000 L 57.944336 153.000000 L 57.944336 146.984375 L 58.937988 146.984375 L 58.937988 148.160645 Q 59.185059 147.521484 59.697998 147.180420 Q 60.210938 146.839355 60.914551 146.839355 Q 61.279785 146.839355 61.596680 146.930664 Q 61.913574 147.021973 62.203613 147.215332 Z " fill="rgb(0, 0, 0)" fill-opacity="1.000000" />
<path d="M 63.537109 146.984375 L 64.562988 146.984375 L 66.308594 152.033203 L 68.059570 146.984375 L 69.085449 146.984375 L 66.947754 153.000000 L 65.674805 153.000000 Z " fill="rgb(0, 0, 0)" fill-opacity="1.000000" />
<path d="M 76.015625 149.498047 L 76.015625 149.981445 L 71.734863 149.981445 L 71.734863 150.013672 Q 71.691895 151.243652 72.204834 151.780762 Q 72.717773 152.317871 73.652344 152.317871 Q 74.125000 152.317871 74.640625 152.167480 Q 75.156250 152.017090 75.741699 151.710938 L 75.741699 152.693848 Q 75.177734 152.924805 74.654053 153.040283 Q 74.130371 153.155762 73.641602 153.155762 Q 72.239746 153.155762 71.450195 152.315186 Q 70.660645 151.474609 70.660645 149.997559 Q 70.660645 148.558105 71.434082 147.698730 Q 72.207520 146.839355 73.496582 146.839355 Q 74.645996 146.839355 75.309326 147.618164 Q 75.972656 148.396973 76.015625 149.498047 Z M 75.027344 149.208008 Q 74.962891 148.584961 74.573486 148.131104 Q 74.184082 147.677246 73.453613 147.677246 Q 72.739258 147.677246 72.277344 148.149902 Q 71.815430 148.622559 71.772461 149.213379 Z " fill="rgb(0, 0, 0)" fill-opacity="1.000000" />
<path d="M 83.203613 148.225098 Q 82.886719 147.978027 82.559082 147.865234 Q 82.231445 147.752441 81.839355 147.752441 Q 80.915527 147.752441 80.426758 148.332520 Q 79.937988 148.912598 79.937988 150.008301 L 79.937988 153.000000 L 78.944336 153.000000 L 78.944336 146.984375 L 79.937988 146.984375 L 79.937988 148.160645 Q 80.185059 147.521484 80.697998 147.180420 Q 81.210938 146.839355 81.914551 146.839355 Q 82.279785 146.839355 82.596680 146.930664 Q 82.913574 147.021973 83.203613 147.215332 Z " fill="rgb(0, 0, 0)" fill-opacity="1.000000" />
<path d="M 121.878906 156.319336 L 121.878906 142.300781 L 122.738281 142.300781 L 122.738281 156.319336 Z " fill="rgb(0, 0, 0)" fill-opacity="1.000000" />
<path d="M 6.892578 137.335938 L 6.892578 136.412109 L 13.729980 136.412109 L 13.729980 137.335938 Z " fill="rgb(0, 0, 0)" fill-opacity="1.000000" />
<path d="M 13.892578 137.335938 L 13.892578 136.412109 L 20.729980 136.412109 L 20.729980 137.335938 Z " fill="rgb(0, 0, 0)" fill-opacity="1.000000" />
<path d="M 20.892578 137.335938 L 20.892578 136.412109 L 27.729980 136.412109 L 27.729980 137.335938 Z " fill="rgb(0, 0, 0)" fill-opacity="1.000000" />
<path d="M 27.892578 137.335938 L 27.892578 136.412109 L 34.729980 136.412109 L 34.729980 137.335938 Z " fill="rgb(0, 0, 0)" fill-opacity="1.000000" />
<path d="M 34.892578 137.335938 L 34.892578 136.412109 L 41.729980 136.412109 L 41.729980 137.335938 Z " fill="rgb(0, 0, 0)" fill-opacity="1.000000" />
<path d="M 41.892578 137.335938 L 41.892578 136.412109 L 48.729980 136.412109 L 48.729980 137.335938 Z " fill="rgb(0, 0, 0)" fill-opacity="1.000000" />
<path d="M 48.892578 137.335938 L 48.892578 136.412109 L 55.729980 136.412109 L 55.729980 137.335938 Z " fill="rgb(0, 0, 0)" fill-opacity="1.000000" />
<path d="M 55.892578 137.335938 L 55.892578 136.412109 L 62.729980 136.412109 L 62.729980 137.335938 Z " fill="rgb(0, 0, 0)" fill-opacity="1.000000" />
<path d="M 62.892578 137.335938 L 62.892578 136.412109 L 69.729980 136.412109 L 69.729980 137.335938 Z " fill="rgb(0, 0, 0)" fill-opacity="1.000000" />
<path d="M 69.892578 137.335938 L 69.892578 136.412109 L 76.729980 136.412109 L 76.729980 137.335938 Z " fill="rgb(0, 0, 0)" fill-opacity="1.000000" />
<path d="M 76.892578 137.335938 L 76.892578 136.412109 L 83.729980 136.412109 L 83.729980 137.335938 Z " fill="rgb(0, 0, 0)" fill-opacity="1.000000" />
<path d="M 83.892578 137.335938 L 83.892578 136.412109 L 90.729980 136.412109 L 90.729980 137.335938 Z " fill="rgb(0, 0, 0)" fill-opacity="1.000000" />
<path d="M 90.892578 137.335938 L 90.892578 136.412109 L 97.729980 136.412109 L 97.729980 137.335938 Z " fill="rgb(0, 0, 0)" fill-opacity="1.000000" />
<path d="M 97.892578 137.335938 L 97.892578 136.412109 L 104.729980 136.412109 L 104.729980 137.335938 Z " fill="rgb(0, 0, 0)" fill-opacity="1.000000" />
<path d="M 104.892578 137.335938 L 104.892578 136.412109 L 111.729980 136.412109 L 111.729980 137.335938 Z " fill="rgb(0, 0, 0)" fill-opacity="1.000000" />
<path d="M 111.892578 137.335938 L 111.892578 136.412109 L 118.729980 136.412109 L 118.729980 137.335938 Z " fill="rgb(0, 0, 0)" fill-opacity="1.000000" />
<path d="M 121.878906 143.319336 L 121.878906 137.335938 L 118.892578 137.335938 L 118.892578 136.412109 L 121.878906 136.412109 L 121.878906 129.300781 L 122.738281 129.300781 L 122.738281 143.319336 Z " fill="rgb(0, 0, 0)" fill-opacity="1.000000" />
<path d="M 17.308594 126.086914 L 19.193848 118.980957 L 20.316406 118.980957 L 17.969238 127.000000 L 16.653320 127.000000 L 14.306152 118.980957 L 15.428711 118.980957 Z " fill="rgb(0, 0, 0)" fill-opacity="1.000000" />
<path d="M 22.697266 121.005859 L 25.227051 121.005859 L 25.227051 126.231934 L 27.187500 126.231934 L 27.187500 127.000000 L 22.278320 127.000000 L 22.278320 126.231934 L 24.238770 126.231934 L 24.238770 121.773926 L 22.697266 121.773926 Z M 24.238770 118.669434 L 25.227051 118.669434 L 25.227051 119.915527 L 24.238770 119.915527 Z " fill="rgb(0, 0, 0)" fill-opacity="1.000000" />
<path d="M 34.203613 122.225098 Q 33.886719 121.978027 33.559082 121.865234 Q 33.231445 121.752441 32.839355 121.752441 Q 31.915527 121.752441 31.426758 122.332520 Q 30.937988 122.912598 30.937988 124.008301 L 30.937988 127.000000 L 29.944336 127.000000 L 29.944336 120.984375 L 30.937988 120.984375 L 30.937988 122.160645 Q 31.185059 121.521484 31.697998 121.180420 Q 32.210938 120.839355 32.914551 120.839355 Q 33.279785 120.839355 33.596680 120.930664 Q 33.913574 121.021973 34.203613 121.215332 Z " fill="rgb(0, 0, 0)" fill-opacity="1.000000" />
<path d="M 38.297852 119.276367 L 38.297852 120.984375 L 40.542969 120.984375 L 40.542969 121.752441 L 38.297852 121.752441 L 38.297852 125.018066 Q 38.297852 125.684082 38.550293 125.947266 Q 38.802734 126.210449 39.431152 126.210449 L 40.542969 126.210449 L 40.542969 127.000000 L 39.334473 127.000000 Q 38.222656 127.000000 37.766113 126.554199 Q 37.309570 126.108398 37.309570 125.018066 L 37.309570 121.752441 L 35.703613 121.752441 L 35.703613 120.984375 L 37.309570 120.984375 L 37.309570 119.276367 Z " fill="rgb(0, 0, 0)" fill-opacity="1.000000" />
<path d="M 43.047363 124.722656 L 43.047363 120.995117 L 44.035645 120.995117 L 44.035645 124.722656 Q 44.035645 125.533691 44.322998 125.915039 Q 44.610352 126.296387 45.211914 126.296387 Q 45.910156 126.296387 46.280762 125.804932 Q 46.651367 125.313477 46.651367 124.395020 L 46.651367 120.995117 L 47.645020 120.995117 L 47.645020 127.000000 L 46.651367 127.000000 L 46.651367 126.097656 Q 46.388184 126.618652 45.934326 126.887207 Q 45.480469 127.155762 44.873535 127.155762 Q 43.949707 127.155762 43.498535 126.551514 Q 43.047363 125.947266 43.047363 124.722656 Z " fill="rgb(0, 0, 0)" fill-opacity="1.000000" />
<path d="M 52.770508 123.976074 L 52.442871 123.976074 Q 51.578125 123.976074 51.140381 124.279541 Q 50.702637 124.583008 50.702637 125.184570 Q 50.702637 125.727051 51.030273 126.027832 Q 51.357910 126.328613 51.937988 126.328613 Q 52.754395 126.328613 53.221680 125.761963 Q 53.688965 125.195312 53.694336 124.196289 L 53.694336 123.976074 Z M 54.687988 123.567871 L 54.687988 127.000000 L 53.694336 127.000000 L 53.694336 126.108398 Q 53.377441 126.645508 52.896729 126.900635 Q 52.416016 127.155762 51.728516 127.155762 Q 50.810059 127.155762 50.262207 126.637451 Q 49.714355 126.119141 49.714355 125.249023 Q 49.714355 124.244629 50.388428 123.723633 Q 51.062500 123.202637 52.367676 123.202637 L 53.694336 123.202637 L 53.694336 123.046875 Q 53.688965 122.327148 53.329102 122.002197 Q 52.969238 121.677246 52.179688 121.677246 Q 51.674805 121.677246 51.159180 121.822266 Q 50.643555 121.967285 50.154785 122.246582 L 50.154785 121.258301 Q 50.702637 121.048828 51.204834 120.944092 Q 51.707031 120.839355 52.179688 120.839355 Q 52.926270 120.839355 53.455322 121.059570 Q 53.984375 121.279785 54.312012 121.720215 Q 54.516113 121.988770 54.602051 122.383545 Q 54.687988 122.778320 54.687988 123.567871 Z " fill="rgb(0, 0, 0)" fill-opacity="1.000000" />
<path d="M 59.861816 124.824707 Q 59.861816 125.490723 60.106201 125.829102 Q 60.350586 126.167480 60.828613 126.167480 L 61.983398 126.167480 L 61.983398 127.000000 L 60.731934 127.000000 Q 59.845703 127.000000 59.359619 126.433350 Q 58.873535 125.866699 58.873535 124.824707 L 58.873535 119.383789 L 57.289062 119.383789 L 57.289062 118.610352 L 59.861816 118.610352 Z " fill="rgb(0, 0, 0)" fill-opacity="1.000000" />
<path d="M 64.697266 121.005859 L 67.227051 121.005859 L 67.227051 126.231934 L 69.187500 126.231934 L 69.187500 127.000000 L 64.278320 127.000000 L 64.278320 126.231934 L 66.238770 126.231934 L 66.238770 121.773926 L 64.697266 121.773926 Z M 66.238770 118.669434 L 67.227051 118.669434 L 67.227051 119.915527 L 66.238770 119.915527 Z " fill="rgb(0, 0, 0)" fill-opacity="1.000000" />
<path d="M 71.219238 120.973633 L 75.585938 120.973633 L 75.585938 121.875977 L 72.132324 126.194336 L 75.585938 126.194336 L 75.585938 127.000000 L 71.090332 127.000000 L 71.090332 126.086914 L 74.543945 121.763184 L 71.219238 121.763184 Z " fill="rgb(0, 0, 0)" fill-opacity="1.000000" />
<path d="M 80.770508 123.976074 L 80.442871 123.976074 Q 79.578125 123.976074 79.140381 124.279541 Q 78.702637 124.583008 78.702637 125.184570 Q 78.702637 125.727051 79.030273 126.027832 Q 79.357910 126.328613 79.937988 126.328613 Q 80.754395 126.328613 81.221680 125.761963 Q 81.688965 125.195312 81.694336 124.196289 L 81.694336 123.976074 Z M 82.687988 123.567871 L 82.687988 127.000000 L 81.694336 127.000000 L 81.694336 126.108398 Q 81.377441 126.645508 80.896729 126.900635 Q 80.416016 127.155762 79.728516 127.155762 Q 78.810059 127.155762 78.262207 126.637451 Q 77.714355 126.119141 77.714355 125.249023 Q 77.714355 124.244629 78.388428 123.723633 Q 79.062500 123.202637 80.367676 123.202637 L 81.694336 123.202637 L 81.694336 123.046875 Q 81.688965 122.327148 81.329102 122.002197 Q 80.969238 121.677246 80.179688 121.677246 Q 79.674805 121.677246 79.159180 121.822266 Q 78.643555 121.967285 78.154785 122.246582 L 78.154785 121.258301 Q 78.702637 121.048828 79.204834 120.944092 Q 79.707031 120.839355 80.179688 120.839355 Q 80.926270 120.839355 81.455322 121.059570 Q 81.984375 121.279785 82.312012 121.720215 Q 82.516113 121.988770 82.602051 122.383545 Q 82.687988 122.778320 82.687988 123.567871 Z " fill="rgb(0, 0, 0)" fill-opacity="1.000000" />
<path d="M 87.297852 119.276367 L 87.297852 120.984375 L 89.542969 120.984375 L 89.542969 121.752441 L 87.297852 121.752441 L 87.297852 125.018066 Q 87.297852 125.684082 87.550293 125.947266 Q 87.802734 126.210449 88.431152 126.210449 L 89.542969 126.210449 L 89.542969 127.000000 L 88.334473 127.000000 Q 87.222656 127.000000 86.766113 126.554199 Q 86.309570 126.108398 86.309570 125.018066 L 86.309570 121.752441 L 84.703613 121.752441 L 84.703613 120.984375 L 86.309570 120.984375 L 86.309570 119.276367 Z " fill="rgb(0, 0, 0)" fill-opacity="1.000000" />
<path d="M 92.697266 121.005859 L 95.227051 121.005859 L 95.227051 126.231934 L 97.187500 126.231934 L 97.187500 127.000000 L 92.278320 127.000000 L 92.278320 126.231934 L 94.238770 126.231934 L 94.238770 121.773926 L 92.697266 121.773926 Z M 94.238770 118.669434 L 95.227051 118.669434 L 95.227051 119.915527 L 94.238770 119.915527 Z " fill="rgb(0, 0, 0)" fill-opacity="1.000000" />
<path d="M 101.308594 121.677246 Q 100.556641 121.677246 100.169922 122.262695 Q 99.783203 122.848145 99.783203 123.997559 Q 99.783203 125.141602 100.169922 125.729736 Q 100.556641 126.317871 101.308594 126.317871 Q 102.065918 126.317871 102.452637 125.729736 Q 102.839355 125.141602 102.839355 123.997559 Q 102.839355 122.848145 102.452637 122.262695 Q 102.065918 121.677246 101.308594 121.677246 Z M 101.308594 120.839355 Q 102.560059 120.839355 103.223389 121.650391 Q 103.886719 122.461426 103.886719 123.997559 Q 103.886719 125.539062 103.226074 126.347412 Q 102.565430 127.155762 101.308594 127.155762 Q 100.057129 127.155762 99.396484 126.347412 Q 98.735840 125.539062 98.735840 123.997559 Q 98.735840 122.461426 99.396484 121.650391 Q 100.057129 120.839355 101.308594 120.839355 Z " fill="rgb(0, 0, 0)" fill-opacity="1.000000" />
<path d="M 110.645020 123.272461 L 110.645020 127.000000 L 109.651367 127.000000 L 109.651367 123.272461 Q 109.651367 122.461426 109.366699 122.080078 Q 109.082031 121.698730 108.475098 121.698730 Q 107.782227 121.698730 107.408936 122.190186 Q 107.035645 122.681641 107.035645 123.600098 L 107.035645 127.000000 L 106.047363 127.000000 L 106.047363 120.984375 L 107.035645 120.984375 L 107.035645 121.886719 Q 107.298828 121.371094 107.750000 121.105225 Q 108.201172 120.839355 108.818848 120.839355 Q 109.737305 120.839355 110.191162 121.443604 Q 110.645020 122.047852 110.645020 123.272461 Z " fill="rgb(0, 0, 0)" fill-opacity="1.000000" />
<path d="M 121.878906 130.319336 L 121.878906 116.300781 L 122.738281 116.300781 L 122.738281 130.319336 Z " fill="rgb(0, 0, 0)" fill-opacity="1.000000" />
<path d="M 6.892578 111.335938 L 6.892578 110.412109 L 13.729980 110.412109 L 13.729980 111.335938 Z " fill="rgb(0, 0, 0)" fill-opacity="1.000000" />
<path d="M 13.892578 111.335938 L 13.892578 110.412109 L 20.729980 110.412109 L 20.729980 111.335938 Z " fill="rgb(0, 0, 0)" fill-opacity="1.000000" />
<path d="M 20.892578 111.335938 L 20.892578 110.412109 L 27.729980 110.412109 L 27.729980 111.335938 Z " fill="rgb(0, 0, 0)" fill-opacity="1.000000" />
<path d="M 27.892578 111.335938 L 27.892578 110.412109 L 34.729980 110.412109 L 34.729980 111.335938 Z " fill="rgb(0, 0, 0)" fill-opacity="1.000000" />
<path d="M 34.892578 111.335938 L 34.892578 110.412109 L 41.729980 110.412109 L 41.729980 111.335938 Z " fill="rgb(0, 0, 0)" fill-opacity="1.000000" />
<path d="M 41.892578 111.335938 L 41.892578 110.412109 L 48.729980 110.412109 L 48.729980 111.335938 Z " fill="rgb(0, 0, 0)" fill-opacity="1.000000" />
<path d="M 48.892578 111.335938 L 48.892578 110.412109 L 55.729980 110.412109 L 55.729980 111.335938 Z " fill="rgb(0, 0, 0)" fill-opacity="1.000000" />
<path d="M 55.892578 111.335938 L 55.892578 110.412109 L 62.729980 110.412109 L 62.729980 111.335938 Z " fill="rgb(0, 0, 0)" fill-opacity="1.000000" />
<path d="M 62.892578 111.335938 L 62.892578 110.412109 L 69.729980 110.412109 L 69.729980 111.335938 Z " fill="rgb(0, 0, 0)" fill-opacity="1.000000" />
<path d="M 69.892578 111.335938 L 69.892578 110.412109 L 76.729980 110.412109 L 76.729980 111.335938 Z " fill="rgb(0, 0, 0)" fill-opacity="1.000000" />
<path d="M 76.892578 111.335938 L 76.892578 110.412109 L 83.729980 110.412109 L 83.729980 111.335938 Z " fill="rgb(0, 0, 0)" fill-opacity="1.000000" />
<path d="M 83.892578 111.335938 L 83.892578 110.412109 L 90.729980 110.412109 L 90.729980 111.335938 Z " fill="rgb(0, 0, 0)" fill-opacity="1.000000" />
<path d="M 90.892578 111.335938 L 90.892578 110.412109 L 97.729980 110.412109 L 97.729980 111.335938 Z " fill="rgb(0, 0, 0)" fill-opacity="1.000000" />
<path d="M 97.892578 111.335938 L 97.892578 110.412109 L 104.729980 110.412109 L 104.729980 111.335938 Z " fill="rgb(0, 0, 0)" fill-opacity="1.000000" />
<path d="M 104.892578 111.335938 L 104.892578 110.412109 L 111.729980 110.412109 L 111.729980 111.335938 Z " fill="rgb(0, 0, 0)" fill-opacity="1.000000" />
<path d="M 111.892578 111.335938 L 111.892578 110.412109 L 118.729980 110.412109 L 118.729980 111.335938 Z " fill="rgb(0, 0, 0)" fill-opacity="1.000000" />
<path d="M 121.878906 117.319336 L 121.878906 111.335938 L 118.892578 111.335938 L 118.892578 110.412109 L 121.878906 110.412109 L 121.878906 103.300781 L 122.738281 103.300781 L 122.738281 117.319336 Z " fill="rgb(0, 0, 0)" fill-opacity="1.000000" />
<path d="M 154.193359 106.007812 L 155.643555 106.007812 L 157.029297 110.079102 L 158.425781 106.007812 L 159.881348 106.007812 L 159.881348 114.000000 L 158.876953 114.000000 L 158.876953 106.937012 L 157.448242 111.147949 L 156.626465 111.147949 L 155.192383 106.937012 L 155.192383 114.000000 L 154.193359 114.000000 Z " fill="rgb(0, 0, 0)" fill-opacity="1.000000" />
<path d="M 164.770508 110.976074 L 164.442871 110.976074 Q 163.578125 110.976074 163.140381 111.279541 Q 162.702637 111.583008 162.702637 112.184570 Q 162.702637 112.727051 163.030273 113.027832 Q 163.357910 113.328613 163.937988 113.328613 Q 164.754395 113.328613 165.221680 112.761963 Q 165.688965 112.195312 165.694336 111.196289 L 165.694336 110.976074 Z M 166.687988 110.567871 L 166.687988 114.000000 L 165.694336 114.000000 L 165.694336 113.108398 Q 165.377441 113.645508 164.896729 113.900635 Q 164.416016 114.155762 163.728516 114.155762 Q 162.810059 114.155762 162.262207 113.637451 Q 161.714355 113.119141 161.714355 112.249023 Q 161.714355 111.244629 162.388428 110.723633 Q 163.062500 110.202637 164.367676 110.202637 L 165.694336 110.202637 L 165.694336 110.046875 Q 165.688965 109.327148 165.329102 109.002197 Q 164.969238 108.677246 164.179688 108.677246 Q 163.674805 108.677246 163.159180 108.822266 Q 162.643555 108.967285 162.154785 109.246582 L 162.154785 108.258301 Q 162.702637 108.048828 163.204834 107.944092 Q 163.707031 107.839355 164.179688 107.839355 Q 164.926270 107.839355 165.455322 108.059570 Q 165.984375 108.279785 166.312012 108.720215 Q 166.516113 108.988770 166.602051 109.383545 Q 166.687988 109.778320 166.687988 110.567871 Z " fill="rgb(0, 0, 0)" fill-opacity="1.000000" />
<path d="M 173.645020 110.272461 L 173.645020 114.000000 L 172.651367 114.000000 L 172.651367 110.272461 Q 172.651367 109.461426 172.366699 109.080078 Q 172.082031 108.698730 171.475098 108.698730 Q 170.782227 108.698730 170.408936 109.190186 Q 170.035645 109.681641 170.035645 110.600098 L 170.035645 114.000000 L 169.047363 114.000000 L 169.047363 107.984375 L 170.035645 107.984375 L 170.035645 108.886719 Q 170.298828 108.371094 170.750000 108.105225 Q 171.201172 107.839355 171.818848 107.839355 Q 172.737305 107.839355 173.191162 108.443604 Q 173.645020 109.047852 173.645020 110.272461 Z " fill="rgb(0, 0, 0)" fill-opacity="1.000000" />
<path d="M 178.770508 110.976074 L 178.442871 110.976074 Q 177.578125 110.976074 177.140381 111.279541 Q 176.702637 111.583008 176.702637 112.184570 Q 176.702637 112.727051 177.030273 113.027832 Q 177.357910 113.328613 177.937988 113.328613 Q 178.754395 113.328613 179.221680 112.761963 Q 179.688965 112.195312 179.694336 111.196289 L 179.694336 110.976074 Z M 180.687988 110.567871 L 180.687988 114.000000 L 179.694336 114.000000 L 179.694336 113.108398 Q 179.377441 113.645508 178.896729 113.900635 Q 178.416016 114.155762 177.728516 114.155762 Q 176.810059 114.155762 176.262207 113.637451 Q 175.714355 113.119141 175.714355 112.249023 Q 175.714355 111.244629 176.388428 110.723633 Q 177.062500 110.202637 178.367676 110.202637 L 179.694336 110.202637 L 179.694336 110.046875 Q 179.688965 109.327148 179.329102 109.002197 Q 178.969238 108.677246 178.179688 108.677246 Q 177.674805 108.677246 177.159180 108.822266 Q 176.643555 108.967285 176.154785 109.246582 L 176.154785 108.258301 Q 176.702637 108.048828 177.204834 107.944092 Q 177.707031 107.839355 178.179688 107.839355 Q 178.926270 107.839355 179.455322 108.059570 Q 179.984375 108.279785 180.312012 108.720215 Q 180.516113 108.988770 180.602051 109.383545 Q 180.687988 109.778320 180.687988 110.567871 Z " fill="rgb(0, 0, 0)" fill-opacity="1.000000" />
<path d="M 186.608398 110.943848 Q 186.608398 109.832031 186.245850 109.254639 Q 185.883301 108.677246 185.190430 108.677246 Q 184.465332 108.677246 184.083984 109.254639 Q 183.702637 109.832031 183.702637 110.943848 Q 183.702637 112.055664 184.086670 112.638428 Q 184.470703 113.221191 185.201172 113.221191 Q 185.883301 113.221191 186.245850 112.635742 Q 186.608398 112.050293 186.608398 110.943848 Z M 187.596680 113.613281 Q 187.596680 114.966797 186.957520 115.665039 Q 186.318359 116.363281 185.077637 116.363281 Q 184.669434 116.363281 184.223633 116.288086 Q 183.777832 116.212891 183.332031 116.067871 L 183.332031 115.090332 Q 183.858398 115.337402 184.288086 115.455566 Q 184.717773 115.573730 185.077637 115.573730 Q 185.877930 115.573730 186.243164 115.138672 Q 186.608398 114.703613 186.608398 113.758301 L 186.608398 113.715332 L 186.608398 113.043945 Q 186.372070 113.548828 185.963867 113.795898 Q 185.555664 114.042969 184.970215 114.042969 Q 183.917480 114.042969 183.289062 113.199707 Q 182.660645 112.356445 182.660645 110.943848 Q 182.660645 109.525879 183.289062 108.682617 Q 183.917480 107.839355 184.970215 107.839355 Q 185.550293 107.839355 185.953125 108.070312 Q 186.355957 108.301270 186.608398 108.784668 L 186.608398 108.005859 L 187.596680 108.005859 Z " fill="rgb(0, 0, 0)" fill-opacity="1.000000" />
<path d="M 195.015625 110.498047 L 195.015625 110.981445 L 190.734863 110.981445 L 190.734863 111.013672 Q 190.691895 112.243652 191.204834 112.780762 Q 191.717773 113.317871 192.652344 113.317871 Q 193.125000 113.317871 193.640625 113.167480 Q 194.156250 113.017090 194.741699 112.710938 L 194.741699 113.693848 Q 194.177734 113.924805 193.654053 114.040283 Q 193.130371 114.155762 192.641602 114.155762 Q 191.239746 114.155762 190.450195 113.315186 Q 189.660645 112.474609 189.660645 110.997559 Q 189.660645 109.558105 190.434082 108.698730 Q 191.207520 107.839355 192.496582 107.839355 Q 193.645996 107.839355 194.309326 108.618164 Q 194.972656 109.396973 195.015625 110.498047 Z M 194.027344 110.208008 Q 193.962891 109.584961 193.573486 109.131104 Q 193.184082 108.677246 192.453613 108.677246 Q 191.739258 108.677246 191.277344 109.149902 Q 190.815430 109.622559 190.772461 110.213379 Z " fill="rgb(0, 0, 0)" fill-opacity="1.000000" />
<path d="M 200.608398 108.752441 L 200.608398 105.642578 L 201.596680 105.642578 L 201.596680 114.000000 L 200.608398 114.000000 L 200.608398 113.242676 Q 200.361328 113.688477 199.950439 113.922119 Q 199.539551 114.155762 199.002441 114.155762 Q 197.912109 114.155762 197.286377 113.309814 Q 196.660645 112.463867 196.660645 110.976074 Q 196.660645 109.509766 197.289062 108.674561 Q 197.917480 107.839355 199.002441 107.839355 Q 199.544922 107.839355 199.958496 108.072998 Q 200.372070 108.306641 200.608398 108.752441 Z M 197.702637 110.997559 Q 197.702637 112.146973 198.067871 112.732422 Q 198.433105 113.317871 199.147461 113.317871 Q 199.861816 113.317871 200.235107 112.727051 Q 200.608398 112.136230 200.608398 110.997559 Q 200.608398 109.853516 200.235107 109.265381 Q 199.861816 108.677246 199.147461 108.677246 Q 198.433105 108.677246 198.067871 109.262695 Q 197.702637 109.848145 197.702637 110.997559 Z " fill="rgb(0, 0, 0)" fill-opacity="1.000000" />
<path d="M 11.860840 96.998535 Q 11.860840 95.231445 11.498291 94.474121 Q 11.135742 93.716797 10.308594 93.716797 Q 9.486816 93.716797 9.124268 94.474121 Q 8.761719 95.231445 8.761719 96.998535 Q 8.761719 98.760254 9.124268 99.517578 Q 9.486816 100.274902 10.308594 100.274902 Q 11.135742 100.274902 11.498291 99.520264 Q 11.860840 98.765625 11.860840 96.998535 Z M 12.994141 96.998535 Q 12.994141 99.093262 12.330811 100.124512 Q 11.667480 101.155762 10.308594 101.155762 Q 8.949707 101.155762 8.289062 100.129883 Q 7.628418 99.104004 7.628418 96.998535 Q 7.628418 94.898438 8.291748 93.867188 Q 8.955078 92.835938 10.308594 92.835938 Q 11.667480 92.835938 12.330811 93.867188 Q 12.994141 94.898438 12.994141 96.998535 Z " fill="rgb(0, 0, 0)" fill-opacity="1.000000" />
<path d="M 16.014160 100.242676 L 16.014160 103.288086 L 15.020508 103.288086 L 15.020508 94.984375 L 16.014160 94.984375 L 16.014160 95.752441 Q 16.261230 95.306641 16.672119 95.072998 Q 17.083008 94.839355 17.620117 94.839355 Q 18.710449 94.839355 19.330811 95.682617 Q 19.951172 96.525879 19.951172 98.019043 Q 19.951172 99.485352 19.328125 100.320557 Q 18.705078 101.155762 17.620117 101.155762 Q 17.072266 101.155762 16.661377 100.922119 Q 16.250488 100.688477 16.014160 100.242676 Z M 18.914551 97.997559 Q 18.914551 96.848145 18.552002 96.262695 Q 18.189453 95.677246 17.475098 95.677246 Q 16.755371 95.677246 16.384766 96.265381 Q 16.014160 96.853516 16.014160 97.997559 Q 16.014160 99.136230 16.384766 99.727051 Q 16.755371 100.317871 17.475098 100.317871 Q 18.189453 100.317871 18.552002 99.732422 Q 18.914551 99.146973 18.914551 97.997559 Z " fill="rgb(0, 0, 0)" fill-opacity="1.000000" />
<path d="M 27.015625 97.498047 L 27.015625 97.981445 L 22.734863 97.981445 L 22.734863 98.013672 Q 22.691895 99.243652 23.204834 99.780762 Q 23.717773 100.317871 24.652344 100.317871 Q 25.125000 100.317871 25.640625 100.167480 Q 26.156250 100.017090 26.741699 99.710938 L 26.741699 100.693848 Q 26.177734 100.924805 25.654053 101.040283 Q 25.130371 101.155762 24.641602 101.155762 Q 23.239746 101.155762 22.450195 100.315186 Q 21.660645 99.474609 21.660645 97.997559 Q 21.660645 96.558105 22.434082 95.698730 Q 23.207520 94.839355 24.496582 94.839355 Q 25.645996 94.839355 26.309326 95.618164 Q 26.972656 96.396973 27.015625 97.498047 Z M 26.027344 97.208008 Q 25.962891 96.584961 25.573486 96.131104 Q 25.184082 95.677246 24.453613 95.677246 Q 23.739258 95.677246 23.277344 96.149902 Q 22.815430 96.622559 22.772461 97.213379 Z " fill="rgb(0, 0, 0)" fill-opacity="1.000000" />
<path d="M 34.203613 96.225098 Q 33.886719 95.978027 33.559082 95.865234 Q 33.231445 95.752441 32.839355 95.752441 Q 31.915527 95.752441 31.426758 96.332520 Q 30.937988 96.912598 30.937988 98.008301 L 30.937988 101.000000 L 29.944336 101.000000 L 29.944336 94.984375 L 30.937988 94.984375 L 30.937988 96.160645 Q 31.185059 95.521484 31.697998 95.180420 Q 32.210938 94.839355 32.914551 94.839355 Q 33.279785 94.839355 33.596680 94.930664 Q 33.913574 95.021973 34.203613 95.215332 Z " fill="rgb(0, 0, 0)" fill-opacity="1.000000" />
<path d="M 38.770508 97.976074 L 38.442871 97.976074 Q 37.578125 97.976074 37.140381 98.279541 Q 36.702637 98.583008 36.702637 99.184570 Q 36.702637 99.727051 37.030273 100.027832 Q 37.357910 100.328613 37.937988 100.328613 Q 38.754395 100.328613 39.221680 99.761963 Q 39.688965 99.195312 39.694336 98.196289 L 39.694336 97.976074 Z M 40.687988 97.567871 L 40.687988 101.000000 L 39.694336 101.000000 L 39.694336 100.108398 Q 39.377441 100.645508 38.896729 100.900635 Q 38.416016 101.155762 37.728516 101.155762 Q 36.810059 101.155762 36.262207 100.637451 Q 35.714355 100.119141 35.714355 99.249023 Q 35.714355 98.244629 36.388428 97.723633 Q 37.062500 97.202637 38.367676 97.202637 L 39.694336 97.202637 L 39.694336 97.046875 Q 39.688965 96.327148 39.329102 96.002197 Q 38.969238 95.677246 38.179688 95.677246 Q 37.674805 95.677246 37.159180 95.822266 Q 36.643555 95.967285 36.154785 96.246582 L 36.154785 95.258301 Q 36.702637 95.048828 37.204834 94.944092 Q 37.707031 94.839355 38.179688 94.839355 Q 38.926270 94.839355 39.455322 95.059570 Q 39.984375 95.279785 40.312012 95.720215 Q 40.516113 95.988770 40.602051 96.383545 Q 40.687988 96.778320 40.687988 97.567871 Z " fill="rgb(0, 0, 0)" fill-opacity="1.000000" />
<path d="M 45.297852 93.276367 L 45.297852 94.984375 L 47.542969 94.984375 L 47.542969 95.752441 L 45.297852 95.752441 L 45.297852 99.018066 Q 45.297852 99.684082 45.550293 99.947266 Q 45.802734 100.210449 46.431152 100.210449 L 47.542969 100.210449 L 47.542969 101.000000 L 46.334473 101.000000 Q 45.222656 101.000000 44.766113 100.554199 Q 44.309570 100.108398 44.309570 99.018066 L 44.309570 95.752441 L 42.703613 95.752441 L 42.703613 94.984375 L 44.309570 94.984375 L 44.309570 93.276367 Z " fill="rgb(0, 0, 0)" fill-opacity="1.000000" />
<path d="M 50.697266 95.005859 L 53.227051 95.005859 L 53.227051 100.231934 L 55.187500 100.231934 L 55.187500 101.000000 L 50.278320 101.000000 L 50.278320 100.231934 L 52.238770 100.231934 L 52.238770 95.773926 L 50.697266 95.773926 Z M 52.238770 92.669434 L 53.227051 92.669434 L 53.227051 93.915527 L 52.238770 93.915527 Z " fill="rgb(0, 0, 0)" fill-opacity="1.000000" />
<path d="M 61.645020 97.272461 L 61.645020 101.000000 L 60.651367 101.000000 L 60.651367 97.272461 Q 60.651367 96.461426 60.366699 96.080078 Q 60.082031 95.698730 59.475098 95.698730 Q 58.782227 95.698730 58.408936 96.190186 Q 58.035645 96.681641 58.035645 97.600098 L 58.035645 101.000000 L 57.047363 101.000000 L 57.047363 94.984375 L 58.035645 94.984375 L 58.035645 95.886719 Q 58.298828 95.371094 58.750000 95.105225 Q 59.201172 94.839355 59.818848 94.839355 Q 60.737305 94.839355 61.191162 95.443604 Q 61.645020 96.047852 61.645020 97.272461 Z " fill="rgb(0, 0, 0)" fill-opacity="1.000000" />
<path d="M 67.608398 97.943848 Q 67.608398 96.832031 67.245850 96.254639 Q 66.883301 95.677246 66.190430 95.677246 Q 65.465332 95.677246 65.083984 96.254639 Q 64.702637 96.832031 64.702637 97.943848 Q 64.702637 99.055664 65.086670 99.638428 Q 65.470703 100.221191 66.201172 100.221191 Q 66.883301 100.221191 67.245850 99.635742 Q 67.608398 99.050293 67.608398 97.943848 Z M 68.596680 100.613281 Q 68.596680 101.966797 67.957520 102.665039 Q 67.318359 103.363281 66.077637 103.363281 Q 65.669434 103.363281 65.223633 103.288086 Q 64.777832 103.212891 64.332031 103.067871 L 64.332031 102.090332 Q 64.858398 102.337402 65.288086 102.455566 Q 65.717773 102.573730 66.077637 102.573730 Q 66.877930 102.573730 67.243164 102.138672 Q 67.608398 101.703613 67.608398 100.758301 L 67.608398 100.715332 L 67.608398 100.043945 Q 67.372070 100.548828 66.963867 100.795898 Q 66.555664 101.042969 65.970215 101.042969 Q 64.917480 101.042969 64.289062 100.199707 Q 63.660645 99.356445 63.660645 97.943848 Q 63.660645 96.525879 64.289062 95.682617 Q 64.917480 94.839355 65.970215 94.839355 Q 66.550293 94.839355 66.953125 95.070312 Q 67.355957 95.301270 67.608398 95.784668 L 67.608398 95.005859 L 68.596680 95.005859 Z " fill="rgb(0, 0, 0)" fill-opacity="1.000000" />
<path d="M 82.435547 93.254883 L 82.435547 94.355957 Q 81.941406 94.039062 81.444580 93.877930 Q 80.947754 93.716797 80.442871 93.716797 Q 79.674805 93.716797 79.229004 94.073975 Q 78.783203 94.431152 78.783203 95.038086 Q 78.783203 95.569824 79.075928 95.849121 Q 79.368652 96.128418 80.168945 96.316406 L 80.738281 96.445312 Q 81.866211 96.708496 82.381836 97.272461 Q 82.897461 97.836426 82.897461 98.808594 Q 82.897461 99.952637 82.188477 100.554199 Q 81.479492 101.155762 80.125977 101.155762 Q 79.562012 101.155762 78.992676 101.034912 Q 78.423340 100.914062 77.848633 100.672363 L 77.848633 99.517578 Q 78.466309 99.909668 79.016846 100.092285 Q 79.567383 100.274902 80.125977 100.274902 Q 80.947754 100.274902 81.404297 99.906982 Q 81.860840 99.539062 81.860840 98.878418 Q 81.860840 98.276855 81.546631 97.959961 Q 81.232422 97.643066 80.453613 97.471191 L 79.873535 97.336914 Q 78.756348 97.084473 78.251465 96.574219 Q 77.746582 96.063965 77.746582 95.204590 Q 77.746582 94.130371 78.468994 93.483154 Q 79.191406 92.835938 80.389160 92.835938 Q 80.851074 92.835938 81.361328 92.940674 Q 81.871582 93.045410 82.435547 93.254883 Z " fill="rgb(0, 0, 0)" fill-opacity="1.000000" />
<path d="M 88.608398 99.066406 Q 88.361328 99.694824 87.979980 100.720703 Q 87.448242 102.138672 87.265625 102.450195 Q 87.018555 102.869141 86.647949 103.078613 Q 86.277344 103.288086 85.783203 103.288086 L 84.988281 103.288086 L 84.988281 102.460938 L 85.573730 102.460938 Q 86.008789 102.460938 86.255859 102.208496 Q 86.502930 101.956055 86.884277 100.903320 L 84.558594 94.984375 L 85.605957 94.984375 L 87.389160 99.689453 L 89.145508 94.984375 L 90.192871 94.984375 Z " fill="rgb(0, 0, 0)" fill-opacity="1.000000" />
<path d="M 96.226074 95.193848 L 96.226074 96.160645 Q 95.801758 95.913574 95.372070 95.790039 Q 94.942383 95.666504 94.496582 95.666504 Q 93.825195 95.666504 93.494873 95.884033 Q 93.164551 96.101562 93.164551 96.547363 Q 93.164551 96.950195 93.411621 97.148926 Q 93.658691 97.347656 94.641602 97.535645 L 95.039062 97.610840 Q 95.774902 97.750488 96.153564 98.169434 Q 96.532227 98.588379 96.532227 99.259766 Q 96.532227 100.151367 95.898438 100.653564 Q 95.264648 101.155762 94.136719 101.155762 Q 93.690918 101.155762 93.202148 101.061768 Q 92.713379 100.967773 92.144043 100.779785 L 92.144043 99.759277 Q 92.697266 100.043945 93.202148 100.186279 Q 93.707031 100.328613 94.158203 100.328613 Q 94.813477 100.328613 95.173340 100.062744 Q 95.533203 99.796875 95.533203 99.318848 Q 95.533203 98.631348 94.217285 98.368164 L 94.174316 98.357422 L 93.803711 98.282227 Q 92.949707 98.115723 92.557617 97.720947 Q 92.165527 97.326172 92.165527 96.644043 Q 92.165527 95.779297 92.750977 95.309326 Q 93.336426 94.839355 94.421387 94.839355 Q 94.904785 94.839355 95.350586 94.927979 Q 95.796387 95.016602 96.226074 95.193848 Z " fill="rgb(0, 0, 0)" fill-opacity="1.000000" />
<path d="M 101.297852 93.276367 L 101.297852 94.984375 L 103.542969 94.984375 L 103.542969 95.752441 L 101.297852 95.752441 L 101.297852 99.018066 Q 101.297852 99.684082 101.550293 99.947266 Q 101.802734 100.210449 102.431152 100.210449 L 103.542969 100.210449 L 103.542969 101.000000 L 102.334473 101.000000 Q 101.222656 101.000000 100.766113 100.554199 Q 100.309570 100.108398 100.309570 99.018066 L 100.309570 95.752441 L 98.703613 95.752441 L 98.703613 94.984375 L 100.309570 94.984375 L 100.309570 93.276367 Z " fill="rgb(0, 0, 0)" fill-opacity="1.000000" />
<path d="M 111.015625 97.498047 L 111.015625 97.981445 L 106.734863 97.981445 L 106.734863 98.013672 Q 106.691895 99.243652 107.204834 99.780762 Q 107.717773 100.317871 108.652344 100.317871 Q 109.125000 100.317871 109.640625 100.167480 Q 110.156250 100.017090 110.741699 99.710938 L 110.741699 100.693848 Q 110.177734 100.924805 109.654053 101.040283 Q 109.130371 101.155762 108.641602 101.155762 Q 107.239746 101.155762 106.450195 100.315186 Q 105.660645 99.474609 105.660645 97.997559 Q 105.660645 96.558105 106.434082 95.698730 Q 107.207520 94.839355 108.496582 94.839355 Q 109.645996 94.839355 110.309326 95.618164 Q 110.972656 96.396973 111.015625 97.498047 Z M 110.027344 97.208008 Q 109.962891 96.584961 109.573486 96.131104 Q 109.184082 95.677246 108.453613 95.677246 Q 107.739258 95.677246 107.277344 96.149902 Q 106.815430 96.622559 106.772461 97.213379 Z " fill="rgb(0, 0, 0)" fill-opacity="1.000000" />
<path d="M 115.630859 95.596680 Q 115.813477 95.209961 116.095459 95.024658 Q 116.377441 94.839355 116.774902 94.839355 Q 117.500000 94.839355 117.798096 95.400635 Q 118.096191 95.961914 118.096191 97.514160 L 118.096191 101.000000 L 117.193848 101.000000 L 117.193848 97.557129 Q 117.193848 96.284180 117.051514 95.975342 Q 116.909180 95.666504 116.533203 95.666504 Q 116.103516 95.666504 115.945068 95.996826 Q 115.786621 96.327148 115.786621 97.557129 L 115.786621 101.000000 L 114.884277 101.000000 L 114.884277 97.557129 Q 114.884277 96.268066 114.731201 95.967285 Q 114.578125 95.666504 114.180664 95.666504 Q 113.788574 95.666504 113.635498 95.996826 Q 113.482422 96.327148 113.482422 97.557129 L 113.482422 101.000000 L 112.585449 101.000000 L 112.585449 94.984375 L 113.482422 94.984375 L 113.482422 95.500000 Q 113.659668 95.177734 113.925537 95.008545 Q 114.191406 94.839355 114.529785 94.839355 Q 114.937988 94.839355 115.209229 95.027344 Q 115.480469 95.215332 115.630859 95.596680 Z " fill="rgb(0, 0, 0)" fill-opacity="1.000000" />
<path d="M 121.878906 104.319336 L 121.878906 90.300781 L 122.738281 90.300781 L 122.738281 104.319336 Z " fill="rgb(0, 0, 0)" fill-opacity="1.000000" />
<path d="M 152.763184 100.715332 Q 152.349609 100.935547 151.914551 101.045654 Q 151.479492 101.155762 150.990723 101.155762 Q 149.449219 101.155762 148.597900 100.065430 Q 147.746582 98.975098 147.746582 96.998535 Q 147.746582 95.032715 148.603271 93.934326 Q 149.459961 92.835938 150.990723 92.835938 Q 151.479492 92.835938 151.914551 92.946045 Q 152.349609 93.056152 152.763184 93.276367 L 152.763184 94.388184 Q 152.365723 94.060547 151.909180 93.888672 Q 151.452637 93.716797 150.990723 93.716797 Q 149.932617 93.716797 149.406250 94.533203 Q 148.879883 95.349609 148.879883 96.998535 Q 148.879883 98.642090 149.406250 99.458496 Q 149.932617 100.274902 150.990723 100.274902 Q 151.463379 100.274902 151.917236 100.103027 Q 152.371094 99.931152 152.763184 99.603516 Z " fill="rgb(0, 0, 0)" fill-opacity="1.000000" />
<path d="M 155.047363 98.722656 L 155.047363 94.995117 L 156.035645 94.995117 L 156.035645 98.722656 Q 156.035645 99.533691 156.322998 99.915039 Q 156.610352 100.296387 157.211914 100.296387 Q 157.910156 100.296387 158.280762 99.804932 Q 158.651367 99.313477 158.651367 98.395020 L 158.651367 94.995117 L 159.645020 94.995117 L 159.645020 101.000000 L 158.651367 101.000000 L 158.651367 100.097656 Q 158.388184 100.618652 157.934326 100.887207 Q 157.480469 101.155762 156.873535 101.155762 Q 155.949707 101.155762 155.498535 100.551514 Q 155.047363 99.947266 155.047363 98.722656 Z " fill="rgb(0, 0, 0)" fill-opacity="1.000000" />
<path d="M 166.226074 95.193848 L 166.226074 96.160645 Q 165.801758 95.913574 165.372070 95.790039 Q 164.942383 95.666504 164.496582 95.666504 Q 163.825195 95.666504 163.494873 95.884033 Q 163.164551 96.101562 163.164551 96.547363 Q 163.164551 96.950195 163.411621 97.148926 Q 163.658691 97.347656 164.641602 97.535645 L 165.039062 97.610840 Q 165.774902 97.750488 166.153564 98.169434 Q 166.532227 98.588379 166.532227 99.259766 Q 166.532227 100.151367 165.898438 100.653564 Q 165.264648 101.155762 164.136719 101.155762 Q 163.690918 101.155762 163.202148 101.061768 Q 162.713379 100.967773 162.144043 100.779785 L 162.144043 99.759277 Q 162.697266 100.043945 163.202148 100.186279 Q 163.707031 100.328613 164.158203 100.328613 Q 164.813477 100.328613 165.173340 100.062744 Q 165.533203 99.796875 165.533203 99.318848 Q 165.533203 98.631348 164.217285 98.368164 L 164.174316 98.357422 L 163.803711 98.282227 Q 162.949707 98.115723 162.557617 97.720947 Q 162.165527 97.326172 162.165527 96.644043 Q 162.165527 95.779297 162.750977 95.309326 Q 163.336426 94.839355 164.421387 94.839355 Q 164.904785 94.839355 165.350586 94.927979 Q 165.796387 95.016602 166.226074 95.193848 Z " fill="rgb(0, 0, 0)" fill-opacity="1.000000" />
<path d="M 171.297852 93.276367 L 171.297852 94.984375 L 173.542969 94.984375 L 173.542969 95.752441 L 171.297852 95.752441 L 171.297852 99.018066 Q 171.297852 99.684082 171.550293 99.947266 Q 171.802734 100.210449 172.431152 100.210449 L 173.542969 100.210449 L 173.542969 101.000000 L 172.334473 101.000000 Q 171.222656 101.000000 170.766113 100.554199 Q 170.309570 100.108398 170.309570 99.018066 L 170.309570 95.752441 L 168.703613 95.752441 L 168.703613 94.984375 L 170.309570 94.984375 L 170.309570 93.276367 Z " fill="rgb(0, 0, 0)" fill-opacity="1.000000" />
<path d="M 178.308594 95.677246 Q 177.556641 95.677246 177.169922 96.262695 Q 176.783203 96.848145 176.783203 97.997559 Q 176.783203 99.141602 177.169922 99.729736 Q 177.556641 100.317871 178.308594 100.317871 Q 179.065918 100.317871 179.452637 99.729736 Q 179.839355 99.141602 179.839355 97.997559 Q 179.839355 96.848145 179.452637 96.262695 Q 179.065918 95.677246 178.308594 95.677246 Z M 178.308594 94.839355 Q 179.560059 94.839355 180.223389 95.650391 Q 180.886719 96.461426 180.886719 97.997559 Q 180.886719 99.539062 180.226074 100.347412 Q 179.565430 101.155762 178.308594 101.155762 Q 177.057129 101.155762 176.396484 100.347412 Q 175.735840 99.539062 175.735840 97.997559 Q 175.735840 96.461426 176.396484 95.650391 Q 177.057129 94.839355 178.308594 94.839355 Z " fill="rgb(0, 0, 0)" fill-opacity="1.000000" />
<path d="M 185.630859 95.596680 Q 185.813477 95.209961 186.095459 95.024658 Q 186.377441 94.839355 186.774902 94.839355 Q 187.500000 94.839355 187.798096 95.400635 Q 188.096191 95.961914 188.096191 97.514160 L 188.096191 101.000000 L 187.193848 101.000000 L 187.193848 97.557129 Q 187.193848 96.284180 187.051514 95.975342 Q 186.909180 95.666504 186.533203 95.666504 Q 186.103516 95.666504 185.945068 95.996826 Q 185.786621 96.327148 185.786621 97.557129 L 185.786621 101.000000 L 184.884277 101.000000 L 184.884277 97.557129 Q 184.884277 96.268066 184.731201 95.967285 Q 184.578125 95.666504 184.180664 95.666504 Q 183.788574 95.666504 183.635498 95.996826 Q 183.482422 96.327148 183.482422 97.557129 L 183.482422 101.000000 L 182.585449 101.000000 L 182.585449 94.984375 L 183.482422 94.984375 L 183.482422 95.500000 Q 183.659668 95.177734 183.925537 95.008545 Q 184.191406 94.839355 184.529785 94.839355 Q 184.937988 94.839355 185.209229 95.027344 Q 185.480469 95.215332 185.630859 95.596680 Z " fill="rgb(0, 0, 0)" fill-opacity="1.000000" />
<path d="M 195.015625 97.498047 L 195.015625 97.981445 L 190.734863 97.981445 L 190.734863 98.013672 Q 190.691895 99.243652 191.204834 99.780762 Q 191.717773 100.317871 192.652344 100.317871 Q 193.125000 100.317871 193.640625 100.167480 Q 194.156250 100.017090 194.741699 99.710938 L 194.741699 100.693848 Q 194.177734 100.924805 193.654053 101.040283 Q 193.130371 101.155762 192.641602 101.155762 Q 191.239746 101.155762 190.450195 100.315186 Q 189.660645 99.474609 189.660645 97.997559 Q 189.660645 96.558105 190.434082 95.698730 Q 191.207520 94.839355 192.496582 94.839355 Q 193.645996 94.839355 194.309326 95.618164 Q 194.972656 96.396973 195.015625 97.498047 Z M 194.027344 97.208008 Q 193.962891 96.584961 193.573486 96.131104 Q 193.184082 95.677246 192.453613 95.677246 Q 191.739258 95.677246 191.277344 96.149902 Q 190.815430 96.622559 190.772461 97.213379 Z " fill="rgb(0, 0, 0)" fill-opacity="1.000000" />
<path d="M 202.203613 96.225098 Q 201.886719 95.978027 201.559082 95.865234 Q 201.231445 95.752441 200.839355 95.752441 Q 199.915527 95.752441 199.426758 96.332520 Q 198.937988 96.912598 198.937988 98.008301 L 198.937988 101.000000 L 197.944336 101.000000 L 197.944336 94.984375 L 198.937988 94.984375 L 198.937988 96.160645 Q 199.185059 95.521484 199.697998 95.180420 Q 200.210938 94.839355 200.914551 94.839355 Q 201.279785 94.839355 201.596680 94.930664 Q 201.913574 95.021973 202.203613 95.215332 Z " fill="rgb(0, 0, 0)" fill-opacity="1.000000" />
<path d="M 6.892578 85.335938 L 6.892578 84.412109 L 13.729980 84.412109 L 13.729980 85.335938 Z " fill="rgb(0, 0, 0)" fill-opacity="1.000000" />
<path d="M 13.892578 85.335938 L 13.892578 84.412109 L 20.729980 84.412109 L 20.729980 85.335938 Z " fill="rgb(0, 0, 0)" fill-opacity="1.000000" />
<path d="M 20.892578 85.335938 L 20.892578 84.412109 L 27.729980 84.412109 L 27.729980 85.335938 Z " fill="rgb(0, 0, 0)" fill-opacity="1.000000" />
<path d="M 27.892578 85.335938 L 27.892578 84.412109 L 34.729980 84.412109 L 34.729980 85.335938 Z " fill="rgb(0, 0, 0)" fill-opacity="1.000000" />
<path d="M 34.892578 85.335938 L 34.892578 84.412109 L 41.729980 84.412109 L 41.729980 85.335938 Z " fill="rgb(0, 0, 0)" fill-opacity="1.000000" />
<path d="M 41.892578 85.335938 L 41.892578 84.412109 L 48.729980 84.412109 L 48.729980 85.335938 Z " fill="rgb(0, 0, 0)" fill-opacity="1.000000" />
<path d="M 48.892578 85.335938 L 48.892578 84.412109 L 55.729980 84.412109 L 55.729980 85.335938 Z " fill="rgb(0, 0, 0)" fill-opacity="1.000000" />
<path d="M 55.892578 85.335938 L 55.892578 84.412109 L 62.729980 84.412109 L 62.729980 85.335938 Z " fill="rgb(0, 0, 0)" fill-opacity="1.000000" />
<path d="M 62.892578 85.335938 L 62.892578 84.412109 L 69.729980 84.412109 L 69.729980 85.335938 Z " fill="rgb(0, 0, 0)" fill-opacity="1.000000" />
<path d="M 69.892578 85.335938 L 69.892578 84.412109 L 76.729980 84.412109 L 76.729980 85.335938 Z " fill="rgb(0, 0, 0)" fill-opacity="1.000000" />
<path d="M 76.892578 85.335938 L 76.892578 84.412109 L 83.729980 84.412109 L 83.729980 85.335938 Z " fill="rgb(0, 0, 0)" fill-opacity="1.000000" />
<path d="M 83.892578 85.335938 L 83.892578 84.412109 L 90.729980 84.412109 L 90.729980 85.335938 Z " fill="rgb(0, 0, 0)" fill-opacity="1.000000" />
<path d="M 90.892578 85.335938 L 90.892578 84.412109 L 97.729980 84.412109 L 97.729980 85.335938 Z " fill="rgb(0, 0, 0)" fill-opacity="1.000000" />
<path d="M 97.892578 85.335938 L 97.892578 84.412109 L 104.729980 84.412109 L 104.729980 85.335938 Z " fill="rgb(0, 0, 0)" fill-opacity="1.000000" />
<path d="M 104.892578 85.335938 L 104.892578 84.412109 L 111.729980 84.412109 L 111.729980 85.335938 Z " fill="rgb(0, 0, 0)" fill-opacity="1.000000" />
<path d="M 111.892578 85.335938 L 111.892578 84.412109 L 118.729980 84.412109 L 118.729980 85.335938 Z " fill="rgb(0, 0, 0)" fill-opacity="1.000000" />
<path d="M 121.878906 91.319336 L 121.878906 85.335938 L 118.892578 85.335938 L 118.892578 84.412109 L 121.878906 84.412109 L 121.878906 77.300781 L 122.738281 77.300781 L 122.738281 91.319336 Z " fill="rgb(0, 0, 0)" fill-opacity="1.000000" />
<path d="M 154.102051 80.007812 L 155.584473 80.007812 L 158.721191 86.587402 L 158.721191 80.007812 L 159.875977 80.007812 L 159.875977 88.000000 L 158.393555 88.000000 L 155.256836 81.420410 L 155.256836 88.000000 L 154.102051 88.000000 Z " fill="rgb(0, 0, 0)" fill-opacity="1.000000" />
<path d="M 164.308594 82.677246 Q 163.556641 82.677246 163.169922 83.262695 Q 162.783203 83.848145 162.783203 84.997559 Q 162.783203 86.141602 163.169922 86.729736 Q 163.556641 87.317871 164.308594 87.317871 Q 165.065918 87.317871 165.452637 86.729736 Q 165.839355 86.141602 165.839355 84.997559 Q 165.839355 83.848145 165.452637 83.262695 Q 165.065918 82.677246 164.308594 82.677246 Z M 164.308594 81.839355 Q 165.560059 81.839355 166.223389 82.650391 Q 166.886719 83.461426 166.886719 84.997559 Q 166.886719 86.539062 166.226074 87.347412 Q 165.565430 88.155762 164.308594 88.155762 Q 163.057129 88.155762 162.396484 87.347412 Q 161.735840 86.539062 161.735840 84.997559 Q 161.735840 83.461426 162.396484 82.650391 Q 163.057129 81.839355 164.308594 81.839355 Z " fill="rgb(0, 0, 0)" fill-opacity="1.000000" />
<path d="M 171.297852 80.276367 L 171.297852 81.984375 L 173.542969 81.984375 L 173.542969 82.752441 L 171.297852 82.752441 L 171.297852 86.018066 Q 171.297852 86.684082 171.550293 86.947266 Q 171.802734 87.210449 172.431152 87.210449 L 173.542969 87.210449 L 173.542969 88.000000 L 172.334473 88.000000 Q 171.222656 88.000000 170.766113 87.554199 Q 170.309570 87.108398 170.309570 86.018066 L 170.309570 82.752441 L 168.703613 82.752441 L 168.703613 81.984375 L 170.309570 81.984375 L 170.309570 80.276367 Z " fill="rgb(0, 0, 0)" fill-opacity="1.000000" />
<path d="M 180.645020 84.272461 L 180.645020 88.000000 L 179.651367 88.000000 L 179.651367 84.272461 Q 179.651367 83.461426 179.366699 83.080078 Q 179.082031 82.698730 178.475098 82.698730 Q 177.782227 82.698730 177.408936 83.190186 Q 177.035645 83.681641 177.035645 84.600098 L 177.035645 88.000000 L 176.047363 88.000000 L 176.047363 79.642578 L 177.035645 79.642578 L 177.035645 82.886719 Q 177.298828 82.371094 177.750000 82.105225 Q 178.201172 81.839355 178.818848 81.839355 Q 179.737305 81.839355 180.191162 82.443604 Q 180.645020 83.047852 180.645020 84.272461 Z " fill="rgb(0, 0, 0)" fill-opacity="1.000000" />
<path d="M 183.697266 82.005859 L 186.227051 82.005859 L 186.227051 87.231934 L 188.187500 87.231934 L 188.187500 88.000000 L 183.278320 88.000000 L 183.278320 87.231934 L 185.238770 87.231934 L 185.238770 82.773926 L 183.697266 82.773926 Z M 185.238770 79.669434 L 186.227051 79.669434 L 186.227051 80.915527 L 185.238770 80.915527 Z " fill="rgb(0, 0, 0)" fill-opacity="1.000000" />
<path d="M 194.645020 84.272461 L 194.645020 88.000000 L 193.651367 88.000000 L 193.651367 84.272461 Q 193.651367 83.461426 193.366699 83.080078 Q 193.082031 82.698730 192.475098 82.698730 Q 191.782227 82.698730 191.408936 83.190186 Q 191.035645 83.681641 191.035645 84.600098 L 191.035645 88.000000 L 190.047363 88.000000 L 190.047363 81.984375 L 191.035645 81.984375 L 191.035645 82.886719 Q 191.298828 82.371094 191.750000 82.105225 Q 192.201172 81.839355 192.818848 81.839355 Q 193.737305 81.839355 194.191162 82.443604 Q 194.645020 83.047852 194.645020 84.272461 Z " fill="rgb(0, 0, 0)" fill-opacity="1.000000" />
<path d="M 200.608398 84.943848 Q 200.608398 83.832031 200.245850 83.254639 Q 199.883301 82.677246 199.190430 82.677246 Q 198.465332 82.677246 198.083984 83.254639 Q 197.702637 83.832031 197.702637 84.943848 Q 197.702637 86.055664 198.086670 86.638428 Q 198.470703 87.221191 199.201172 87.221191 Q 199.883301 87.221191 200.245850 86.635742 Q 200.608398 86.050293 200.608398 84.943848 Z M 201.596680 87.613281 Q 201.596680 88.966797 200.957520 89.665039 Q 200.318359 90.363281 199.077637 90.363281 Q 198.669434 90.363281 198.223633 90.288086 Q 197.777832 90.212891 197.332031 90.067871 L 197.332031 89.090332 Q 197.858398 89.337402 198.288086 89.455566 Q 198.717773 89.573730 199.077637 89.573730 Q 199.877930 89.573730 200.243164 89.138672 Q 200.608398 88.703613 200.608398 87.758301 L 200.608398 87.715332 L 200.608398 87.043945 Q 200.372070 87.548828 199.963867 87.795898 Q 199.555664 88.042969 198.970215 88.042969 Q 197.917480 88.042969 197.289062 87.199707 Q 196.660645 86.356445 196.660645 84.943848 Q 196.660645 83.525879 197.289062 82.682617 Q 197.917480 81.839355 198.970215 81.839355 Q 199.550293 81.839355 199.953125 82.070312 Q 200.355957 82.301270 200.608398 82.784668 L 200.608398 82.005859 L 201.596680 82.005859 Z " fill="rgb(0, 0, 0)" fill-opacity="1.000000" />
<path d="M 39.082031 71.213379 Q 39.500977 71.320801 39.796387 71.618896 Q 40.091797 71.916992 40.532227 72.808594 L 41.622559 75.000000 L 40.457031 75.000000 L 39.500977 72.975098 Q 39.087402 72.110352 38.757080 71.860596 Q 38.426758 71.610840 37.895020 71.610840 L 36.858398 71.610840 L 36.858398 75.000000 L 35.768066 75.000000 L 35.768066 66.980957 L 38.002441 66.980957 Q 39.323730 66.980957 40.027344 67.577148 Q 40.730957 68.173340 40.730957 69.301270 Q 40.730957 70.096191 40.298584 70.598389 Q 39.866211 71.100586 39.082031 71.213379 Z M 36.858398 67.872559 L 36.858398 70.719238 L 38.045410 70.719238 Q 38.824219 70.719238 39.205566 70.370117 Q 39.586914 70.020996 39.586914 69.301270 Q 39.586914 68.608398 39.181396 68.240479 Q 38.775879 67.872559 38.002441 67.872559 Z " fill="rgb(0, 0, 0)" fill-opacity="1.000000" />
<path d="M 43.047363 72.722656 L 43.047363 68.995117 L 44.035645 68.995117 L 44.035645 72.722656 Q 44.035645 73.533691 44.322998 73.915039 Q 44.610352 74.296387 45.211914 74.296387 Q 45.910156 74.296387 46.280762 73.804932 Q 46.651367 73.313477 46.651367 72.395020 L 46.651367 68.995117 L 47.645020 68.995117 L 47.645020 75.000000 L 46.651367 75.000000 L 46.651367 74.097656 Q 46.388184 74.618652 45.934326 74.887207 Q 45.480469 75.155762 44.873535 75.155762 Q 43.949707 75.155762 43.498535 74.551514 Q 43.047363 73.947266 43.047363 72.722656 Z " fill="rgb(0, 0, 0)" fill-opacity="1.000000" />
<path d="M 54.645020 71.272461 L 54.645020 75.000000 L 53.651367 75.000000 L 53.651367 71.272461 Q 53.651367 70.461426 53.366699 70.080078 Q 53.082031 69.698730 52.475098 69.698730 Q 51.782227 69.698730 51.408936 70.190186 Q 51.035645 70.681641 51.035645 71.600098 L 51.035645 75.000000 L 50.047363 75.000000 L 50.047363 68.984375 L 51.035645 68.984375 L 51.035645 69.886719 Q 51.298828 69.371094 51.750000 69.105225 Q 52.201172 68.839355 52.818848 68.839355 Q 53.737305 68.839355 54.191162 69.443604 Q 54.645020 70.047852 54.645020 71.272461 Z " fill="rgb(0, 0, 0)" fill-opacity="1.000000" />
<path d="M 59.297852 67.276367 L 59.297852 68.984375 L 61.542969 68.984375 L 61.542969 69.752441 L 59.297852 69.752441 L 59.297852 73.018066 Q 59.297852 73.684082 59.550293 73.947266 Q 59.802734 74.210449 60.431152 74.210449 L 61.542969 74.210449 L 61.542969 75.000000 L 60.334473 75.000000 Q 59.222656 75.000000 58.766113 74.554199 Q 58.309570 74.108398 58.309570 73.018066 L 58.309570 69.752441 L 56.703613 69.752441 L 56.703613 68.984375 L 58.309570 68.984375 L 58.309570 67.276367 Z " fill="rgb(0, 0, 0)" fill-opacity="1.000000" />
<path d="M 64.697266 69.005859 L 67.227051 69.005859 L 67.227051 74.231934 L 69.187500 74.231934 L 69.187500 75.000000 L 64.278320 75.000000 L 64.278320 74.231934 L 66.238770 74.231934 L 66.238770 69.773926 L 64.697266 69.773926 Z M 66.238770 66.669434 L 67.227051 66.669434 L 67.227051 67.915527 L 66.238770 67.915527 Z " fill="rgb(0, 0, 0)" fill-opacity="1.000000" />
<path d="M 73.630859 69.596680 Q 73.813477 69.209961 74.095459 69.024658 Q 74.377441 68.839355 74.774902 68.839355 Q 75.500000 68.839355 75.798096 69.400635 Q 76.096191 69.961914 76.096191 71.514160 L 76.096191 75.000000 L 75.193848 75.000000 L 75.193848 71.557129 Q 75.193848 70.284180 75.051514 69.975342 Q 74.909180 69.666504 74.533203 69.666504 Q 74.103516 69.666504 73.945068 69.996826 Q 73.786621 70.327148 73.786621 71.557129 L 73.786621 75.000000 L 72.884277 75.000000 L 72.884277 71.557129 Q 72.884277 70.268066 72.731201 69.967285 Q 72.578125 69.666504 72.180664 69.666504 Q 71.788574 69.666504 71.635498 69.996826 Q 71.482422 70.327148 71.482422 71.557129 L 71.482422 75.000000 L 70.585449 75.000000 L 70.585449 68.984375 L 71.482422 68.984375 L 71.482422 69.500000 Q 71.659668 69.177734 71.925537 69.008545 Q 72.191406 68.839355 72.529785 68.839355 Q 72.937988 68.839355 73.209229 69.027344 Q 73.480469 69.215332 73.630859 69.596680 Z " fill="rgb(0, 0, 0)" fill-opacity="1.000000" />
<path d="M 83.015625 71.498047 L 83.015625 71.981445 L 78.734863 71.981445 L 78.734863 72.013672 Q 78.691895 73.243652 79.204834 73.780762 Q 79.717773 74.317871 80.652344 74.317871 Q 81.125000 74.317871 81.640625 74.167480 Q 82.156250 74.017090 82.741699 73.710938 L 82.741699 74.693848 Q 82.177734 74.924805 81.654053 75.040283 Q 81.130371 75.155762 80.641602 75.155762 Q 79.239746 75.155762 78.450195 74.315186 Q 77.660645 73.474609 77.660645 71.997559 Q 77.660645 70.558105 78.434082 69.698730 Q 79.207520 68.839355 80.496582 68.839355 Q 81.645996 68.839355 82.309326 69.618164 Q 82.972656 70.396973 83.015625 71.498047 Z M 82.027344 71.208008 Q 81.962891 70.584961 81.573486 70.131104 Q 81.184082 69.677246 80.453613 69.677246 Q 79.739258 69.677246 79.277344 70.149902 Q 78.815430 70.622559 78.772461 71.213379 Z " fill="rgb(0, 0, 0)" fill-opacity="1.000000" />
<path d="M 121.878906 78.319336 L 121.878906 64.300781 L 122.738281 64.300781 L 122.738281 78.319336 Z " fill="rgb(0, 0, 0)" fill-opacity="1.000000" />
<path d="M 6.892578 59.335938 L 6.892578 58.412109 L 13.729980 58.412109 L 13.729980 59.335938 Z " fill="rgb(0, 0, 0)" fill-opacity="1.000000" />
<path d="M 13.892578 59.335938 L 13.892578 58.412109 L 20.729980 58.412109 L 20.729980 59.335938 Z " fill="rgb(0, 0, 0)" fill-opacity="1.000000" />
<path d="M 20.892578 59.335938 L 20.892578 58.412109 L 27.729980 58.412109 L 27.729980 59.335938 Z " fill="rgb(0, 0, 0)" fill-opacity="1.000000" />
<path d="M 27.892578 59.335938 L 27.892578 58.412109 L 34.729980 58.412109 L 34.729980 59.335938 Z " fill="rgb(0, 0, 0)" fill-opacity="1.000000" />
<path d="M 34.892578 59.335938 L 34.892578 58.412109 L 41.729980 58.412109 L 41.729980 59.335938 Z " fill="rgb(0, 0, 0)" fill-opacity="1.000000" />
<path d="M 41.892578 59.335938 L 41.892578 58.412109 L 48.729980 58.412109 L 48.729980 59.335938 Z " fill="rgb(0, 0, 0)" fill-opacity="1.000000" />
<path d="M 48.892578 59.335938 L 48.892578 58.412109 L 55.729980 58.412109 L 55.729980 59.335938 Z " fill="rgb(0, 0, 0)" fill-opacity="1.000000" />
<path d="M 55.892578 59.335938 L 55.892578 58.412109 L 62.729980 58.412109 L 62.729980 59.335938 Z " fill="rgb(0, 0, 0)" fill-opacity="1.000000" />
<path d="M 62.892578 59.335938 L 62.892578 58.412109 L 69.729980 58.412109 L 69.729980 59.335938 Z " fill="rgb(0, 0, 0)" fill-opacity="1.000000" />
<path d="M 69.892578 59.335938 L 69.892578 58.412109 L 76.729980 58.412109 L 76.729980 59.335938 Z " fill="rgb(0, 0, 0)" fill-opacity="1.000000" />
<path d="M 76.892578 59.335938 L 76.892578 58.412109 L 83.729980 58.412109 L 83.729980 59.335938 Z " fill="rgb(0, 0, 0)" fill-opacity="1.000000" />
<path d="M 83.892578 59.335938 L 83.892578 58.412109 L 90.729980 58.412109 L 90.729980 59.335938 Z " fill="rgb(0, 0, 0)" fill-opacity="1.000000" />
<path d="M 90.892578 59.335938 L 90.892578 58.412109 L 97.729980 58.412109 L 97.729980 59.335938 Z " fill="rgb(0, 0, 0)" fill-opacity="1.000000" />
<path d="M 97.892578 59.335938 L 97.892578 58.412109 L 104.729980 58.412109 L 104.729980 59.335938 Z " fill="rgb(0, 0, 0)" fill-opacity="1.000000" />
<path d="M 104.892578 59.335938 L 104.892578 58.412109 L 111.729980 58.412109 L 111.729980 59.335938 Z " fill="rgb(0, 0, 0)" fill-opacity="1.000000" />
<path d="M 111.892578 59.335938 L 111.892578 58.412109 L 118.729980 58.412109 L 118.729980 59.335938 Z " fill="rgb(0, 0, 0)" fill-opacity="1.000000" />
<path d="M 121.878906 65.319336 L 121.878906 59.335938 L 118.892578 59.335938 L 118.892578 58.412109 L 121.878906 58.412109 L 121.878906 51.300781 L 122.738281 51.300781 L 122.738281 65.319336 Z " fill="rgb(0, 0, 0)" fill-opacity="1.000000" />
<path d="M 24.308594 41.937012 L 23.164551 46.040527 L 25.452637 46.040527 Z M 23.653320 40.980957 L 24.969238 40.980957 L 27.423828 49.000000 L 26.301270 49.000000 L 25.710449 46.910645 L 22.901367 46.910645 L 22.321289 49.000000 L 21.198730 49.000000 Z " fill="rgb(0, 0, 0)" fill-opacity="1.000000" />
<path d="M 30.014160 48.242676 L 30.014160 51.288086 L 29.020508 51.288086 L 29.020508 42.984375 L 30.014160 42.984375 L 30.014160 43.752441 Q 30.261230 43.306641 30.672119 43.072998 Q 31.083008 42.839355 31.620117 42.839355 Q 32.710449 42.839355 33.330811 43.682617 Q 33.951172 44.525879 33.951172 46.019043 Q 33.951172 47.485352 33.328125 48.320557 Q 32.705078 49.155762 31.620117 49.155762 Q 31.072266 49.155762 30.661377 48.922119 Q 30.250488 48.688477 30.014160 48.242676 Z M 32.914551 45.997559 Q 32.914551 44.848145 32.552002 44.262695 Q 32.189453 43.677246 31.475098 43.677246 Q 30.755371 43.677246 30.384766 44.265381 Q 30.014160 44.853516 30.014160 45.997559 Q 30.014160 47.136230 30.384766 47.727051 Q 30.755371 48.317871 31.475098 48.317871 Q 32.189453 48.317871 32.552002 47.732422 Q 32.914551 47.146973 32.914551 45.997559 Z " fill="rgb(0, 0, 0)" fill-opacity="1.000000" />
<path d="M 37.014160 48.242676 L 37.014160 51.288086 L 36.020508 51.288086 L 36.020508 42.984375 L 37.014160 42.984375 L 37.014160 43.752441 Q 37.261230 43.306641 37.672119 43.072998 Q 38.083008 42.839355 38.620117 42.839355 Q 39.710449 42.839355 40.330811 43.682617 Q 40.951172 44.525879 40.951172 46.019043 Q 40.951172 47.485352 40.328125 48.320557 Q 39.705078 49.155762 38.620117 49.155762 Q 38.072266 49.155762 37.661377 48.922119 Q 37.250488 48.688477 37.014160 48.242676 Z M 39.914551 45.997559 Q 39.914551 44.848145 39.552002 44.262695 Q 39.189453 43.677246 38.475098 43.677246 Q 37.755371 43.677246 37.384766 44.265381 Q 37.014160 44.853516 37.014160 45.997559 Q 37.014160 47.136230 37.384766 47.727051 Q 37.755371 48.317871 38.475098 48.317871 Q 39.189453 48.317871 39.552002 47.732422 Q 39.914551 47.146973 39.914551 45.997559 Z " fill="rgb(0, 0, 0)" fill-opacity="1.000000" />
<path d="M 45.861816 46.824707 Q 45.861816 47.490723 46.106201 47.829102 Q 46.350586 48.167480 46.828613 48.167480 L 47.983398 48.167480 L 47.983398 49.000000 L 46.731934 49.000000 Q 45.845703 49.000000 45.359619 48.433350 Q 44.873535 47.866699 44.873535 46.824707 L 44.873535 41.383789 L 43.289062 41.383789 L 43.289062 40.610352 L 45.861816 40.610352 Z " fill="rgb(0, 0, 0)" fill-opacity="1.000000" />
<path d="M 50.697266 43.005859 L 53.227051 43.005859 L 53.227051 48.231934 L 55.187500 48.231934 L 55.187500 49.000000 L 50.278320 49.000000 L 50.278320 48.231934 L 52.238770 48.231934 L 52.238770 43.773926 L 50.697266 43.773926 Z M 52.238770 40.669434 L 53.227051 40.669434 L 53.227051 41.915527 L 52.238770 41.915527 Z " fill="rgb(0, 0, 0)" fill-opacity="1.000000" />
<path d="M 61.698730 48.693848 Q 61.301270 48.924805 60.879639 49.040283 Q 60.458008 49.155762 60.017578 49.155762 Q 58.621094 49.155762 57.834229 48.317871 Q 57.047363 47.479980 57.047363 45.997559 Q 57.047363 44.515137 57.834229 43.677246 Q 58.621094 42.839355 60.017578 42.839355 Q 60.452637 42.839355 60.866211 42.952148 Q 61.279785 43.064941 61.698730 43.301270 L 61.698730 44.337891 Q 61.306641 43.988770 60.911865 43.833008 Q 60.517090 43.677246 60.017578 43.677246 Q 59.088379 43.677246 58.588867 44.278809 Q 58.089355 44.880371 58.089355 45.997559 Q 58.089355 47.109375 58.591553 47.713623 Q 59.093750 48.317871 60.017578 48.317871 Q 60.533203 48.317871 60.941406 48.159424 Q 61.349609 48.000977 61.698730 47.667969 Z " fill="rgb(0, 0, 0)" fill-opacity="1.000000" />
<path d="M 66.770508 45.976074 L 66.442871 45.976074 Q 65.578125 45.976074 65.140381 46.279541 Q 64.702637 46.583008 64.702637 47.184570 Q 64.702637 47.727051 65.030273 48.027832 Q 65.357910 48.328613 65.937988 48.328613 Q 66.754395 48.328613 67.221680 47.761963 Q 67.688965 47.195312 67.694336 46.196289 L 67.694336 45.976074 Z M 68.687988 45.567871 L 68.687988 49.000000 L 67.694336 49.000000 L 67.694336 48.108398 Q 67.377441 48.645508 66.896729 48.900635 Q 66.416016 49.155762 65.728516 49.155762 Q 64.810059 49.155762 64.262207 48.637451 Q 63.714355 48.119141 63.714355 47.249023 Q 63.714355 46.244629 64.388428 45.723633 Q 65.062500 45.202637 66.367676 45.202637 L 67.694336 45.202637 L 67.694336 45.046875 Q 67.688965 44.327148 67.329102 44.002197 Q 66.969238 43.677246 66.179688 43.677246 Q 65.674805 43.677246 65.159180 43.822266 Q 64.643555 43.967285 64.154785 44.246582 L 64.154785 43.258301 Q 64.702637 43.048828 65.204834 42.944092 Q 65.707031 42.839355 66.179688 42.839355 Q 66.926270 42.839355 67.455322 43.059570 Q 67.984375 43.279785 68.312012 43.720215 Q 68.516113 43.988770 68.602051 44.383545 Q 68.687988 44.778320 68.687988 45.567871 Z " fill="rgb(0, 0, 0)" fill-opacity="1.000000" />
<path d="M 73.297852 41.276367 L 73.297852 42.984375 L 75.542969 42.984375 L 75.542969 43.752441 L 73.297852 43.752441 L 73.297852 47.018066 Q 73.297852 47.684082 73.550293 47.947266 Q 73.802734 48.210449 74.431152 48.210449 L 75.542969 48.210449 L 75.542969 49.000000 L 74.334473 49.000000 Q 73.222656 49.000000 72.766113 48.554199 Q 72.309570 48.108398 72.309570 47.018066 L 72.309570 43.752441 L 70.703613 43.752441 L 70.703613 42.984375 L 72.309570 42.984375 L 72.309570 41.276367 Z " fill="rgb(0, 0, 0)" fill-opacity="1.000000" />
<path d="M 78.697266 43.005859 L 81.227051 43.005859 L 81.227051 48.231934 L 83.187500 48.231934 L 83.187500 49.000000 L 78.278320 49.000000 L 78.278320 48.231934 L 80.238770 48.231934 L 80.238770 43.773926 L 78.697266 43.773926 Z M 80.238770 40.669434 L 81.227051 40.669434 L 81.227051 41.915527 L 80.238770 41.915527 Z " fill="rgb(0, 0, 0)" fill-opacity="1.000000" />
<path d="M 87.308594 43.677246 Q 86.556641 43.677246 86.169922 44.262695 Q 85.783203 44.848145 85.783203 45.997559 Q 85.783203 47.141602 86.169922 47.729736 Q 86.556641 48.317871 87.308594 48.317871 Q 88.065918 48.317871 88.452637 47.729736 Q 88.839355 47.141602 88.839355 45.997559 Q 88.839355 44.848145 88.452637 44.262695 Q 88.065918 43.677246 87.308594 43.677246 Z M 87.308594 42.839355 Q 88.560059 42.839355 89.223389 43.650391 Q 89.886719 44.461426 89.886719 45.997559 Q 89.886719 47.539062 89.226074 48.347412 Q 88.565430 49.155762 87.308594 49.155762 Q 86.057129 49.155762 85.396484 48.347412 Q 84.735840 47.539062 84.735840 45.997559 Q 84.735840 44.461426 85.396484 43.650391 Q 86.057129 42.839355 87.308594 42.839355 Z " fill="rgb(0, 0, 0)" fill-opacity="1.000000" />
<path d="M 96.645020 45.272461 L 96.645020 49.000000 L 95.651367 49.000000 L 95.651367 45.272461 Q 95.651367 44.461426 95.366699 44.080078 Q 95.082031 43.698730 94.475098 43.698730 Q 93.782227 43.698730 93.408936 44.190186 Q 93.035645 44.681641 93.035645 45.600098 L 93.035645 49.000000 L 92.047363 49.000000 L 92.047363 42.984375 L 93.035645 42.984375 L 93.035645 43.886719 Q 93.298828 43.371094 93.750000 43.105225 Q 94.201172 42.839355 94.818848 42.839355 Q 95.737305 42.839355 96.191162 43.443604 Q 96.645020 44.047852 96.645020 45.272461 Z " fill="rgb(0, 0, 0)" fill-opacity="1.000000" />
<path d="M 121.878906 52.319336 L 121.878906 38.300781 L 122.738281 38.300781 L 122.738281 52.319336 Z " fill="rgb(0, 0, 0)" fill-opacity="1.000000" />
<path d="M 6.892578 33.335938 L 6.892578 32.412109 L 13.729980 32.412109 L 13.729980 33.335938 Z " fill="rgb(0, 0, 0)" fill-opacity="1.000000" />
<path d="M 13.892578 33.335938 L 13.892578 32.412109 L 20.729980 32.412109 L 20.729980 33.335938 Z " fill="rgb(0, 0, 0)" fill-opacity="1.000000" />
<path d="M 20.892578 33.335938 L 20.892578 32.412109 L 27.729980 32.412109 L 27.729980 33.335938 Z " fill="rgb(0, 0, 0)" fill-opacity="1.000000" />
<path d="M 27.892578 33.335938 L 27.892578 32.412109 L 34.729980 32.412109 L 34.729980 33.335938 Z " fill="rgb(0, 0, 0)" fill-opacity="1.000000" />
<path d="M 34.892578 33.335938 L 34.892578 32.412109 L 41.729980 32.412109 L 41.729980 33.335938 Z " fill="rgb(0, 0, 0)" fill-opacity="1.000000" />
<path d="M 41.892578 33.335938 L 41.892578 32.412109 L 48.729980 32.412109 L 48.729980 33.335938 Z " fill="rgb(0, 0, 0)" fill-opacity="1.000000" />
<path d="M 48.892578 33.335938 L 48.892578 32.412109 L 55.729980 32.412109 L 55.729980 33.335938 Z " fill="rgb(0, 0, 0)" fill-opacity="1.000000" />
<path d="M 55.892578 33.335938 L 55.892578 32.412109 L 62.729980 32.412109 L 62.729980 33.335938 Z " fill="rgb(0, 0, 0)" fill-opacity="1.000000" />
<path d="M 62.892578 33.335938 L 62.892578 32.412109 L 69.729980 32.412109 L 69.729980 33.335938 Z " fill="rgb(0, 0, 0)" fill-opacity="1.000000" />
<path d="M 69.892578 33.335938 L 69.892578 32.412109 L 76.729980 32.412109 L 76.729980 33.335938 Z " fill="rgb(0, 0, 0)" fill-opacity="1.000000" />
<path d="M 76.892578 33.335938 L 76.892578 32.412109 L 83.729980 32.412109 L 83.729980 33.335938 Z " fill="rgb(0, 0, 0)" fill-opacity="1.000000" />
<path d="M 83.892578 33.335938 L 83.892578 32.412109 L 90.729980 32.412109 L 90.729980 33.335938 Z " fill="rgb(0, 0, 0)" fill-opacity="1.000000" />
<path d="M 90.892578 33.335938 L 90.892578 32.412109 L 97.729980 32.412109 L 97.729980 33.335938 Z " fill="rgb(0, 0, 0)" fill-opacity="1.000000" />
<path d="M 97.892578 33.335938 L 97.892578 32.412109 L 104.729980 32.412109 L 104.729980 33.335938 Z " fill="rgb(0, 0, 0)" fill-opacity="1.000000" />
<path d="M 104.892578 33.335938 L 104.892578 32.412109 L 111.729980 32.412109 L 111.729980 33.335938 Z " fill="rgb(0, 0, 0)" fill-opacity="1.000000" />
<path d="M 111.892578 33.335938 L 111.892578 32.412109 L 118.729980 32.412109 L 118.729980 33.335938 Z " fill="rgb(0, 0, 0)" fill-opacity="1.000000" />
<path d="M 121.878906 39.319336 L 121.878906 33.335938 L 118.892578 33.335938 L 118.892578 32.412109 L 121.878906 32.412109 L 121.878906 25.300781 L 122.738281 25.300781 L 122.738281 39.319336 Z " fill="rgb(0, 0, 0)" fill-opacity="1.000000" />
<path d="M 51.341797 22.108398 Q 52.711426 22.108398 53.253906 21.434326 Q 53.796387 20.760254 53.796387 18.998535 Q 53.796387 17.220703 53.256592 16.546631 Q 52.716797 15.872559 51.341797 15.872559 L 50.826172 15.872559 L 50.826172 22.108398 Z M 51.363281 14.980957 Q 53.200195 14.980957 54.070312 15.958496 Q 54.940430 16.936035 54.940430 18.998535 Q 54.940430 21.050293 54.070312 22.025146 Q 53.200195 23.000000 51.363281 23.000000 L 49.735840 23.000000 L 49.735840 14.980957 Z " fill="rgb(0, 0, 0)" fill-opacity="1.000000" />
<path d="M 59.770508 19.976074 L 59.442871 19.976074 Q 58.578125 19.976074 58.140381 20.279541 Q 57.702637 20.583008 57.702637 21.184570 Q 57.702637 21.727051 58.030273 22.027832 Q 58.357910 22.328613 58.937988 22.328613 Q 59.754395 22.328613 60.221680 21.761963 Q 60.688965 21.195312 60.694336 20.196289 L 60.694336 19.976074 Z M 61.687988 19.567871 L 61.687988 23.000000 L 60.694336 23.000000 L 60.694336 22.108398 Q 60.377441 22.645508 59.896729 22.900635 Q 59.416016 23.155762 58.728516 23.155762 Q 57.810059 23.155762 57.262207 22.637451 Q 56.714355 22.119141 56.714355 21.249023 Q 56.714355 20.244629 57.388428 19.723633 Q 58.062500 19.202637 59.367676 19.202637 L 60.694336 19.202637 L 60.694336 19.046875 Q 60.688965 18.327148 60.329102 18.002197 Q 59.969238 17.677246 59.179688 17.677246 Q 58.674805 17.677246 58.159180 17.822266 Q 57.643555 17.967285 57.154785 18.246582 L 57.154785 17.258301 Q 57.702637 17.048828 58.204834 16.944092 Q 58.707031 16.839355 59.179688 16.839355 Q 59.926270 16.839355 60.455322 17.059570 Q 60.984375 17.279785 61.312012 17.720215 Q 61.516113 17.988770 61.602051 18.383545 Q 61.687988 18.778320 61.687988 19.567871 Z " fill="rgb(0, 0, 0)" fill-opacity="1.000000" />
<path d="M 66.297852 15.276367 L 66.297852 16.984375 L 68.542969 16.984375 L 68.542969 17.752441 L 66.297852 17.752441 L 66.297852 21.018066 Q 66.297852 21.684082 66.550293 21.947266 Q 66.802734 22.210449 67.431152 22.210449 L 68.542969 22.210449 L 68.542969 23.000000 L 67.334473 23.000000 Q 66.222656 23.000000 65.766113 22.554199 Q 65.309570 22.108398 65.309570 21.018066 L 65.309570 17.752441 L 63.703613 17.752441 L 63.703613 16.984375 L 65.309570 16.984375 L 65.309570 15.276367 Z " fill="rgb(0, 0, 0)" fill-opacity="1.000000" />
<path d="M 73.770508 19.976074 L 73.442871 19.976074 Q 72.578125 19.976074 72.140381 20.279541 Q 71.702637 20.583008 71.702637 21.184570 Q 71.702637 21.727051 72.030273 22.027832 Q 72.357910 22.328613 72.937988 22.328613 Q 73.754395 22.328613 74.221680 21.761963 Q 74.688965 21.195312 74.694336 20.196289 L 74.694336 19.976074 Z M 75.687988 19.567871 L 75.687988 23.000000 L 74.694336 23.000000 L 74.694336 22.108398 Q 74.377441 22.645508 73.896729 22.900635 Q 73.416016 23.155762 72.728516 23.155762 Q 71.810059 23.155762 71.262207 22.637451 Q 70.714355 22.119141 70.714355 21.249023 Q 70.714355 20.244629 71.388428 19.723633 Q 72.062500 19.202637 73.367676 19.202637 L 74.694336 19.202637 L 74.694336 19.046875 Q 74.688965 18.327148 74.329102 18.002197 Q 73.969238 17.677246 73.179688 17.677246 Q 72.674805 17.677246 72.159180 17.822266 Q 71.643555 17.967285 71.154785 18.246582 L 71.154785 17.258301 Q 71.702637 17.048828 72.204834 16.944092 Q 72.707031 16.839355 73.179688 16.839355 Q 73.926270 16.839355 74.455322 17.059570 Q 74.984375 17.279785 75.312012 17.720215 Q 75.516113 17.988770 75.602051 18.383545 Q 75.687988 18.778320 75.687988 19.567871 Z " fill="rgb(0, 0, 0)" fill-opacity="1.000000" />
<path d="M 121.878906 26.319336 L 121.878906 12.300781 L 122.738281 12.300781 L 122.738281 26.319336 Z " fill="rgb(0, 0, 0)" fill-opacity="1.000000" />
<path d="M 6.892578 7.335938 L 6.892578 6.412109 L 13.729980 6.412109 L 13.729980 7.335938 Z " fill="rgb(0, 0, 0)" fill-opacity="1.000000" />
<path d="M 13.892578 7.335938 L 13.892578 6.412109 L 20.729980 6.412109 L 20.729980 7.335938 Z " fill="rgb(0, 0, 0)" fill-opacity="1.000000" />
<path d="M 20.892578 7.335938 L 20.892578 6.412109 L 27.729980 6.412109 L 27.729980 7.335938 Z " fill="rgb(0, 0, 0)" fill-opacity="1.000000" />
<path d="M 27.892578 7.335938 L 27.892578 6.412109 L 34.729980 6.412109 L 34.729980 7.335938 Z " fill="rgb(0, 0, 0)" fill-opacity="1.000000" />
<path d="M 34.892578 7.335938 L 34.892578 6.412109 L 41.729980 6.412109 L 41.729980 7.335938 Z " fill="rgb(0, 0, 0)" fill-opacity="1.000000" />
<path d="M 41.892578 7.335938 L 41.892578 6.412109 L 48.729980 6.412109 L 48.729980 7.335938 Z " fill="rgb(0, 0, 0)" fill-opacity="1.000000" />
<path d="M 48.892578 7.335938 L 48.892578 6.412109 L 55.729980 6.412109 L 55.729980 7.335938 Z " fill="rgb(0, 0, 0)" fill-opacity="1.000000" />
<path d="M 55.892578 7.335938 L 55.892578 6.412109 L 62.729980 6.412109 L 62.729980 7.335938 Z " fill="rgb(0, 0, 0)" fill-opacity="1.000000" />
<path d="M 62.892578 7.335938 L 62.892578 6.412109 L 69.729980 6.412109 L 69.729980 7.335938 Z " fill="rgb(0, 0, 0)" fill-opacity="1.000000" />
<path d="M 69.892578 7.335938 L 69.892578 6.412109 L 76.729980 6.412109 L 76.729980 7.335938 Z " fill="rgb(0, 0, 0)" fill-opacity="1.000000" />
<path d="M 76.892578 7.335938 L 76.892578 6.412109 L 83.729980 6.412109 L 83.729980 7.335938 Z " fill="rgb(0, 0, 0)" fill-opacity="1.000000" />
<path d="M 83.892578 7.335938 L 83.892578 6.412109 L 90.729980 6.412109 L 90.729980 7.335938 Z " fill="rgb(0, 0, 0)" fill-opacity="1.000000" />
<path d="M 90.892578 7.335938 L 90.892578 6.412109 L 97.729980 6.412109 L 97.729980 7.335938 Z " fill="rgb(0, 0, 0)" fill-opacity="1.000000" />
<path d="M 97.892578 7.335938 L 97.892578 6.412109 L 104.729980 6.412109 L 104.729980 7.335938 Z " fill="rgb(0, 0, 0)" fill-opacity="1.000000" />
<path d="M 104.892578 7.335938 L 104.892578 6.412109 L 111.729980 6.412109 L 111.729980 7.335938 Z " fill="rgb(0, 0, 0)" fill-opacity="1.000000" />
<path d="M 111.892578 7.335938 L 111.892578 6.412109 L 118.729980 6.412109 L 118.729980 7.335938 Z " fill="rgb(0, 0, 0)" fill-opacity="1.000000" />
<path d="M 121.878906 13.319336 L 121.878906 7.335938 L 118.892578 7.335938 L 118.892578 6.412109 L 122.738281 6.412109 L 122.738281 13.319336 Z " fill="rgb(0, 0, 0)" fill-opacity="1.000000" />
</svg>